<svg xmlns="http://www.w3.org/2000/svg" xmlns:xlink="http://www.w3.org/1999/xlink" width="1920" zoomAndPan="magnify" viewBox="0 0 1440 809.999993" height="1080" preserveAspectRatio="xMidYMid meet" version="1.0"><defs><g/></defs><rect x="-144" width="1728" fill="#ffffff" y="-80.999999" height="971.999992" fill-opacity="1"/><rect x="-144" width="1728" fill="#ffffff" y="-80.999999" height="971.999992" fill-opacity="1"/><g fill="#874a22" fill-opacity="1"><g transform="translate(397.192751, 339.750032)"><g><path d="M 21.828125 20.328125 C 21.535156 20.328125 21.285156 20.253906 21.078125 20.109375 C 20.867188 19.960938 20.765625 19.773438 20.765625 19.546875 C 20.765625 19.304688 21 18.722656 21.46875 17.796875 C 23.75 13.117188 25.632812 9.421875 27.125 6.703125 C 28.613281 3.984375 30.289062 1.222656 32.15625 -1.578125 C 34.03125 -4.378906 36.691406 -8.175781 40.140625 -12.96875 C 42.828125 -16.644531 46.097656 -20.863281 49.953125 -25.625 C 53.804688 -30.394531 56.40625 -33.363281 57.75 -34.53125 C 59.382812 -40.78125 60.203125 -46.066406 60.203125 -50.390625 C 60.203125 -54.890625 59.410156 -58.085938 57.828125 -59.984375 C 56.253906 -61.890625 54.039062 -62.84375 51.1875 -62.84375 C 48.664062 -62.84375 45.945312 -62.269531 43.03125 -61.125 C 40.113281 -59.988281 37.132812 -58.601562 34.09375 -56.96875 C 28.945312 -54.164062 23.863281 -50.789062 18.84375 -46.84375 C 13.820312 -42.894531 9.820312 -39.195312 6.84375 -35.75 C 6.25 -35.113281 5.953125 -34.707031 5.953125 -34.53125 C 5.953125 -34.414062 6.097656 -34.359375 6.390625 -34.359375 C 6.691406 -34.359375 7.175781 -34.398438 7.84375 -34.484375 C 8.519531 -34.578125 9.0625 -34.625 9.46875 -34.625 C 9.757812 -34.625 9.960938 -34.609375 10.078125 -34.578125 C 10.191406 -34.546875 10.25 -34.472656 10.25 -34.359375 L 9.46875 -34 C 7.769531 -33.070312 6.335938 -32.609375 5.171875 -32.609375 C 4.523438 -32.609375 3.910156 -32.898438 3.328125 -33.484375 C 2.742188 -34.066406 2.273438 -34.707031 1.921875 -35.40625 C 1.578125 -36.101562 1.40625 -36.570312 1.40625 -36.8125 C 1.40625 -38.332031 2.894531 -40.4375 5.875 -43.125 C 8.851562 -45.8125 12.722656 -48.628906 17.484375 -51.578125 C 22.242188 -54.523438 27.109375 -57.082031 32.078125 -59.25 C 40.546875 -62.988281 47.410156 -64.859375 52.671875 -64.859375 C 56.640625 -64.859375 59.820312 -63.703125 62.21875 -61.390625 C 64.613281 -59.085938 65.8125 -55.304688 65.8125 -50.046875 C 65.8125 -47.828125 65.578125 -45.253906 65.109375 -42.328125 C 70.492188 -47.703125 75.769531 -52.203125 80.9375 -55.828125 C 86.101562 -59.453125 90.382812 -61.265625 93.78125 -61.265625 C 95.707031 -61.265625 97.28125 -60.53125 98.5 -59.0625 C 99.726562 -57.601562 100.34375 -55.328125 100.34375 -52.234375 C 100.34375 -50.015625 99.929688 -47.382812 99.109375 -44.34375 C 98.296875 -41.300781 97.304688 -38.289062 96.140625 -35.3125 C 94.972656 -32.332031 93.515625 -28.742188 91.765625 -24.546875 C 90.535156 -21.679688 89.539062 -19.253906 88.78125 -17.265625 C 88.425781 -16.390625 88.25 -15.804688 88.25 -15.515625 C 88.25 -15.273438 88.335938 -15.15625 88.515625 -15.15625 C 88.753906 -15.15625 89.222656 -15.566406 89.921875 -16.390625 C 99.035156 -27.660156 107.59375 -34.992188 115.59375 -38.390625 C 117.050781 -38.972656 118.335938 -39.265625 119.453125 -39.265625 C 121.148438 -39.265625 122 -38.59375 122 -37.25 C 122 -36.78125 121.851562 -36.109375 121.5625 -35.234375 C 119.570312 -29.742188 117.582031 -23.429688 115.59375 -16.296875 C 113.613281 -9.171875 112.625 -2.71875 112.625 3.0625 C 112.625 7.039062 113.28125 10.179688 114.59375 12.484375 C 115.90625 14.796875 118.019531 15.953125 120.9375 15.953125 C 123.28125 15.953125 125.894531 15.070312 128.78125 13.3125 C 131.675781 11.5625 134.4375 9.195312 137.0625 6.21875 C 137.53125 5.695312 137.878906 5.332031 138.109375 5.125 C 138.347656 4.914062 138.523438 4.8125 138.640625 4.8125 C 138.765625 4.8125 138.867188 4.867188 138.953125 4.984375 C 139.035156 5.109375 139.078125 5.257812 139.078125 5.4375 C 139.078125 5.726562 138.972656 6.09375 138.765625 6.53125 C 138.566406 6.96875 138.265625 7.421875 137.859375 7.890625 C 134.765625 11.453125 131.550781 14.164062 128.21875 16.03125 C 124.882812 17.90625 121.757812 18.84375 118.84375 18.84375 C 114.75 18.84375 111.796875 17.175781 109.984375 13.84375 C 108.171875 10.519531 107.265625 6.109375 107.265625 0.609375 C 107.265625 -3.535156 107.6875 -7.988281 108.53125 -12.75 C 109.382812 -17.507812 110.410156 -21.890625 111.609375 -25.890625 C 112.804688 -29.898438 113.84375 -32.867188 114.71875 -34.796875 C 112.4375 -33.796875 109.660156 -31.863281 106.390625 -29 C 103.117188 -26.144531 99.945312 -23.019531 96.875 -19.625 C 93.8125 -16.238281 91.4375 -13.347656 89.75 -10.953125 C 88.8125 -9.609375 88.003906 -8.523438 87.328125 -7.703125 C 86.660156 -6.890625 86.148438 -6.378906 85.796875 -6.171875 C 85.453125 -5.972656 84.984375 -5.875 84.390625 -5.875 C 83.804688 -5.875 83.28125 -5.988281 82.8125 -6.21875 C 82.351562 -6.457031 82.125 -6.75 82.125 -7.09375 C 82.125 -7.445312 82.269531 -8.046875 82.5625 -8.890625 C 82.851562 -9.742188 83.171875 -10.664062 83.515625 -11.65625 C 84.804688 -15.164062 86.179688 -19.609375 87.640625 -24.984375 C 89.097656 -30.359375 90.320312 -35.523438 91.3125 -40.484375 C 92.3125 -45.453125 92.8125 -49.164062 92.8125 -51.625 C 92.8125 -53.550781 92.5625 -54.976562 92.0625 -55.90625 C 91.570312 -56.84375 90.828125 -57.3125 89.828125 -57.3125 C 87.492188 -57.3125 83.898438 -55.265625 79.046875 -51.171875 C 74.203125 -47.085938 69.117188 -42.210938 63.796875 -36.546875 C 61.867188 -28.890625 59.066406 -21.5 55.390625 -14.375 C 51.710938 -7.25 47.722656 -1.484375 43.421875 2.921875 C 39.128906 7.335938 35.144531 9.546875 31.46875 9.546875 C 31 9.546875 30.515625 9.488281 30.015625 9.375 C 29.515625 9.257812 29.09375 9.113281 28.75 8.9375 C 26.113281 13.664062 24.269531 16.910156 23.21875 18.671875 C 22.582031 19.773438 22.117188 20.328125 21.828125 20.328125 Z M 29.96875 7.1875 C 32.601562 7.070312 35.523438 5.363281 38.734375 2.0625 C 41.953125 -1.238281 45.050781 -5.503906 48.03125 -10.734375 C 51.007812 -15.960938 53.488281 -21.441406 55.46875 -27.171875 C 51.90625 -23.253906 47.769531 -18.109375 43.0625 -11.734375 C 38.363281 -5.367188 34 0.9375 29.96875 7.1875 Z M 29.96875 7.1875 "/></g></g></g><g fill="#874a22" fill-opacity="1"><g transform="translate(520.42102, 339.750032)"><g><path d="M 7.28125 2.28125 C 5.632812 2.28125 4.253906 1.78125 3.140625 0.78125 C 2.035156 -0.207031 1.484375 -1.84375 1.484375 -4.125 C 1.484375 -6.570312 2.171875 -9.535156 3.546875 -13.015625 C 4.921875 -16.492188 6.703125 -19.78125 8.890625 -22.875 C 11.085938 -25.96875 13.296875 -28.242188 15.515625 -29.703125 C 15.804688 -29.878906 16.050781 -30.007812 16.25 -30.09375 C 16.457031 -30.1875 16.679688 -30.234375 16.921875 -30.234375 C 17.328125 -30.234375 17.789062 -30.128906 18.3125 -29.921875 C 18.84375 -29.722656 19.3125 -29.476562 19.71875 -29.1875 C 20.832031 -30.46875 22.085938 -31.109375 23.484375 -31.109375 C 25.472656 -31.109375 26.757812 -30.347656 27.34375 -28.828125 C 27.925781 -27.316406 28.21875 -25.476562 28.21875 -23.3125 C 28.21875 -20.914062 27.617188 -18.210938 26.421875 -15.203125 C 25.222656 -12.191406 23.601562 -9.375 21.5625 -6.75 C 22.144531 -6.28125 22.785156 -6.046875 23.484375 -6.046875 C 25.003906 -6.046875 26.597656 -6.804688 28.265625 -8.328125 C 29.929688 -9.847656 31.609375 -11.804688 33.296875 -14.203125 L 34.96875 -16.5625 C 35.144531 -16.800781 35.289062 -16.921875 35.40625 -16.921875 C 35.632812 -16.921875 35.851562 -16.757812 36.0625 -16.4375 C 36.269531 -16.113281 36.375 -15.804688 36.375 -15.515625 C 36.375 -15.273438 36.316406 -15.070312 36.203125 -14.90625 L 34.1875 -12 C 32.3125 -9.375 30.484375 -7.34375 28.703125 -5.90625 C 26.921875 -4.476562 25.125 -3.765625 23.3125 -3.765625 C 22.082031 -3.765625 20.972656 -4.113281 19.984375 -4.8125 C 18.054688 -2.65625 15.992188 -0.9375 13.796875 0.34375 C 11.609375 1.632812 9.4375 2.28125 7.28125 2.28125 Z M 19.890625 -9.46875 C 20.828125 -10.8125 21.71875 -12.5625 22.5625 -14.71875 C 23.414062 -16.882812 24.117188 -19.03125 24.671875 -21.15625 C 25.222656 -23.289062 25.5 -25.03125 25.5 -26.375 C 25.5 -27.132812 25.367188 -27.71875 25.109375 -28.125 C 24.847656 -28.539062 24.484375 -28.75 24.015625 -28.75 C 23.429688 -28.75 22.847656 -28.441406 22.265625 -27.828125 C 21.679688 -27.210938 21.179688 -26.320312 20.765625 -25.15625 C 20.242188 -23.75 19.835938 -22.15625 19.546875 -20.375 C 19.253906 -18.59375 19.109375 -16.851562 19.109375 -15.15625 C 19.109375 -12.9375 19.367188 -11.039062 19.890625 -9.46875 Z M 8.5 0.09375 C 11.1875 0.09375 14.367188 -2.242188 18.046875 -6.921875 C 17.347656 -8.085938 16.804688 -9.457031 16.421875 -11.03125 C 16.046875 -12.613281 15.859375 -14.3125 15.859375 -16.125 C 15.859375 -19.164062 16.296875 -21.941406 17.171875 -24.453125 C 15.710938 -22.992188 14.148438 -21.066406 12.484375 -18.671875 C 10.816406 -16.273438 9.382812 -13.660156 8.1875 -10.828125 C 6.988281 -7.992188 6.390625 -5.289062 6.390625 -2.71875 C 6.390625 -1.84375 6.566406 -1.15625 6.921875 -0.65625 C 7.273438 -0.15625 7.800781 0.09375 8.5 0.09375 Z M 8.5 0.09375 "/></g></g></g><g fill="#874a22" fill-opacity="1"><g transform="translate(550.132535, 339.750032)"><g><path d="M 3.25 1.484375 C 2.539062 1.484375 1.9375 1.289062 1.4375 0.90625 C 0.945312 0.53125 0.566406 0.0820312 0.296875 -0.4375 C 0.0351562 -0.96875 -0.09375 -1.4375 -0.09375 -1.84375 C -0.09375 -3.476562 0.835938 -6.367188 2.703125 -10.515625 C 4.578125 -14.660156 7.019531 -19.378906 10.03125 -24.671875 C 13.039062 -29.960938 16.179688 -35.03125 19.453125 -39.875 C 24.128906 -46.832031 28.265625 -52.191406 31.859375 -55.953125 C 35.453125 -59.722656 38.242188 -61.609375 40.234375 -61.609375 C 40.929688 -61.609375 41.960938 -61.285156 43.328125 -60.640625 C 44.703125 -60.003906 45.945312 -59.21875 47.0625 -58.28125 C 48.175781 -57.34375 48.734375 -56.492188 48.734375 -55.734375 C 48.734375 -54.210938 46.394531 -51.054688 41.71875 -46.265625 C 37.039062 -41.484375 31.691406 -36.476562 25.671875 -31.25 C 19.660156 -26.019531 15.164062 -22.351562 12.1875 -20.25 C 10.957031 -17.90625 9.582031 -14.367188 8.0625 -9.640625 C 9.40625 -11.679688 11.226562 -13.957031 13.53125 -16.46875 C 15.84375 -18.988281 17.816406 -21.035156 19.453125 -22.609375 C 20.453125 -23.546875 21.578125 -24.40625 22.828125 -25.1875 C 24.085938 -25.976562 25.332031 -26.375 26.5625 -26.375 C 27.601562 -26.375 28.445312 -26.035156 29.09375 -25.359375 C 29.738281 -24.691406 30.0625 -23.628906 30.0625 -22.171875 C 30.0625 -21.585938 29.914062 -20.332031 29.625 -18.40625 C 29.5625 -18.050781 29.398438 -16.75 29.140625 -14.5 C 28.878906 -12.25 28.75 -10.191406 28.75 -8.328125 C 28.75 -6.867188 28.894531 -5.742188 29.1875 -4.953125 C 29.476562 -4.160156 30.003906 -3.765625 30.765625 -3.765625 C 31.703125 -3.765625 32.867188 -4.535156 34.265625 -6.078125 C 35.671875 -7.628906 37.304688 -9.722656 39.171875 -12.359375 L 39.609375 -12.96875 C 41.066406 -15.007812 41.945312 -16.03125 42.25 -16.03125 C 42.476562 -16.03125 42.679688 -15.898438 42.859375 -15.640625 C 43.035156 -15.378906 43.125 -15.101562 43.125 -14.8125 C 43.125 -14.570312 43.0625 -14.367188 42.9375 -14.203125 L 41.28125 -11.65625 C 39.9375 -9.550781 38.5625 -7.679688 37.15625 -6.046875 C 35.519531 -4.117188 34 -2.570312 32.59375 -1.40625 C 31.195312 -0.238281 29.738281 0.34375 28.21875 0.34375 C 26.46875 0.34375 25.269531 -0.457031 24.625 -2.0625 C 23.976562 -3.664062 23.65625 -5.753906 23.65625 -8.328125 C 23.65625 -9.554688 23.6875 -10.609375 23.75 -11.484375 C 23.8125 -12.359375 23.867188 -13.085938 23.921875 -13.671875 C 24.097656 -15.367188 24.1875 -16.914062 24.1875 -18.3125 C 24.1875 -19.65625 24.082031 -20.601562 23.875 -21.15625 C 23.675781 -21.71875 23.34375 -22 22.875 -22 C 21.707031 -22 20.085938 -20.816406 18.015625 -18.453125 C 15.941406 -16.085938 13.78125 -13.179688 11.53125 -9.734375 C 9.28125 -6.285156 7.25 -2.894531 5.4375 0.4375 C 5.019531 0.84375 4.648438 1.117188 4.328125 1.265625 C 4.015625 1.410156 3.65625 1.484375 3.25 1.484375 Z M 15.078125 -25.328125 C 18.929688 -28.597656 23.132812 -32.335938 27.6875 -36.546875 C 32.25 -40.753906 36.179688 -44.640625 39.484375 -48.203125 C 42.785156 -51.765625 44.4375 -54.128906 44.4375 -55.296875 C 44.4375 -55.878906 44.226562 -56.316406 43.8125 -56.609375 C 43.40625 -56.898438 42.910156 -57.046875 42.328125 -57.046875 C 40.460938 -57.046875 37.960938 -55.484375 34.828125 -52.359375 C 31.703125 -49.234375 28.382812 -45.242188 24.875 -40.390625 C 21.375 -35.546875 18.109375 -30.523438 15.078125 -25.328125 Z M 15.078125 -25.328125 "/></g></g></g><g fill="#874a22" fill-opacity="1"><g transform="translate(587.293834, 339.750032)"><g><path d="M 21.640625 1.140625 C 20.585938 1.140625 19.738281 0.71875 19.09375 -0.125 C 18.457031 -0.976562 18.140625 -2.191406 18.140625 -3.765625 C 18.140625 -5.867188 18.5625 -8.144531 19.40625 -10.59375 C 20.257812 -13.050781 21.238281 -15.332031 22.34375 -17.4375 C 21.53125 -16.5625 20.160156 -14.75 18.234375 -12 C 15.597656 -8.144531 13.285156 -5.109375 11.296875 -2.890625 C 9.316406 -0.671875 7.476562 0.4375 5.78125 0.4375 C 4.5 0.4375 3.332031 0 2.28125 -0.875 C 1.226562 -1.75 0.703125 -3.148438 0.703125 -5.078125 C 0.703125 -6.890625 1.210938 -9.035156 2.234375 -11.515625 C 3.253906 -14.003906 4.757812 -16.769531 6.75 -19.8125 C 8.15625 -21.96875 9.894531 -23.9375 11.96875 -25.71875 C 14.039062 -27.5 16.203125 -28.898438 18.453125 -29.921875 C 20.703125 -30.953125 22.816406 -31.46875 24.796875 -31.46875 C 25.503906 -31.46875 26.457031 -31.320312 27.65625 -31.03125 C 28.851562 -30.738281 29.90625 -30.328125 30.8125 -29.796875 C 31.71875 -29.273438 32.171875 -28.660156 32.171875 -27.953125 C 32.171875 -27.722656 32.109375 -27.535156 31.984375 -27.390625 C 31.867188 -27.242188 31.722656 -27.171875 31.546875 -27.171875 C 31.367188 -27.171875 31.078125 -27.285156 30.671875 -27.515625 C 29.273438 -28.335938 27.960938 -28.75 26.734375 -28.75 C 24.628906 -28.75 22.316406 -27.957031 19.796875 -26.375 C 17.285156 -24.800781 14.660156 -22.144531 11.921875 -18.40625 C 9.054688 -14.488281 7.113281 -11.429688 6.09375 -9.234375 C 5.070312 -7.046875 4.5625 -5.367188 4.5625 -4.203125 C 4.5625 -3.328125 4.878906 -2.890625 5.515625 -2.890625 C 6.222656 -2.890625 7.160156 -3.359375 8.328125 -4.296875 C 10.835938 -6.335938 13.203125 -8.6875 15.421875 -11.34375 C 17.640625 -14.007812 19.507812 -16.523438 21.03125 -18.890625 C 22.550781 -21.253906 23.632812 -23.164062 24.28125 -24.625 C 24.332031 -24.863281 24.535156 -24.984375 24.890625 -24.984375 C 25.359375 -24.984375 25.882812 -24.773438 26.46875 -24.359375 C 27.050781 -23.953125 27.5625 -23.441406 28 -22.828125 C 28.4375 -22.210938 28.65625 -21.554688 28.65625 -20.859375 C 28.65625 -20.328125 28.539062 -19.859375 28.3125 -19.453125 C 26.90625 -17.003906 25.75 -14.65625 24.84375 -12.40625 C 23.9375 -10.15625 23.484375 -8.09375 23.484375 -6.21875 C 23.484375 -4.53125 24.007812 -3.6875 25.0625 -3.6875 C 25.9375 -3.6875 27 -4.285156 28.25 -5.484375 C 29.507812 -6.679688 31.253906 -8.707031 33.484375 -11.5625 C 35.117188 -13.613281 36.164062 -14.898438 36.625 -15.421875 C 37.09375 -15.953125 37.472656 -16.21875 37.765625 -16.21875 C 38.003906 -16.21875 38.195312 -16.15625 38.34375 -16.03125 C 38.488281 -15.914062 38.5625 -15.769531 38.5625 -15.59375 C 38.5625 -15.363281 38.179688 -14.664062 37.421875 -13.5 C 36.078125 -11.332031 34.484375 -9.140625 32.640625 -6.921875 C 30.804688 -4.703125 28.910156 -2.800781 26.953125 -1.21875 C 24.992188 0.351562 23.222656 1.140625 21.640625 1.140625 Z M 21.640625 1.140625 "/></g></g></g><g fill="#874a22" fill-opacity="1"><g transform="translate(619.634687, 339.750032)"><g><path d="M 9.203125 0.703125 C 8.378906 0.703125 7.617188 0.566406 6.921875 0.296875 C 6.222656 0.0351562 5.875 -0.265625 5.875 -0.609375 C 5.875 -0.722656 5.898438 -0.8125 5.953125 -0.875 L 7.625 -3.765625 C 10.3125 -8.265625 12.515625 -12.207031 14.234375 -15.59375 C 15.960938 -18.988281 17.351562 -22.46875 18.40625 -26.03125 C 18.519531 -26.382812 18.578125 -26.789062 18.578125 -27.25 C 18.578125 -27.601562 18.488281 -27.851562 18.3125 -28 C 18.132812 -28.144531 17.84375 -28.21875 17.4375 -28.21875 C 16.675781 -28.21875 15.710938 -27.5625 14.546875 -26.25 C 13.378906 -24.9375 11.742188 -22.726562 9.640625 -19.625 C 7.828125 -17 5.753906 -14.082031 3.421875 -10.875 C 2.953125 -10.226562 2.628906 -9.90625 2.453125 -9.90625 C 2.273438 -9.90625 2.140625 -10.050781 2.046875 -10.34375 C 1.960938 -10.632812 1.921875 -10.957031 1.921875 -11.3125 C 1.921875 -11.832031 1.984375 -12.179688 2.109375 -12.359375 C 5.085938 -16.617188 6.925781 -19.335938 7.625 -20.515625 L 14.203125 -31.109375 C 14.367188 -31.398438 14.785156 -31.632812 15.453125 -31.8125 C 16.128906 -31.988281 16.765625 -32.078125 17.359375 -32.078125 C 18.285156 -32.078125 19.273438 -31.859375 20.328125 -31.421875 C 21.378906 -30.984375 22.253906 -30.382812 22.953125 -29.625 C 23.660156 -28.863281 24.015625 -28.046875 24.015625 -27.171875 C 24.015625 -26.171875 23.765625 -25.085938 23.265625 -23.921875 C 22.773438 -22.753906 22.0625 -21.296875 21.125 -19.546875 C 20.300781 -18.023438 19.742188 -16.941406 19.453125 -16.296875 C 22.085938 -19.691406 24.773438 -22.613281 27.515625 -25.0625 C 30.265625 -27.519531 32.804688 -28.75 35.140625 -28.75 C 36.660156 -28.75 37.738281 -28.207031 38.375 -27.125 C 39.019531 -26.039062 39.34375 -24.65625 39.34375 -22.96875 C 39.34375 -21.789062 39.226562 -20.601562 39 -19.40625 C 38.769531 -18.207031 38.476562 -17.203125 38.125 -16.390625 L 37.25 -14.28125 C 39.582031 -16.914062 41.316406 -18.832031 42.453125 -20.03125 C 43.597656 -21.226562 44.460938 -22.085938 45.046875 -22.609375 C 45.984375 -23.484375 47.109375 -24.328125 48.421875 -25.140625 C 49.734375 -25.960938 50.972656 -26.375 52.140625 -26.375 C 53.253906 -26.375 54.128906 -26.007812 54.765625 -25.28125 C 55.410156 -24.550781 55.734375 -23.457031 55.734375 -22 C 55.734375 -21.300781 55.585938 -19.984375 55.296875 -18.046875 C 55.242188 -17.640625 55.082031 -16.351562 54.8125 -14.1875 C 54.550781 -12.03125 54.421875 -10.132812 54.421875 -8.5 C 54.421875 -7.039062 54.550781 -5.898438 54.8125 -5.078125 C 55.082031 -4.265625 55.476562 -3.859375 56 -3.859375 C 56.757812 -3.859375 57.925781 -4.691406 59.5 -6.359375 C 61.082031 -8.023438 63.070312 -10.347656 65.46875 -13.328125 C 66.988281 -15.253906 67.921875 -16.21875 68.265625 -16.21875 C 68.441406 -16.21875 68.617188 -16.15625 68.796875 -16.03125 C 68.972656 -15.914062 69.0625 -15.742188 69.0625 -15.515625 C 69.0625 -15.109375 68.242188 -13.78125 66.609375 -11.53125 C 64.972656 -9.28125 63.570312 -7.484375 62.40625 -6.140625 C 60.769531 -4.265625 59.203125 -2.726562 57.703125 -1.53125 C 56.210938 -0.332031 54.828125 0.265625 53.546875 0.265625 C 51.972656 0.265625 50.878906 -0.503906 50.265625 -2.046875 C 49.648438 -3.597656 49.34375 -5.691406 49.34375 -8.328125 C 49.34375 -10.140625 49.429688 -11.921875 49.609375 -13.671875 C 49.722656 -15.890625 49.78125 -17.4375 49.78125 -18.3125 C 49.78125 -19.65625 49.675781 -20.601562 49.46875 -21.15625 C 49.269531 -21.71875 48.9375 -22 48.46875 -22 C 47.53125 -22 46.390625 -21.410156 45.046875 -20.234375 C 43.703125 -19.066406 41.976562 -17.171875 39.875 -14.546875 C 39 -13.441406 38.125 -12.226562 37.25 -10.90625 C 36.375 -9.59375 35.554688 -8.320312 34.796875 -7.09375 C 33.742188 -5.34375 33.097656 -4.289062 32.859375 -3.9375 C 32.160156 -3.125 31.445312 -2.507812 30.71875 -2.09375 C 29.988281 -1.6875 29.359375 -1.484375 28.828125 -1.484375 C 28.304688 -1.484375 27.882812 -1.660156 27.5625 -2.015625 C 27.238281 -2.367188 27.078125 -2.863281 27.078125 -3.5 C 27.078125 -3.96875 27.222656 -4.640625 27.515625 -5.515625 C 27.867188 -6.398438 28.265625 -7.320312 28.703125 -8.28125 C 29.140625 -9.25 29.535156 -10.171875 29.890625 -11.046875 C 31.347656 -14.203125 32.515625 -16.84375 33.390625 -18.96875 C 34.265625 -21.101562 34.703125 -22.695312 34.703125 -23.75 C 34.703125 -24.445312 34.554688 -25.046875 34.265625 -25.546875 C 33.972656 -26.046875 33.535156 -26.296875 32.953125 -26.296875 C 32.304688 -26.296875 31.3125 -25.84375 29.96875 -24.9375 C 28.625 -24.03125 27.425781 -22.992188 26.375 -21.828125 C 24.851562 -20.242188 23.046875 -18.082031 20.953125 -15.34375 C 19.015625 -12.769531 17.171875 -10.078125 15.421875 -7.265625 C 13.671875 -4.460938 12.269531 -2.039062 11.21875 0 C 10.988281 0.46875 10.316406 0.703125 9.203125 0.703125 Z M 9.203125 0.703125 "/></g></g></g><g fill="#874a22" fill-opacity="1"><g transform="translate(682.388201, 339.750032)"><g><path d="M 9.203125 0.703125 C 8.378906 0.703125 7.617188 0.566406 6.921875 0.296875 C 6.222656 0.0351562 5.875 -0.265625 5.875 -0.609375 C 5.875 -0.722656 5.898438 -0.8125 5.953125 -0.875 L 7.625 -3.765625 C 10.3125 -8.265625 12.515625 -12.207031 14.234375 -15.59375 C 15.960938 -18.988281 17.351562 -22.46875 18.40625 -26.03125 C 18.519531 -26.382812 18.578125 -26.789062 18.578125 -27.25 C 18.578125 -27.601562 18.488281 -27.851562 18.3125 -28 C 18.132812 -28.144531 17.84375 -28.21875 17.4375 -28.21875 C 16.675781 -28.21875 15.710938 -27.5625 14.546875 -26.25 C 13.378906 -24.9375 11.742188 -22.726562 9.640625 -19.625 C 7.828125 -17 5.753906 -14.082031 3.421875 -10.875 C 2.953125 -10.226562 2.628906 -9.90625 2.453125 -9.90625 C 2.273438 -9.90625 2.140625 -10.050781 2.046875 -10.34375 C 1.960938 -10.632812 1.921875 -10.957031 1.921875 -11.3125 C 1.921875 -11.832031 1.984375 -12.179688 2.109375 -12.359375 C 5.085938 -16.617188 6.925781 -19.335938 7.625 -20.515625 L 14.203125 -31.109375 C 14.367188 -31.398438 14.785156 -31.632812 15.453125 -31.8125 C 16.128906 -31.988281 16.765625 -32.078125 17.359375 -32.078125 C 18.285156 -32.078125 19.273438 -31.859375 20.328125 -31.421875 C 21.378906 -30.984375 22.253906 -30.382812 22.953125 -29.625 C 23.660156 -28.863281 24.015625 -28.046875 24.015625 -27.171875 C 24.015625 -26.171875 23.765625 -25.085938 23.265625 -23.921875 C 22.773438 -22.753906 22.0625 -21.296875 21.125 -19.546875 C 20.300781 -18.023438 19.742188 -16.941406 19.453125 -16.296875 C 22.085938 -19.691406 24.773438 -22.613281 27.515625 -25.0625 C 30.265625 -27.519531 32.804688 -28.75 35.140625 -28.75 C 36.660156 -28.75 37.738281 -28.207031 38.375 -27.125 C 39.019531 -26.039062 39.34375 -24.65625 39.34375 -22.96875 C 39.34375 -21.789062 39.226562 -20.601562 39 -19.40625 C 38.769531 -18.207031 38.476562 -17.203125 38.125 -16.390625 L 37.25 -14.28125 C 39.582031 -16.914062 41.316406 -18.832031 42.453125 -20.03125 C 43.597656 -21.226562 44.460938 -22.085938 45.046875 -22.609375 C 45.984375 -23.484375 47.109375 -24.328125 48.421875 -25.140625 C 49.734375 -25.960938 50.972656 -26.375 52.140625 -26.375 C 53.253906 -26.375 54.128906 -26.007812 54.765625 -25.28125 C 55.410156 -24.550781 55.734375 -23.457031 55.734375 -22 C 55.734375 -21.300781 55.585938 -19.984375 55.296875 -18.046875 C 55.242188 -17.640625 55.082031 -16.351562 54.8125 -14.1875 C 54.550781 -12.03125 54.421875 -10.132812 54.421875 -8.5 C 54.421875 -7.039062 54.550781 -5.898438 54.8125 -5.078125 C 55.082031 -4.265625 55.476562 -3.859375 56 -3.859375 C 56.757812 -3.859375 57.925781 -4.691406 59.5 -6.359375 C 61.082031 -8.023438 63.070312 -10.347656 65.46875 -13.328125 C 66.988281 -15.253906 67.921875 -16.21875 68.265625 -16.21875 C 68.441406 -16.21875 68.617188 -16.15625 68.796875 -16.03125 C 68.972656 -15.914062 69.0625 -15.742188 69.0625 -15.515625 C 69.0625 -15.109375 68.242188 -13.78125 66.609375 -11.53125 C 64.972656 -9.28125 63.570312 -7.484375 62.40625 -6.140625 C 60.769531 -4.265625 59.203125 -2.726562 57.703125 -1.53125 C 56.210938 -0.332031 54.828125 0.265625 53.546875 0.265625 C 51.972656 0.265625 50.878906 -0.503906 50.265625 -2.046875 C 49.648438 -3.597656 49.34375 -5.691406 49.34375 -8.328125 C 49.34375 -10.140625 49.429688 -11.921875 49.609375 -13.671875 C 49.722656 -15.890625 49.78125 -17.4375 49.78125 -18.3125 C 49.78125 -19.65625 49.675781 -20.601562 49.46875 -21.15625 C 49.269531 -21.71875 48.9375 -22 48.46875 -22 C 47.53125 -22 46.390625 -21.410156 45.046875 -20.234375 C 43.703125 -19.066406 41.976562 -17.171875 39.875 -14.546875 C 39 -13.441406 38.125 -12.226562 37.25 -10.90625 C 36.375 -9.59375 35.554688 -8.320312 34.796875 -7.09375 C 33.742188 -5.34375 33.097656 -4.289062 32.859375 -3.9375 C 32.160156 -3.125 31.445312 -2.507812 30.71875 -2.09375 C 29.988281 -1.6875 29.359375 -1.484375 28.828125 -1.484375 C 28.304688 -1.484375 27.882812 -1.660156 27.5625 -2.015625 C 27.238281 -2.367188 27.078125 -2.863281 27.078125 -3.5 C 27.078125 -3.96875 27.222656 -4.640625 27.515625 -5.515625 C 27.867188 -6.398438 28.265625 -7.320312 28.703125 -8.28125 C 29.140625 -9.25 29.535156 -10.171875 29.890625 -11.046875 C 31.347656 -14.203125 32.515625 -16.84375 33.390625 -18.96875 C 34.265625 -21.101562 34.703125 -22.695312 34.703125 -23.75 C 34.703125 -24.445312 34.554688 -25.046875 34.265625 -25.546875 C 33.972656 -26.046875 33.535156 -26.296875 32.953125 -26.296875 C 32.304688 -26.296875 31.3125 -25.84375 29.96875 -24.9375 C 28.625 -24.03125 27.425781 -22.992188 26.375 -21.828125 C 24.851562 -20.242188 23.046875 -18.082031 20.953125 -15.34375 C 19.015625 -12.769531 17.171875 -10.078125 15.421875 -7.265625 C 13.671875 -4.460938 12.269531 -2.039062 11.21875 0 C 10.988281 0.46875 10.316406 0.703125 9.203125 0.703125 Z M 9.203125 0.703125 "/></g></g></g><g fill="#874a22" fill-opacity="1"><g transform="translate(745.141715, 339.750032)"><g><path d="M 11.125 1.3125 C 8.613281 1.3125 6.523438 0.703125 4.859375 -0.515625 C 3.191406 -1.742188 2.359375 -3.878906 2.359375 -6.921875 C 2.359375 -9.785156 3.441406 -13.1875 5.609375 -17.125 C 7.773438 -21.070312 10.492188 -24.460938 13.765625 -27.296875 C 17.035156 -30.128906 20.273438 -31.546875 23.484375 -31.546875 C 25.117188 -31.546875 26.332031 -31.125 27.125 -30.28125 C 27.914062 -29.4375 28.3125 -28.34375 28.3125 -27 C 28.3125 -24.65625 27.1875 -22.285156 24.9375 -19.890625 C 22.6875 -17.492188 19.984375 -15.519531 16.828125 -13.96875 C 13.671875 -12.425781 10.953125 -11.65625 8.671875 -11.65625 C 8.035156 -10.195312 7.71875 -8.820312 7.71875 -7.53125 C 7.71875 -5.78125 8.007812 -4.378906 8.59375 -3.328125 C 9.175781 -2.273438 10.34375 -1.75 12.09375 -1.75 C 14.601562 -1.75 16.96875 -2.421875 19.1875 -3.765625 C 21.414062 -5.109375 23.429688 -6.773438 25.234375 -8.765625 C 27.046875 -10.753906 29.003906 -13.238281 31.109375 -16.21875 C 31.347656 -16.507812 31.582031 -16.65625 31.8125 -16.65625 C 31.988281 -16.65625 32.132812 -16.535156 32.25 -16.296875 C 32.363281 -16.066406 32.421875 -15.804688 32.421875 -15.515625 C 32.421875 -15.109375 32.273438 -14.625 31.984375 -14.0625 C 31.691406 -13.507812 31.164062 -12.738281 30.40625 -11.75 C 28.25 -8.769531 26.191406 -6.34375 24.234375 -4.46875 C 22.273438 -2.601562 20.226562 -1.171875 18.09375 -0.171875 C 15.96875 0.816406 13.644531 1.3125 11.125 1.3125 Z M 9.46875 -13.40625 C 11.394531 -13.519531 13.613281 -14.394531 16.125 -16.03125 C 18.632812 -17.664062 20.8125 -19.503906 22.65625 -21.546875 C 24.5 -23.597656 25.421875 -25.238281 25.421875 -26.46875 C 25.421875 -27.28125 25.066406 -27.6875 24.359375 -27.6875 C 23.140625 -27.6875 21.5625 -26.984375 19.625 -25.578125 C 17.695312 -24.179688 15.796875 -22.375 13.921875 -20.15625 C 12.054688 -17.9375 10.570312 -15.6875 9.46875 -13.40625 Z M 9.46875 -13.40625 "/></g></g></g><g fill="#874a22" fill-opacity="1"><g transform="translate(771.347448, 339.750032)"><g><path d="M 26.734375 0.875 C 24.390625 0.875 23.21875 -1.34375 23.21875 -5.78125 C 23.21875 -8.351562 23.71875 -11.914062 24.71875 -16.46875 C 23.601562 -14.488281 21.875 -12.15625 19.53125 -9.46875 C 17.195312 -6.78125 14.789062 -4.457031 12.3125 -2.5 C 9.832031 -0.539062 7.800781 0.4375 6.21875 0.4375 C 5.40625 0.4375 4.585938 0.25 3.765625 -0.125 C 2.953125 -0.507812 2.25 -1.125 1.65625 -1.96875 C 1.070312 -2.820312 0.78125 -3.921875 0.78125 -5.265625 C 0.78125 -8.703125 2.800781 -13.316406 6.84375 -19.109375 C 8.238281 -21.085938 9.898438 -23.113281 11.828125 -25.1875 C 13.753906 -27.269531 15.785156 -29.039062 17.921875 -30.5 C 20.054688 -31.957031 22.03125 -32.6875 23.84375 -32.6875 C 25.707031 -32.6875 27.253906 -31.8125 28.484375 -30.0625 C 30.234375 -35.195312 32.21875 -39.851562 34.4375 -44.03125 C 36.65625 -48.21875 39.082031 -51.359375 41.71875 -53.453125 C 42.070312 -53.753906 42.476562 -53.90625 42.9375 -53.90625 C 43.695312 -53.90625 44.53125 -53.671875 45.4375 -53.203125 C 46.34375 -52.734375 47.101562 -52.085938 47.71875 -51.265625 C 48.332031 -50.453125 48.640625 -49.546875 48.640625 -48.546875 C 48.640625 -47.148438 47.628906 -44.929688 45.609375 -41.890625 C 43.597656 -38.847656 41.175781 -35.632812 38.34375 -32.25 C 35.507812 -28.863281 32.953125 -26 30.671875 -23.65625 C 30.085938 -21.382812 29.546875 -18.800781 29.046875 -15.90625 C 28.554688 -13.007812 28.3125 -10.539062 28.3125 -8.5 C 28.3125 -7.09375 28.457031 -6.050781 28.75 -5.375 C 29.039062 -4.707031 29.566406 -4.375 30.328125 -4.375 C 31.203125 -4.375 32.25 -4.8125 33.46875 -5.6875 C 34.695312 -6.570312 36.046875 -7.859375 37.515625 -9.546875 C 38.035156 -10.128906 38.910156 -11.300781 40.140625 -13.0625 C 40.835938 -13.988281 41.492188 -14.863281 42.109375 -15.6875 C 42.722656 -16.507812 43.085938 -16.921875 43.203125 -16.921875 C 43.441406 -16.921875 43.644531 -16.800781 43.8125 -16.5625 C 43.988281 -16.332031 44.078125 -16.070312 44.078125 -15.78125 C 44.078125 -15.601562 44.03125 -15.425781 43.9375 -15.25 C 43.851562 -15.070312 43.726562 -14.867188 43.5625 -14.640625 C 42.738281 -13.296875 41.769531 -11.863281 40.65625 -10.34375 C 39.550781 -8.820312 38.503906 -7.476562 37.515625 -6.3125 C 36.171875 -4.726562 34.429688 -3.132812 32.296875 -1.53125 C 30.160156 0.0703125 28.304688 0.875 26.734375 0.875 Z M 31.71875 -27.078125 C 33.65625 -29.242188 35.773438 -31.898438 38.078125 -35.046875 C 40.390625 -38.203125 42.347656 -41.109375 43.953125 -43.765625 C 45.554688 -46.429688 46.359375 -48.113281 46.359375 -48.8125 C 46.359375 -49.164062 46.285156 -49.441406 46.140625 -49.640625 C 45.992188 -49.847656 45.773438 -49.953125 45.484375 -49.953125 C 45.015625 -49.953125 44.375 -49.601562 43.5625 -48.90625 C 42.445312 -47.851562 41.128906 -46.097656 39.609375 -43.640625 C 38.085938 -41.191406 36.613281 -38.460938 35.1875 -35.453125 C 33.757812 -32.441406 32.601562 -29.648438 31.71875 -27.078125 Z M 5.609375 -2.71875 C 7.128906 -2.71875 9.171875 -3.78125 11.734375 -5.90625 C 14.304688 -8.039062 16.878906 -10.523438 19.453125 -13.359375 C 22.023438 -16.191406 24.160156 -18.75 25.859375 -21.03125 C 26.492188 -23.601562 27.101562 -25.765625 27.6875 -27.515625 C 26.757812 -28.097656 25.859375 -28.390625 24.984375 -28.390625 C 21.472656 -28.390625 16.882812 -24.503906 11.21875 -16.734375 C 10.164062 -15.210938 8.804688 -13.003906 7.140625 -10.109375 C 5.472656 -7.222656 4.640625 -5.109375 4.640625 -3.765625 C 4.640625 -3.066406 4.960938 -2.71875 5.609375 -2.71875 Z M 5.609375 -2.71875 "/></g></g></g><g fill="#874a22" fill-opacity="1"><g transform="translate(808.859325, 339.750032)"><g/></g></g><g fill="#874a22" fill-opacity="1"><g transform="translate(826.38824, 339.750032)"><g><path d="M 21.828125 20.328125 C 21.535156 20.328125 21.285156 20.253906 21.078125 20.109375 C 20.867188 19.960938 20.765625 19.773438 20.765625 19.546875 C 20.765625 19.304688 21 18.722656 21.46875 17.796875 C 23.75 13.117188 25.632812 9.421875 27.125 6.703125 C 28.613281 3.984375 30.289062 1.222656 32.15625 -1.578125 C 34.03125 -4.378906 36.691406 -8.175781 40.140625 -12.96875 C 42.828125 -16.644531 46.097656 -20.863281 49.953125 -25.625 C 53.804688 -30.394531 56.40625 -33.363281 57.75 -34.53125 C 59.382812 -40.78125 60.203125 -46.066406 60.203125 -50.390625 C 60.203125 -54.890625 59.410156 -58.085938 57.828125 -59.984375 C 56.253906 -61.890625 54.039062 -62.84375 51.1875 -62.84375 C 48.664062 -62.84375 45.945312 -62.269531 43.03125 -61.125 C 40.113281 -59.988281 37.132812 -58.601562 34.09375 -56.96875 C 28.945312 -54.164062 23.863281 -50.789062 18.84375 -46.84375 C 13.820312 -42.894531 9.820312 -39.195312 6.84375 -35.75 C 6.25 -35.113281 5.953125 -34.707031 5.953125 -34.53125 C 5.953125 -34.414062 6.097656 -34.359375 6.390625 -34.359375 C 6.691406 -34.359375 7.175781 -34.398438 7.84375 -34.484375 C 8.519531 -34.578125 9.0625 -34.625 9.46875 -34.625 C 9.757812 -34.625 9.960938 -34.609375 10.078125 -34.578125 C 10.191406 -34.546875 10.25 -34.472656 10.25 -34.359375 L 9.46875 -34 C 7.769531 -33.070312 6.335938 -32.609375 5.171875 -32.609375 C 4.523438 -32.609375 3.910156 -32.898438 3.328125 -33.484375 C 2.742188 -34.066406 2.273438 -34.707031 1.921875 -35.40625 C 1.578125 -36.101562 1.40625 -36.570312 1.40625 -36.8125 C 1.40625 -38.332031 2.894531 -40.4375 5.875 -43.125 C 8.851562 -45.8125 12.722656 -48.628906 17.484375 -51.578125 C 22.242188 -54.523438 27.109375 -57.082031 32.078125 -59.25 C 40.546875 -62.988281 47.410156 -64.859375 52.671875 -64.859375 C 56.640625 -64.859375 59.820312 -63.703125 62.21875 -61.390625 C 64.613281 -59.085938 65.8125 -55.304688 65.8125 -50.046875 C 65.8125 -47.828125 65.578125 -45.253906 65.109375 -42.328125 C 70.492188 -47.703125 75.769531 -52.203125 80.9375 -55.828125 C 86.101562 -59.453125 90.382812 -61.265625 93.78125 -61.265625 C 95.707031 -61.265625 97.28125 -60.53125 98.5 -59.0625 C 99.726562 -57.601562 100.34375 -55.328125 100.34375 -52.234375 C 100.34375 -50.015625 99.929688 -47.382812 99.109375 -44.34375 C 98.296875 -41.300781 97.304688 -38.289062 96.140625 -35.3125 C 94.972656 -32.332031 93.515625 -28.742188 91.765625 -24.546875 C 90.535156 -21.679688 89.539062 -19.253906 88.78125 -17.265625 C 88.425781 -16.390625 88.25 -15.804688 88.25 -15.515625 C 88.25 -15.273438 88.335938 -15.15625 88.515625 -15.15625 C 88.753906 -15.15625 89.222656 -15.566406 89.921875 -16.390625 C 99.035156 -27.660156 107.59375 -34.992188 115.59375 -38.390625 C 117.050781 -38.972656 118.335938 -39.265625 119.453125 -39.265625 C 121.148438 -39.265625 122 -38.59375 122 -37.25 C 122 -36.78125 121.851562 -36.109375 121.5625 -35.234375 C 119.570312 -29.742188 117.582031 -23.429688 115.59375 -16.296875 C 113.613281 -9.171875 112.625 -2.71875 112.625 3.0625 C 112.625 7.039062 113.28125 10.179688 114.59375 12.484375 C 115.90625 14.796875 118.019531 15.953125 120.9375 15.953125 C 123.28125 15.953125 125.894531 15.070312 128.78125 13.3125 C 131.675781 11.5625 134.4375 9.195312 137.0625 6.21875 C 137.53125 5.695312 137.878906 5.332031 138.109375 5.125 C 138.347656 4.914062 138.523438 4.8125 138.640625 4.8125 C 138.765625 4.8125 138.867188 4.867188 138.953125 4.984375 C 139.035156 5.109375 139.078125 5.257812 139.078125 5.4375 C 139.078125 5.726562 138.972656 6.09375 138.765625 6.53125 C 138.566406 6.96875 138.265625 7.421875 137.859375 7.890625 C 134.765625 11.453125 131.550781 14.164062 128.21875 16.03125 C 124.882812 17.90625 121.757812 18.84375 118.84375 18.84375 C 114.75 18.84375 111.796875 17.175781 109.984375 13.84375 C 108.171875 10.519531 107.265625 6.109375 107.265625 0.609375 C 107.265625 -3.535156 107.6875 -7.988281 108.53125 -12.75 C 109.382812 -17.507812 110.410156 -21.890625 111.609375 -25.890625 C 112.804688 -29.898438 113.84375 -32.867188 114.71875 -34.796875 C 112.4375 -33.796875 109.660156 -31.863281 106.390625 -29 C 103.117188 -26.144531 99.945312 -23.019531 96.875 -19.625 C 93.8125 -16.238281 91.4375 -13.347656 89.75 -10.953125 C 88.8125 -9.609375 88.003906 -8.523438 87.328125 -7.703125 C 86.660156 -6.890625 86.148438 -6.378906 85.796875 -6.171875 C 85.453125 -5.972656 84.984375 -5.875 84.390625 -5.875 C 83.804688 -5.875 83.28125 -5.988281 82.8125 -6.21875 C 82.351562 -6.457031 82.125 -6.75 82.125 -7.09375 C 82.125 -7.445312 82.269531 -8.046875 82.5625 -8.890625 C 82.851562 -9.742188 83.171875 -10.664062 83.515625 -11.65625 C 84.804688 -15.164062 86.179688 -19.609375 87.640625 -24.984375 C 89.097656 -30.359375 90.320312 -35.523438 91.3125 -40.484375 C 92.3125 -45.453125 92.8125 -49.164062 92.8125 -51.625 C 92.8125 -53.550781 92.5625 -54.976562 92.0625 -55.90625 C 91.570312 -56.84375 90.828125 -57.3125 89.828125 -57.3125 C 87.492188 -57.3125 83.898438 -55.265625 79.046875 -51.171875 C 74.203125 -47.085938 69.117188 -42.210938 63.796875 -36.546875 C 61.867188 -28.890625 59.066406 -21.5 55.390625 -14.375 C 51.710938 -7.25 47.722656 -1.484375 43.421875 2.921875 C 39.128906 7.335938 35.144531 9.546875 31.46875 9.546875 C 31 9.546875 30.515625 9.488281 30.015625 9.375 C 29.515625 9.257812 29.09375 9.113281 28.75 8.9375 C 26.113281 13.664062 24.269531 16.910156 23.21875 18.671875 C 22.582031 19.773438 22.117188 20.328125 21.828125 20.328125 Z M 29.96875 7.1875 C 32.601562 7.070312 35.523438 5.363281 38.734375 2.0625 C 41.953125 -1.238281 45.050781 -5.503906 48.03125 -10.734375 C 51.007812 -15.960938 53.488281 -21.441406 55.46875 -27.171875 C 51.90625 -23.253906 47.769531 -18.109375 43.0625 -11.734375 C 38.363281 -5.367188 34 0.9375 29.96875 7.1875 Z M 29.96875 7.1875 "/></g></g></g><g fill="#874a22" fill-opacity="1"><g transform="translate(949.61652, 339.750032)"><g><path d="M 7.28125 2.28125 C 5.632812 2.28125 4.253906 1.78125 3.140625 0.78125 C 2.035156 -0.207031 1.484375 -1.84375 1.484375 -4.125 C 1.484375 -6.570312 2.171875 -9.535156 3.546875 -13.015625 C 4.921875 -16.492188 6.703125 -19.78125 8.890625 -22.875 C 11.085938 -25.96875 13.296875 -28.242188 15.515625 -29.703125 C 15.804688 -29.878906 16.050781 -30.007812 16.25 -30.09375 C 16.457031 -30.1875 16.679688 -30.234375 16.921875 -30.234375 C 17.328125 -30.234375 17.789062 -30.128906 18.3125 -29.921875 C 18.84375 -29.722656 19.3125 -29.476562 19.71875 -29.1875 C 20.832031 -30.46875 22.085938 -31.109375 23.484375 -31.109375 C 25.472656 -31.109375 26.757812 -30.347656 27.34375 -28.828125 C 27.925781 -27.316406 28.21875 -25.476562 28.21875 -23.3125 C 28.21875 -20.914062 27.617188 -18.210938 26.421875 -15.203125 C 25.222656 -12.191406 23.601562 -9.375 21.5625 -6.75 C 22.144531 -6.28125 22.785156 -6.046875 23.484375 -6.046875 C 25.003906 -6.046875 26.597656 -6.804688 28.265625 -8.328125 C 29.929688 -9.847656 31.609375 -11.804688 33.296875 -14.203125 L 34.96875 -16.5625 C 35.144531 -16.800781 35.289062 -16.921875 35.40625 -16.921875 C 35.632812 -16.921875 35.851562 -16.757812 36.0625 -16.4375 C 36.269531 -16.113281 36.375 -15.804688 36.375 -15.515625 C 36.375 -15.273438 36.316406 -15.070312 36.203125 -14.90625 L 34.1875 -12 C 32.3125 -9.375 30.484375 -7.34375 28.703125 -5.90625 C 26.921875 -4.476562 25.125 -3.765625 23.3125 -3.765625 C 22.082031 -3.765625 20.972656 -4.113281 19.984375 -4.8125 C 18.054688 -2.65625 15.992188 -0.9375 13.796875 0.34375 C 11.609375 1.632812 9.4375 2.28125 7.28125 2.28125 Z M 19.890625 -9.46875 C 20.828125 -10.8125 21.71875 -12.5625 22.5625 -14.71875 C 23.414062 -16.882812 24.117188 -19.03125 24.671875 -21.15625 C 25.222656 -23.289062 25.5 -25.03125 25.5 -26.375 C 25.5 -27.132812 25.367188 -27.71875 25.109375 -28.125 C 24.847656 -28.539062 24.484375 -28.75 24.015625 -28.75 C 23.429688 -28.75 22.847656 -28.441406 22.265625 -27.828125 C 21.679688 -27.210938 21.179688 -26.320312 20.765625 -25.15625 C 20.242188 -23.75 19.835938 -22.15625 19.546875 -20.375 C 19.253906 -18.59375 19.109375 -16.851562 19.109375 -15.15625 C 19.109375 -12.9375 19.367188 -11.039062 19.890625 -9.46875 Z M 8.5 0.09375 C 11.1875 0.09375 14.367188 -2.242188 18.046875 -6.921875 C 17.347656 -8.085938 16.804688 -9.457031 16.421875 -11.03125 C 16.046875 -12.613281 15.859375 -14.3125 15.859375 -16.125 C 15.859375 -19.164062 16.296875 -21.941406 17.171875 -24.453125 C 15.710938 -22.992188 14.148438 -21.066406 12.484375 -18.671875 C 10.816406 -16.273438 9.382812 -13.660156 8.1875 -10.828125 C 6.988281 -7.992188 6.390625 -5.289062 6.390625 -2.71875 C 6.390625 -1.84375 6.566406 -1.15625 6.921875 -0.65625 C 7.273438 -0.15625 7.800781 0.09375 8.5 0.09375 Z M 8.5 0.09375 "/></g></g></g><g fill="#874a22" fill-opacity="1"><g transform="translate(979.328036, 339.750032)"><g><path d="M 9.203125 0.703125 C 8.378906 0.703125 7.617188 0.566406 6.921875 0.296875 C 6.222656 0.0351562 5.875 -0.265625 5.875 -0.609375 C 5.875 -0.722656 5.898438 -0.8125 5.953125 -0.875 L 7.625 -3.765625 C 10.3125 -8.265625 12.515625 -12.207031 14.234375 -15.59375 C 15.960938 -18.988281 17.351562 -22.46875 18.40625 -26.03125 C 18.519531 -26.382812 18.578125 -26.789062 18.578125 -27.25 C 18.578125 -27.601562 18.488281 -27.851562 18.3125 -28 C 18.132812 -28.144531 17.84375 -28.21875 17.4375 -28.21875 C 16.675781 -28.21875 15.710938 -27.5625 14.546875 -26.25 C 13.378906 -24.9375 11.742188 -22.726562 9.640625 -19.625 C 7.828125 -17 5.753906 -14.082031 3.421875 -10.875 C 2.953125 -10.226562 2.628906 -9.90625 2.453125 -9.90625 C 2.273438 -9.90625 2.140625 -10.050781 2.046875 -10.34375 C 1.960938 -10.632812 1.921875 -10.957031 1.921875 -11.3125 C 1.921875 -11.832031 1.984375 -12.179688 2.109375 -12.359375 C 5.085938 -16.617188 6.925781 -19.335938 7.625 -20.515625 L 14.203125 -31.109375 C 14.367188 -31.398438 14.785156 -31.632812 15.453125 -31.8125 C 16.128906 -31.988281 16.765625 -32.078125 17.359375 -32.078125 C 18.285156 -32.078125 19.273438 -31.859375 20.328125 -31.421875 C 21.378906 -30.984375 22.253906 -30.382812 22.953125 -29.625 C 23.660156 -28.863281 24.015625 -28.046875 24.015625 -27.171875 C 24.015625 -26.171875 23.765625 -25.085938 23.265625 -23.921875 C 22.773438 -22.753906 22.0625 -21.296875 21.125 -19.546875 C 20.300781 -18.023438 19.742188 -16.941406 19.453125 -16.296875 C 22.085938 -19.691406 24.773438 -22.613281 27.515625 -25.0625 C 30.265625 -27.519531 32.804688 -28.75 35.140625 -28.75 C 36.660156 -28.75 37.738281 -28.207031 38.375 -27.125 C 39.019531 -26.039062 39.34375 -24.65625 39.34375 -22.96875 C 39.34375 -21.789062 39.226562 -20.601562 39 -19.40625 C 38.769531 -18.207031 38.476562 -17.203125 38.125 -16.390625 L 37.25 -14.28125 C 39.582031 -16.914062 41.316406 -18.832031 42.453125 -20.03125 C 43.597656 -21.226562 44.460938 -22.085938 45.046875 -22.609375 C 45.984375 -23.484375 47.109375 -24.328125 48.421875 -25.140625 C 49.734375 -25.960938 50.972656 -26.375 52.140625 -26.375 C 53.253906 -26.375 54.128906 -26.007812 54.765625 -25.28125 C 55.410156 -24.550781 55.734375 -23.457031 55.734375 -22 C 55.734375 -21.300781 55.585938 -19.984375 55.296875 -18.046875 C 55.242188 -17.640625 55.082031 -16.351562 54.8125 -14.1875 C 54.550781 -12.03125 54.421875 -10.132812 54.421875 -8.5 C 54.421875 -7.039062 54.550781 -5.898438 54.8125 -5.078125 C 55.082031 -4.265625 55.476562 -3.859375 56 -3.859375 C 56.757812 -3.859375 57.925781 -4.691406 59.5 -6.359375 C 61.082031 -8.023438 63.070312 -10.347656 65.46875 -13.328125 C 66.988281 -15.253906 67.921875 -16.21875 68.265625 -16.21875 C 68.441406 -16.21875 68.617188 -16.15625 68.796875 -16.03125 C 68.972656 -15.914062 69.0625 -15.742188 69.0625 -15.515625 C 69.0625 -15.109375 68.242188 -13.78125 66.609375 -11.53125 C 64.972656 -9.28125 63.570312 -7.484375 62.40625 -6.140625 C 60.769531 -4.265625 59.203125 -2.726562 57.703125 -1.53125 C 56.210938 -0.332031 54.828125 0.265625 53.546875 0.265625 C 51.972656 0.265625 50.878906 -0.503906 50.265625 -2.046875 C 49.648438 -3.597656 49.34375 -5.691406 49.34375 -8.328125 C 49.34375 -10.140625 49.429688 -11.921875 49.609375 -13.671875 C 49.722656 -15.890625 49.78125 -17.4375 49.78125 -18.3125 C 49.78125 -19.65625 49.675781 -20.601562 49.46875 -21.15625 C 49.269531 -21.71875 48.9375 -22 48.46875 -22 C 47.53125 -22 46.390625 -21.410156 45.046875 -20.234375 C 43.703125 -19.066406 41.976562 -17.171875 39.875 -14.546875 C 39 -13.441406 38.125 -12.226562 37.25 -10.90625 C 36.375 -9.59375 35.554688 -8.320312 34.796875 -7.09375 C 33.742188 -5.34375 33.097656 -4.289062 32.859375 -3.9375 C 32.160156 -3.125 31.445312 -2.507812 30.71875 -2.09375 C 29.988281 -1.6875 29.359375 -1.484375 28.828125 -1.484375 C 28.304688 -1.484375 27.882812 -1.660156 27.5625 -2.015625 C 27.238281 -2.367188 27.078125 -2.863281 27.078125 -3.5 C 27.078125 -3.96875 27.222656 -4.640625 27.515625 -5.515625 C 27.867188 -6.398438 28.265625 -7.320312 28.703125 -8.28125 C 29.140625 -9.25 29.535156 -10.171875 29.890625 -11.046875 C 31.347656 -14.203125 32.515625 -16.84375 33.390625 -18.96875 C 34.265625 -21.101562 34.703125 -22.695312 34.703125 -23.75 C 34.703125 -24.445312 34.554688 -25.046875 34.265625 -25.546875 C 33.972656 -26.046875 33.535156 -26.296875 32.953125 -26.296875 C 32.304688 -26.296875 31.3125 -25.84375 29.96875 -24.9375 C 28.625 -24.03125 27.425781 -22.992188 26.375 -21.828125 C 24.851562 -20.242188 23.046875 -18.082031 20.953125 -15.34375 C 19.015625 -12.769531 17.171875 -10.078125 15.421875 -7.265625 C 13.671875 -4.460938 12.269531 -2.039062 11.21875 0 C 10.988281 0.46875 10.316406 0.703125 9.203125 0.703125 Z M 9.203125 0.703125 "/></g></g></g><g fill="#874a22" fill-opacity="1"><g transform="translate(1042.081573, 339.750032)"><g><path d="M 11.125 1.3125 C 8.613281 1.3125 6.523438 0.703125 4.859375 -0.515625 C 3.191406 -1.742188 2.359375 -3.878906 2.359375 -6.921875 C 2.359375 -9.785156 3.441406 -13.1875 5.609375 -17.125 C 7.773438 -21.070312 10.492188 -24.460938 13.765625 -27.296875 C 17.035156 -30.128906 20.273438 -31.546875 23.484375 -31.546875 C 25.117188 -31.546875 26.332031 -31.125 27.125 -30.28125 C 27.914062 -29.4375 28.3125 -28.34375 28.3125 -27 C 28.3125 -24.65625 27.1875 -22.285156 24.9375 -19.890625 C 22.6875 -17.492188 19.984375 -15.519531 16.828125 -13.96875 C 13.671875 -12.425781 10.953125 -11.65625 8.671875 -11.65625 C 8.035156 -10.195312 7.71875 -8.820312 7.71875 -7.53125 C 7.71875 -5.78125 8.007812 -4.378906 8.59375 -3.328125 C 9.175781 -2.273438 10.34375 -1.75 12.09375 -1.75 C 14.601562 -1.75 16.96875 -2.421875 19.1875 -3.765625 C 21.414062 -5.109375 23.429688 -6.773438 25.234375 -8.765625 C 27.046875 -10.753906 29.003906 -13.238281 31.109375 -16.21875 C 31.347656 -16.507812 31.582031 -16.65625 31.8125 -16.65625 C 31.988281 -16.65625 32.132812 -16.535156 32.25 -16.296875 C 32.363281 -16.066406 32.421875 -15.804688 32.421875 -15.515625 C 32.421875 -15.109375 32.273438 -14.625 31.984375 -14.0625 C 31.691406 -13.507812 31.164062 -12.738281 30.40625 -11.75 C 28.25 -8.769531 26.191406 -6.34375 24.234375 -4.46875 C 22.273438 -2.601562 20.226562 -1.171875 18.09375 -0.171875 C 15.96875 0.816406 13.644531 1.3125 11.125 1.3125 Z M 9.46875 -13.40625 C 11.394531 -13.519531 13.613281 -14.394531 16.125 -16.03125 C 18.632812 -17.664062 20.8125 -19.503906 22.65625 -21.546875 C 24.5 -23.597656 25.421875 -25.238281 25.421875 -26.46875 C 25.421875 -27.28125 25.066406 -27.6875 24.359375 -27.6875 C 23.140625 -27.6875 21.5625 -26.984375 19.625 -25.578125 C 17.695312 -24.179688 15.796875 -22.375 13.921875 -20.15625 C 12.054688 -17.9375 10.570312 -15.6875 9.46875 -13.40625 Z M 9.46875 -13.40625 "/></g></g></g><g fill="#874a22" fill-opacity="1"><g transform="translate(1068.287306, 339.750032)"><g><path d="M 9.203125 0.703125 C 8.378906 0.703125 7.617188 0.566406 6.921875 0.296875 C 6.222656 0.0351562 5.875 -0.265625 5.875 -0.609375 C 5.875 -0.785156 6.019531 -1.109375 6.3125 -1.578125 C 6.601562 -2.046875 7.070312 -2.804688 7.71875 -3.859375 C 10.8125 -9.117188 13.101562 -13.28125 14.59375 -16.34375 C 16.082031 -19.414062 17.320312 -22.554688 18.3125 -25.765625 C 18.550781 -26.460938 18.671875 -26.957031 18.671875 -27.25 C 18.671875 -27.894531 18.257812 -28.21875 17.4375 -28.21875 C 16.675781 -28.21875 15.710938 -27.5625 14.546875 -26.25 C 13.378906 -24.9375 11.742188 -22.726562 9.640625 -19.625 L 3.421875 -10.6875 C 2.953125 -10.050781 2.628906 -9.734375 2.453125 -9.734375 C 2.273438 -9.734375 2.140625 -9.878906 2.046875 -10.171875 C 1.960938 -10.460938 1.921875 -10.78125 1.921875 -11.125 C 1.921875 -11.65625 1.984375 -12.007812 2.109375 -12.1875 C 4.796875 -16.09375 6.632812 -18.867188 7.625 -20.515625 L 14.203125 -31.109375 C 14.367188 -31.398438 14.785156 -31.632812 15.453125 -31.8125 C 16.128906 -31.988281 16.765625 -32.078125 17.359375 -32.078125 C 18.285156 -32.078125 19.273438 -31.859375 20.328125 -31.421875 C 21.378906 -30.984375 22.253906 -30.382812 22.953125 -29.625 C 23.660156 -28.863281 24.015625 -28.046875 24.015625 -27.171875 C 24.015625 -26.460938 23.691406 -25.347656 23.046875 -23.828125 C 22.398438 -22.316406 21.378906 -20.128906 19.984375 -17.265625 C 19.742188 -16.734375 19.390625 -16.015625 18.921875 -15.109375 C 18.460938 -14.210938 18.144531 -13.5 17.96875 -12.96875 C 22.582031 -18.113281 25.5625 -21.328125 26.90625 -22.609375 C 27.84375 -23.484375 28.96875 -24.328125 30.28125 -25.140625 C 31.59375 -25.960938 32.832031 -26.375 34 -26.375 C 35.113281 -26.375 35.988281 -26.007812 36.625 -25.28125 C 37.269531 -24.550781 37.59375 -23.457031 37.59375 -22 C 37.59375 -21.300781 37.445312 -19.984375 37.15625 -18.046875 C 37.101562 -17.640625 36.941406 -16.351562 36.671875 -14.1875 C 36.410156 -12.03125 36.28125 -10.132812 36.28125 -8.5 C 36.28125 -7.039062 36.410156 -5.898438 36.671875 -5.078125 C 36.941406 -4.265625 37.335938 -3.859375 37.859375 -3.859375 C 38.617188 -3.859375 39.785156 -4.691406 41.359375 -6.359375 C 42.941406 -8.023438 44.929688 -10.347656 47.328125 -13.328125 C 48.847656 -15.253906 49.78125 -16.21875 50.125 -16.21875 C 50.300781 -16.21875 50.476562 -16.15625 50.65625 -16.03125 C 50.832031 -15.914062 50.921875 -15.742188 50.921875 -15.515625 C 50.921875 -15.109375 50.101562 -13.78125 48.46875 -11.53125 C 46.832031 -9.28125 45.429688 -7.484375 44.265625 -6.140625 C 42.617188 -4.265625 41.050781 -2.726562 39.5625 -1.53125 C 38.070312 -0.332031 36.6875 0.265625 35.40625 0.265625 C 33.832031 0.265625 32.738281 -0.503906 32.125 -2.046875 C 31.507812 -3.597656 31.203125 -5.691406 31.203125 -8.328125 C 31.203125 -10.140625 31.289062 -11.921875 31.46875 -13.671875 C 31.582031 -15.890625 31.640625 -17.4375 31.640625 -18.3125 C 31.640625 -19.65625 31.535156 -20.601562 31.328125 -21.15625 C 31.128906 -21.71875 30.796875 -22 30.328125 -22 C 28.691406 -22 26.160156 -19.910156 22.734375 -15.734375 C 19.316406 -11.554688 16.035156 -7.128906 12.890625 -2.453125 L 11.3125 -0.09375 C 11.132812 0.257812 10.867188 0.476562 10.515625 0.5625 C 10.160156 0.65625 9.722656 0.703125 9.203125 0.703125 Z M 9.203125 0.703125 "/></g></g></g></svg>