<svg xmlns="http://www.w3.org/2000/svg" xmlns:xlink="http://www.w3.org/1999/xlink" width="1920" zoomAndPan="magnify" viewBox="0 0 1440 809.999993" height="1080" preserveAspectRatio="xMidYMid meet" version="1.0"><defs><g/></defs><rect x="-144" width="1728" fill="#ffffff" y="-80.999999" height="971.999992" fill-opacity="1"/><rect x="-144" width="1728" fill="#ffffff" y="-80.999999" height="971.999992" fill-opacity="1"/><g fill="#874a22" fill-opacity="1"><g transform="translate(129.815265, 457.425319)"><g><path d="M 334.078125 -183.671875 C 333.722656 -182.753906 333.367188 -181.84375 333.015625 -180.9375 C 329.460938 -171.695312 325.632812 -162.613281 321.53125 -153.6875 C 300.3125 -109.582031 277.523438 -66.929688 253.171875 -25.734375 C 245.253906 -12.429688 237.160156 0.632812 228.890625 13.46875 C 220.617188 26.3125 212.296875 39.101562 203.921875 51.84375 C 201.941406 54.832031 199.9375 57.820312 197.90625 60.8125 C 197.800781 61.070312 197.703125 61.25 197.609375 61.34375 C 197.148438 62.257812 196.613281 63.019531 196 63.625 C 195.394531 64.238281 194.582031 64.546875 193.5625 64.546875 C 193.113281 64.546875 192.632812 64.429688 192.125 64.203125 C 191.613281 63.972656 191.207031 63.679688 190.90625 63.328125 C 190.65625 63.023438 190.476562 62.53125 190.375 61.84375 C 190.269531 61.15625 190.320312 60.609375 190.53125 60.203125 C 191.894531 57.265625 193.414062 54.476562 195.09375 51.84375 C 198.84375 45.695312 202.625 39.554688 206.4375 33.421875 C 213.59375 22.003906 220.617188 10.5625 227.515625 -0.90625 C 242.835938 -26.488281 257.476562 -52.597656 271.4375 -79.234375 C 285.394531 -105.878906 299.019531 -132.800781 312.3125 -160 C 317.644531 -170.5 322.035156 -181.738281 325.484375 -193.71875 C 326.191406 -195.800781 326.734375 -197.957031 327.109375 -200.1875 C 327.492188 -202.425781 327.6875 -204.738281 327.6875 -207.125 C 327.332031 -212.25 325.148438 -214.476562 321.140625 -213.8125 C 317.585938 -213.101562 314.238281 -211.988281 311.09375 -210.46875 C 303.632812 -206.863281 296.273438 -202.878906 289.015625 -198.515625 C 250.046875 -174.867188 214.550781 -145.515625 182.53125 -110.453125 C 182.070312 -109.890625 181.566406 -109.328125 181.015625 -108.765625 C 169.953125 -96.742188 158.976562 -84.617188 148.09375 -72.390625 C 137.207031 -60.160156 126.640625 -47.578125 116.390625 -34.640625 C 114.253906 -31.941406 112.019531 -29.425781 109.6875 -27.09375 C 107.195312 -24.507812 104.226562 -23.492188 100.78125 -24.046875 C 99.3125 -24.253906 98.101562 -24.976562 97.15625 -26.21875 C 96.21875 -27.46875 95.851562 -28.925781 96.0625 -30.59375 C 96.769531 -35.164062 97.785156 -39.582031 99.109375 -43.84375 C 103.210938 -57.34375 107.578125 -70.664062 112.203125 -83.8125 C 112.859375 -85.832031 113.46875 -87.785156 114.03125 -89.671875 C 115.25 -94.585938 116.972656 -99.128906 119.203125 -103.296875 C 119.203125 -103.390625 119.148438 -103.4375 119.046875 -103.4375 C 118.492188 -103.75 117.9375 -103.992188 117.375 -104.171875 C 116.8125 -104.347656 116.253906 -104.15625 115.703125 -103.59375 C 113.671875 -101.363281 111.71875 -99.03125 109.84375 -96.59375 C 94.414062 -75.6875 79.140625 -54.601562 64.015625 -33.34375 C 48.890625 -12.082031 34.125 9.535156 19.71875 31.515625 C 18.5 33.640625 17.140625 35.375 15.640625 36.71875 C 14.140625 38.070312 12.148438 38.519531 9.671875 38.0625 C 8.554688 37.757812 7.691406 37.070312 7.078125 36 C 6.472656 34.9375 6.347656 33.898438 6.703125 32.890625 C 8.015625 29.890625 9.457031 27.046875 11.03125 24.359375 C 15.5 16.640625 19.914062 8.925781 24.28125 1.21875 C 33.0625 -14.050781 41.765625 -29.398438 50.390625 -44.828125 C 63.785156 -68.484375 75.738281 -93.375 86.25 -119.5 C 90.351562 -129.550781 93.703125 -140.109375 96.296875 -151.171875 C 97.710938 -157.054688 98.316406 -163.195312 98.109375 -169.59375 C 97.453125 -179.84375 94.050781 -187.175781 87.90625 -191.59375 C 81.769531 -196.007812 73.703125 -198.101562 63.703125 -197.875 C 53.710938 -197.644531 42.625 -195.597656 30.4375 -191.734375 C 18.257812 -187.878906 5.78125 -182.78125 -7 -176.4375 C -19.789062 -170.09375 -32.125 -163.085938 -44 -155.421875 C -55.875 -147.765625 -66.441406 -140.003906 -75.703125 -132.140625 C -84.960938 -124.273438 -92.179688 -116.890625 -97.359375 -109.984375 C -102.785156 -102.378906 -107.398438 -94.007812 -111.203125 -84.875 C -113.140625 -80.507812 -114.257812 -75.765625 -114.5625 -70.640625 C -114.65625 -69.617188 -115.160156 -68.851562 -116.078125 -68.34375 C -116.992188 -67.84375 -118.007812 -67.691406 -119.125 -67.890625 C -120.90625 -68.453125 -122.019531 -69.847656 -122.46875 -72.078125 C -122.78125 -75.023438 -122.554688 -77.71875 -121.796875 -80.15625 C -120.117188 -86.289062 -117.882812 -92.097656 -115.09375 -97.578125 C -109.96875 -107.171875 -102.175781 -116.96875 -91.71875 -126.96875 C -81.269531 -136.96875 -69.09375 -146.546875 -55.1875 -155.703125 C -41.28125 -164.859375 -26.765625 -173.023438 -11.640625 -180.203125 C 3.472656 -187.390625 18.257812 -192.972656 32.71875 -196.953125 C 47.1875 -200.941406 60.21875 -202.734375 71.8125 -202.328125 C 83.40625 -201.921875 92.550781 -198.734375 99.25 -192.765625 C 105.957031 -186.804688 109.207031 -177.40625 109 -164.5625 C 108.644531 -156.289062 107.351562 -148.425781 105.125 -140.96875 C 101.875 -130.007812 98.128906 -119.414062 93.890625 -109.1875 C 89.648438 -98.96875 85.144531 -88.957031 80.375 -79.15625 C 78.90625 -76.113281 78.585938 -74.628906 79.421875 -74.703125 C 80.265625 -74.785156 81.523438 -75.941406 83.203125 -78.171875 C 89.234375 -86.191406 95.269531 -94.109375 101.3125 -101.921875 C 105.425781 -107.148438 109.613281 -112.273438 113.875 -117.296875 C 114.425781 -118.003906 114.984375 -118.691406 115.546875 -119.359375 C 117.984375 -122.347656 120.925781 -124.347656 124.375 -125.359375 C 126.96875 -125.921875 129.148438 -125.335938 130.921875 -123.609375 C 132.703125 -121.890625 133.3125 -119.304688 132.75 -115.859375 C 132.644531 -115.492188 132.546875 -115.132812 132.453125 -114.78125 C 131.535156 -110.320312 130.46875 -105.984375 129.25 -101.765625 C 126 -91.460938 122.648438 -81.238281 119.203125 -71.09375 C 117.523438 -65.863281 115.847656 -60.5625 114.171875 -55.1875 C 113.816406 -54.425781 113.3125 -53.03125 112.65625 -51 C 112 -49.21875 111.363281 -47.460938 110.75 -45.734375 C 110.144531 -44.015625 109.664062 -42.695312 109.3125 -41.78125 C 109.757812 -42.144531 113.894531 -46.789062 121.71875 -55.71875 C 132.320312 -67.894531 144.878906 -82.148438 159.390625 -98.484375 C 173.898438 -114.828125 185.289062 -127.316406 193.5625 -135.953125 C 208.84375 -151.328125 224.941406 -165.316406 241.859375 -177.921875 C 258.785156 -190.535156 276.332031 -201.941406 294.5 -212.140625 C 298.96875 -214.472656 303.5625 -216.578125 308.28125 -218.453125 C 309.289062 -218.816406 310.28125 -219.222656 311.25 -219.671875 C 315.71875 -221.453125 320.460938 -222.113281 325.484375 -221.65625 C 335.117188 -220.738281 339.535156 -214.648438 338.734375 -203.390625 C 338.171875 -196.390625 336.617188 -189.816406 334.078125 -183.671875 Z M 118.671875 -103.90625 C 118.921875 -103.695312 119.097656 -103.539062 119.203125 -103.4375 C 119.203125 -103.4375 119.203125 -103.390625 119.203125 -103.296875 C 119.304688 -103.296875 119.359375 -103.34375 119.359375 -103.4375 C 119.148438 -103.539062 118.921875 -103.695312 118.671875 -103.90625 Z M 118.671875 -103.90625 "/></g></g></g><g fill="#874a22" fill-opacity="1"><g transform="translate(416.691398, 457.425319)"><g><path d="M 12.109375 -18.046875 L 11.875 -18.046875 C 4.519531 -18.140625 -0.320312 -19.769531 -2.65625 -22.9375 C -5 -26.113281 -4.898438 -30.34375 -2.359375 -35.625 C -0.222656 -39.632812 2.460938 -43.132812 5.703125 -46.125 C 6.828125 -47.144531 7.972656 -47.957031 9.140625 -48.5625 C 10.304688 -49.175781 11.625 -49.484375 13.09375 -49.484375 C 13.957031 -49.628906 14.945312 -49.472656 16.0625 -49.015625 C 16.414062 -48.921875 16.769531 -48.796875 17.125 -48.640625 C 17.988281 -48.796875 18.828125 -49.078125 19.640625 -49.484375 C 19.835938 -49.628906 20.113281 -49.753906 20.46875 -49.859375 C 22.144531 -50.515625 23.921875 -50.789062 25.796875 -50.6875 C 26.566406 -50.6875 27.351562 -50.6875 28.15625 -50.6875 C 31.15625 -50.238281 33.414062 -48.984375 34.9375 -46.921875 C 36.457031 -44.867188 36.988281 -42.367188 36.53125 -39.421875 C 36.28125 -37.648438 35.722656 -35.976562 34.859375 -34.40625 C 29.023438 -23.945312 21.59375 -18.492188 12.5625 -18.046875 Z M 24.125 -45.296875 C 20.113281 -45.441406 16.546875 -44.285156 13.421875 -41.828125 C 10.304688 -39.367188 7.988281 -36.539062 6.46875 -33.34375 C 4.945312 -30.144531 4.523438 -27.515625 5.203125 -25.453125 C 5.890625 -23.398438 8.007812 -22.832031 11.5625 -23.75 C 15.570312 -24.96875 19.113281 -27.25 22.1875 -30.59375 C 25.257812 -33.945312 27.132812 -37.132812 27.8125 -40.15625 C 28.5 -43.175781 27.269531 -44.890625 24.125 -45.296875 Z M 24.125 -45.296875 "/></g></g></g><g fill="#874a22" fill-opacity="1"><g transform="translate(457.108266, 457.425319)"><g><path d="M 61.8125 -35.46875 C 60.894531 -34.65625 59.929688 -33.921875 58.921875 -33.265625 C 55.671875 -31.234375 52.738281 -29.632812 50.125 -28.46875 C 47.507812 -27.300781 44.425781 -26.109375 40.875 -24.890625 C 35.59375 -23.316406 32.203125 -23.671875 30.703125 -25.953125 C 29.210938 -28.234375 28.972656 -31.40625 29.984375 -35.46875 C 31.410156 -41.257812 32.238281 -45.5 32.46875 -48.1875 C 32.695312 -50.875 31.804688 -51.796875 29.796875 -50.953125 C 27.796875 -50.117188 24.15625 -47.34375 18.875 -42.625 C 11.519531 -36.28125 5.226562 -29.023438 0 -20.859375 C -0.65625 -19.742188 -1.460938 -18.828125 -2.421875 -18.109375 C -3.390625 -17.398438 -4.585938 -17.046875 -6.015625 -17.046875 C -7.378906 -17.046875 -8.363281 -17.398438 -8.96875 -18.109375 C -9.582031 -18.828125 -9.613281 -19.796875 -9.0625 -21.015625 C -6.0625 -27.609375 -2.988281 -34.148438 0.15625 -40.640625 C 5.53125 -51.910156 10.832031 -63.128906 16.0625 -74.296875 C 19.96875 -82.660156 23.820312 -91.03125 27.625 -99.40625 C 29.957031 -104.332031 32.242188 -109.253906 34.484375 -114.171875 C 34.679688 -114.578125 34.910156 -115.007812 35.171875 -115.46875 C 35.367188 -116.03125 35.609375 -116.585938 35.890625 -117.140625 C 36.171875 -117.703125 36.488281 -118.3125 36.84375 -118.96875 C 37.144531 -119.53125 37.710938 -119.988281 38.546875 -120.34375 C 39.390625 -120.695312 40.226562 -120.925781 41.0625 -121.03125 C 41.90625 -121.132812 42.550781 -121.082031 43 -120.875 C 43.664062 -120.414062 44.035156 -119.929688 44.109375 -119.421875 C 44.179688 -118.921875 44.09375 -118.390625 43.84375 -117.828125 C 43.738281 -117.722656 43.6875 -117.546875 43.6875 -117.296875 C 42.675781 -114.304688 41.613281 -111.414062 40.5 -108.625 C 34.050781 -93.09375 27.019531 -77.789062 19.40625 -62.71875 C 18.851562 -61.707031 18.195312 -60.488281 17.4375 -59.0625 C 16.3125 -57.03125 15.265625 -55.035156 14.296875 -53.078125 C 13.335938 -51.128906 13.023438 -49.828125 13.359375 -49.171875 C 13.691406 -48.515625 15.203125 -49.019531 17.890625 -50.6875 C 18.703125 -51.25 19.4375 -51.8125 20.09375 -52.375 C 22.226562 -53.789062 24.332031 -55.132812 26.40625 -56.40625 C 28.238281 -57.625 30.269531 -58.285156 32.5 -58.390625 C 37.832031 -58.742188 40.828125 -56.332031 41.484375 -51.15625 C 41.734375 -49.070312 41.65625 -47.015625 41.25 -44.984375 C 40.84375 -42.953125 40.363281 -40.945312 39.8125 -38.96875 C 39.707031 -38.414062 39.601562 -37.859375 39.5 -37.296875 C 38.59375 -33.847656 38.835938 -31.867188 40.234375 -31.359375 C 41.628906 -30.847656 43.582031 -31.125 46.09375 -32.1875 C 48.601562 -33.257812 51.148438 -34.554688 53.734375 -36.078125 C 55.515625 -36.992188 57.078125 -37.78125 58.421875 -38.4375 C 59.765625 -39.09375 60.765625 -39.375 61.421875 -39.28125 C 62.640625 -39.070312 63.195312 -38.570312 63.09375 -37.78125 C 63 -37 62.570312 -36.226562 61.8125 -35.46875 Z M 61.8125 -35.46875 "/></g></g></g><g fill="#874a22" fill-opacity="1"><g transform="translate(515.183733, 457.425319)"><g><path d="M 55.21875 -38.78125 C 56.414062 -38.09375 56.503906 -36.429688 55.484375 -33.796875 C 54.015625 -31.867188 52.441406 -30.066406 50.765625 -28.390625 C 49.097656 -26.710938 47.273438 -25.21875 45.296875 -23.90625 C 45.140625 -23.90625 45.0625 -23.851562 45.0625 -23.75 C 43.738281 -22.832031 42.34375 -22.046875 40.875 -21.390625 C 28.75 -17.023438 22.554688 -19.585938 22.296875 -29.078125 C 17.378906 -24.816406 14.082031 -22.203125 12.40625 -21.234375 C 8.394531 -18.847656 4.054688 -17.785156 -0.609375 -18.046875 C -4.054688 -18.242188 -6.398438 -19.289062 -7.640625 -21.1875 C -8.890625 -23.09375 -8.78125 -25.671875 -7.3125 -28.921875 C -5.070312 -34.046875 -1.898438 -38.613281 2.203125 -42.625 C 7.023438 -47.09375 12.378906 -50.671875 18.265625 -53.359375 C 21.410156 -54.929688 24.707031 -55.539062 28.15625 -55.1875 C 31.613281 -54.976562 33.695312 -53.023438 34.40625 -49.328125 C 34.707031 -48.210938 34.425781 -47.222656 33.5625 -46.359375 C 32.445312 -45.335938 31.15625 -45.109375 29.6875 -45.671875 C 29.582031 -45.671875 29.441406 -45.695312 29.265625 -45.75 C 29.085938 -45.800781 28.945312 -45.875 28.84375 -45.96875 C 27.375 -48 25.890625 -48.847656 24.390625 -48.515625 C 22.898438 -48.191406 21.316406 -47.523438 19.640625 -46.515625 C 11.828125 -41.941406 6.015625 -35.570312 2.203125 -27.40625 C 2.003906 -27.050781 1.878906 -26.65625 1.828125 -26.21875 C 1.773438 -25.789062 1.898438 -25.445312 2.203125 -25.1875 C 3.117188 -24.882812 4.132812 -24.945312 5.25 -25.375 C 6.363281 -25.8125 7.476562 -26.445312 8.59375 -27.28125 C 9.71875 -28.125 10.660156 -28.820312 11.421875 -29.375 C 11.515625 -29.53125 11.5625 -29.609375 11.5625 -29.609375 C 15.269531 -32.703125 18.898438 -35.875 22.453125 -39.125 C 24.023438 -40.800781 25.976562 -41.738281 28.3125 -41.9375 C 31.664062 -41.9375 33.0625 -40.441406 32.5 -37.453125 C 32.195312 -36.335938 31.867188 -35.21875 31.515625 -34.09375 C 30.191406 -29.28125 30.140625 -26.453125 31.359375 -25.609375 C 32.578125 -24.773438 34.441406 -24.773438 36.953125 -25.609375 C 39.460938 -26.453125 41.972656 -28.050781 44.484375 -30.40625 C 47.003906 -32.769531 49.125 -34.925781 50.84375 -36.875 C 52.570312 -38.832031 54.03125 -39.46875 55.21875 -38.78125 Z M 55.21875 -38.78125 "/></g></g></g><g fill="#874a22" fill-opacity="1"><g transform="translate(565.647735, 457.425319)"><g><path d="M 79.546875 -38.140625 C 81.316406 -39.253906 82.707031 -39.53125 83.71875 -38.96875 C 84.738281 -38.414062 84.363281 -36.84375 82.59375 -34.25 C 80.351562 -31.257812 76.351562 -28.0625 70.59375 -24.65625 C 64.832031 -21.257812 59.742188 -19.773438 55.328125 -20.203125 C 50.921875 -20.640625 49.640625 -23.898438 51.484375 -29.984375 C 53.335938 -36.078125 54.34375 -39.488281 54.5 -40.21875 C 54.65625 -40.957031 54.515625 -41.378906 54.078125 -41.484375 C 53.648438 -41.585938 52.648438 -41.082031 51.078125 -39.96875 C 46.503906 -36.820312 42.035156 -33.519531 37.671875 -30.0625 C 35.796875 -28.644531 33.945312 -27.148438 32.125 -25.578125 C 31.007812 -24.554688 29.84375 -23.539062 28.625 -22.53125 C 28.625 -22.53125 28.570312 -22.476562 28.46875 -22.375 C 27.144531 -21.0625 25.519531 -20.175781 23.59375 -19.71875 C 22.726562 -19.457031 21.8125 -19.363281 20.84375 -19.4375 C 19.882812 -19.519531 19.078125 -19.890625 18.421875 -20.546875 C 17.660156 -21.304688 17.378906 -22.101562 17.578125 -22.9375 C 17.785156 -23.78125 18.421875 -25.039062 19.484375 -26.71875 C 20.546875 -28.394531 21.722656 -30.234375 23.015625 -32.234375 C 24.316406 -34.242188 25.039062 -35.472656 25.1875 -35.921875 C 25.34375 -36.378906 25.269531 -36.835938 24.96875 -37.296875 C 24.613281 -37.753906 24.21875 -37.894531 23.78125 -37.71875 C 23.351562 -37.539062 21.742188 -36.445312 18.953125 -34.4375 C 16.160156 -32.4375 12.351562 -29.632812 7.53125 -26.03125 C 5.300781 -24.351562 3.117188 -22.628906 0.984375 -20.859375 C 0.429688 -20.296875 -0.175781 -19.785156 -0.84375 -19.328125 C -2.414062 -18.015625 -4.140625 -17.304688 -6.015625 -17.203125 C -7.378906 -17.097656 -8.390625 -17.398438 -9.046875 -18.109375 C -9.710938 -18.828125 -9.816406 -19.796875 -9.359375 -21.015625 C -9.054688 -21.921875 -8.675781 -22.753906 -8.21875 -23.515625 C -7.96875 -23.867188 -7.789062 -24.226562 -7.6875 -24.59375 C -3.675781 -32.707031 0.28125 -40.847656 4.1875 -49.015625 C 4.289062 -49.222656 4.390625 -49.503906 4.484375 -49.859375 C 4.941406 -50.722656 5.398438 -51.5625 5.859375 -52.375 C 7.078125 -53.6875 8.523438 -54.113281 10.203125 -53.65625 C 12.128906 -53.101562 12.863281 -51.988281 12.40625 -50.3125 C 11.488281 -47.78125 10.601562 -45.269531 9.75 -42.78125 C 9.289062 -41.664062 8.832031 -40.546875 8.375 -39.421875 C 7.613281 -37.441406 7.367188 -36.171875 7.640625 -35.609375 C 7.921875 -35.054688 9.179688 -35.441406 11.421875 -36.765625 C 12.941406 -37.773438 14.4375 -38.789062 15.90625 -39.8125 C 17.6875 -41.03125 19.410156 -42.144531 21.078125 -43.15625 C 23.671875 -44.726562 26.3125 -46.070312 29 -47.1875 C 30.320312 -47.75 31.679688 -48.171875 33.078125 -48.453125 C 34.472656 -48.734375 35.78125 -48.414062 37 -47.5 C 37.90625 -46.738281 38.296875 -45.875 38.171875 -44.90625 C 38.046875 -43.945312 37.78125 -43.035156 37.375 -42.171875 C 36.664062 -40.492188 36.375 -39.425781 36.5 -38.96875 C 36.625 -38.507812 37.015625 -38.421875 37.671875 -38.703125 C 38.335938 -38.984375 39.503906 -39.628906 41.171875 -40.640625 C 42.847656 -41.660156 44.648438 -42.78125 46.578125 -44 C 49.015625 -45.570312 51.578125 -47.066406 54.265625 -48.484375 C 56.503906 -49.953125 58.890625 -50.84375 61.421875 -51.15625 C 64.929688 -51.40625 66.367188 -49.992188 65.734375 -46.921875 C 65.097656 -43.859375 63.863281 -40.207031 62.03125 -35.96875 C 60.207031 -31.726562 60.019531 -29.125 61.46875 -28.15625 C 62.914062 -27.195312 66.125 -28.503906 71.09375 -32.078125 C 76.0625 -35.660156 78.878906 -37.679688 79.546875 -38.140625 Z M 79.546875 -38.140625 "/></g></g></g><g fill="#874a22" fill-opacity="1"><g transform="translate(646.177059, 457.425319)"><g><path d="M 79.546875 -38.140625 C 81.316406 -39.253906 82.707031 -39.53125 83.71875 -38.96875 C 84.738281 -38.414062 84.363281 -36.84375 82.59375 -34.25 C 80.351562 -31.257812 76.351562 -28.0625 70.59375 -24.65625 C 64.832031 -21.257812 59.742188 -19.773438 55.328125 -20.203125 C 50.921875 -20.640625 49.640625 -23.898438 51.484375 -29.984375 C 53.335938 -36.078125 54.34375 -39.488281 54.5 -40.21875 C 54.65625 -40.957031 54.515625 -41.378906 54.078125 -41.484375 C 53.648438 -41.585938 52.648438 -41.082031 51.078125 -39.96875 C 46.503906 -36.820312 42.035156 -33.519531 37.671875 -30.0625 C 35.796875 -28.644531 33.945312 -27.148438 32.125 -25.578125 C 31.007812 -24.554688 29.84375 -23.539062 28.625 -22.53125 C 28.625 -22.53125 28.570312 -22.476562 28.46875 -22.375 C 27.144531 -21.0625 25.519531 -20.175781 23.59375 -19.71875 C 22.726562 -19.457031 21.8125 -19.363281 20.84375 -19.4375 C 19.882812 -19.519531 19.078125 -19.890625 18.421875 -20.546875 C 17.660156 -21.304688 17.378906 -22.101562 17.578125 -22.9375 C 17.785156 -23.78125 18.421875 -25.039062 19.484375 -26.71875 C 20.546875 -28.394531 21.722656 -30.234375 23.015625 -32.234375 C 24.316406 -34.242188 25.039062 -35.472656 25.1875 -35.921875 C 25.34375 -36.378906 25.269531 -36.835938 24.96875 -37.296875 C 24.613281 -37.753906 24.21875 -37.894531 23.78125 -37.71875 C 23.351562 -37.539062 21.742188 -36.445312 18.953125 -34.4375 C 16.160156 -32.4375 12.351562 -29.632812 7.53125 -26.03125 C 5.300781 -24.351562 3.117188 -22.628906 0.984375 -20.859375 C 0.429688 -20.296875 -0.175781 -19.785156 -0.84375 -19.328125 C -2.414062 -18.015625 -4.140625 -17.304688 -6.015625 -17.203125 C -7.378906 -17.097656 -8.390625 -17.398438 -9.046875 -18.109375 C -9.710938 -18.828125 -9.816406 -19.796875 -9.359375 -21.015625 C -9.054688 -21.921875 -8.675781 -22.753906 -8.21875 -23.515625 C -7.96875 -23.867188 -7.789062 -24.226562 -7.6875 -24.59375 C -3.675781 -32.707031 0.28125 -40.847656 4.1875 -49.015625 C 4.289062 -49.222656 4.390625 -49.503906 4.484375 -49.859375 C 4.941406 -50.722656 5.398438 -51.5625 5.859375 -52.375 C 7.078125 -53.6875 8.523438 -54.113281 10.203125 -53.65625 C 12.128906 -53.101562 12.863281 -51.988281 12.40625 -50.3125 C 11.488281 -47.78125 10.601562 -45.269531 9.75 -42.78125 C 9.289062 -41.664062 8.832031 -40.546875 8.375 -39.421875 C 7.613281 -37.441406 7.367188 -36.171875 7.640625 -35.609375 C 7.921875 -35.054688 9.179688 -35.441406 11.421875 -36.765625 C 12.941406 -37.773438 14.4375 -38.789062 15.90625 -39.8125 C 17.6875 -41.03125 19.410156 -42.144531 21.078125 -43.15625 C 23.671875 -44.726562 26.3125 -46.070312 29 -47.1875 C 30.320312 -47.75 31.679688 -48.171875 33.078125 -48.453125 C 34.472656 -48.734375 35.78125 -48.414062 37 -47.5 C 37.90625 -46.738281 38.296875 -45.875 38.171875 -44.90625 C 38.046875 -43.945312 37.78125 -43.035156 37.375 -42.171875 C 36.664062 -40.492188 36.375 -39.425781 36.5 -38.96875 C 36.625 -38.507812 37.015625 -38.421875 37.671875 -38.703125 C 38.335938 -38.984375 39.503906 -39.628906 41.171875 -40.640625 C 42.847656 -41.660156 44.648438 -42.78125 46.578125 -44 C 49.015625 -45.570312 51.578125 -47.066406 54.265625 -48.484375 C 56.503906 -49.953125 58.890625 -50.84375 61.421875 -51.15625 C 64.929688 -51.40625 66.367188 -49.992188 65.734375 -46.921875 C 65.097656 -43.859375 63.863281 -40.207031 62.03125 -35.96875 C 60.207031 -31.726562 60.019531 -29.125 61.46875 -28.15625 C 62.914062 -27.195312 66.125 -28.503906 71.09375 -32.078125 C 76.0625 -35.660156 78.878906 -37.679688 79.546875 -38.140625 Z M 79.546875 -38.140625 "/></g></g></g><g fill="#874a22" fill-opacity="1"><g transform="translate(726.706382, 457.425319)"><g><path d="M 43.375 -29.21875 C 40.4375 -26.332031 37.015625 -23.859375 33.109375 -21.796875 C 29.203125 -19.742188 25.925781 -18.398438 23.28125 -17.765625 C 20.644531 -17.140625 17.929688 -16.773438 15.140625 -16.671875 C 10.679688 -16.460938 6.570312 -17.070312 2.8125 -18.5 C -3.320312 -20.988281 -5.453125 -25.734375 -3.578125 -32.734375 C -1.796875 -38.765625 1.804688 -43.476562 7.234375 -46.875 C 12.660156 -50.28125 18.265625 -51.9375 24.046875 -51.84375 C 24.046875 -51.84375 24.097656 -51.84375 24.203125 -51.84375 C 25.671875 -51.9375 27.066406 -51.832031 28.390625 -51.53125 C 30.617188 -50.71875 32.035156 -49.394531 32.640625 -47.5625 C 33.253906 -45.738281 32.851562 -43.710938 31.4375 -41.484375 C 28.1875 -36.554688 23.769531 -33.816406 18.1875 -33.265625 C 14.488281 -32.910156 10.910156 -33.085938 7.453125 -33.796875 C 6.796875 -33.898438 6.210938 -33.722656 5.703125 -33.265625 C 5.203125 -32.804688 4.898438 -32.25 4.796875 -31.59375 C 3.773438 -27.226562 5.117188 -24.4375 8.828125 -23.21875 C 13.398438 -21.644531 18.144531 -21.644531 23.0625 -23.21875 C 28.75 -24.988281 34.15625 -28.332031 39.28125 -33.25 C 44.40625 -38.175781 47.359375 -40.472656 48.140625 -40.140625 C 48.929688 -39.816406 49.175781 -38.867188 48.875 -37.296875 C 48.15625 -34.804688 46.320312 -32.113281 43.375 -29.21875 Z M 10.96875 -41.484375 C 10.65625 -41.128906 10.4375 -40.734375 10.3125 -40.296875 C 10.1875 -39.867188 10.351562 -39.476562 10.8125 -39.125 C 12.582031 -38.113281 14.507812 -37.742188 16.59375 -38.015625 C 18.675781 -38.296875 20.4375 -39.082031 21.875 -40.375 C 23.320312 -41.675781 23.945312 -43.265625 23.75 -45.140625 C 23.59375 -45.796875 23.234375 -46.210938 22.671875 -46.390625 C 22.117188 -46.566406 21.566406 -46.609375 21.015625 -46.515625 C 17.253906 -45.847656 13.90625 -44.171875 10.96875 -41.484375 Z M 10.96875 -41.484375 "/></g></g></g><g fill="#874a22" fill-opacity="1"><g transform="translate(771.005086, 457.425319)"><g><path d="M 67.59375 -40.078125 C 68.65625 -39.796875 69.210938 -39.398438 69.265625 -38.890625 C 69.316406 -38.390625 69.34375 -38.140625 69.34375 -38.140625 C 68.125 -36.003906 66.726562 -34.050781 65.15625 -32.28125 C 61.550781 -28.269531 57.363281 -25.070312 52.59375 -22.6875 C 50.257812 -21.363281 47.625 -20.648438 44.6875 -20.546875 C 37.882812 -20.453125 34.757812 -23.753906 35.3125 -30.453125 C 35.570312 -31.867188 35.90625 -33.265625 36.3125 -34.640625 C 36.5625 -35.296875 36.738281 -35.953125 36.84375 -36.609375 C 37.5 -39.046875 37.6875 -40.40625 37.40625 -40.6875 C 37.132812 -40.96875 36.335938 -40.269531 35.015625 -38.59375 C 34.660156 -38.289062 34.332031 -37.960938 34.03125 -37.609375 C 32 -35.171875 29.914062 -32.785156 27.78125 -30.453125 C 23.875 -25.984375 19.410156 -22.226562 14.390625 -19.1875 C 11.390625 -17.40625 8.21875 -16.460938 4.875 -16.359375 C -0.601562 -16.109375 -3.675781 -18.625 -4.34375 -23.90625 C -4.59375 -26.03125 -4.488281 -28.132812 -4.03125 -30.21875 C -1.800781 -38.84375 2.660156 -45.410156 9.359375 -49.921875 C 16.054688 -54.441406 23.71875 -56.046875 32.34375 -54.734375 C 34.78125 -54.015625 36.554688 -54.671875 37.671875 -56.703125 C 38.128906 -57.460938 38.585938 -58.25 39.046875 -59.0625 C 41.378906 -63.070312 43.664062 -67.082031 45.90625 -71.09375 C 50.113281 -78.8125 54.347656 -86.578125 58.609375 -94.390625 C 62.054688 -100.523438 65.507812 -106.710938 68.96875 -112.953125 C 69.976562 -114.890625 71.09375 -116.742188 72.3125 -118.515625 C 72.875 -119.378906 73.570312 -119.898438 74.40625 -120.078125 C 75.238281 -120.253906 76.113281 -120.34375 77.03125 -120.34375 C 77.238281 -120.34375 77.46875 -120.34375 77.71875 -120.34375 C 78.726562 -120.34375 79.535156 -120.085938 80.140625 -119.578125 C 80.753906 -119.078125 80.882812 -118.394531 80.53125 -117.53125 C 79.875 -115.394531 79.085938 -113.363281 78.171875 -111.4375 C 73.503906 -102.101562 69.101562 -92.648438 64.96875 -83.078125 C 60.832031 -73.515625 56.757812 -63.890625 52.75 -54.203125 C 51.425781 -50.847656 50.082031 -47.5 48.71875 -44.15625 C 47.039062 -40.238281 45.644531 -36.226562 44.53125 -32.125 C 44.226562 -31.207031 44.078125 -30.304688 44.078125 -29.421875 C 44.078125 -28.535156 44.503906 -27.757812 45.359375 -27.09375 C 45.921875 -26.738281 46.503906 -26.675781 47.109375 -26.90625 C 47.722656 -27.132812 48.382812 -27.398438 49.09375 -27.703125 C 49.195312 -27.859375 49.347656 -27.988281 49.546875 -28.09375 C 54.367188 -30.882812 58.785156 -34.234375 62.796875 -38.140625 C 63.453125 -38.796875 64.148438 -39.351562 64.890625 -39.8125 C 65.628906 -40.269531 66.53125 -40.359375 67.59375 -40.078125 Z M 29.984375 -44.984375 C 30.546875 -45.898438 30.710938 -46.773438 30.484375 -47.609375 C 30.253906 -48.453125 29.679688 -49.078125 28.765625 -49.484375 C 26.890625 -50.492188 24.890625 -50.617188 22.765625 -49.859375 C 17.535156 -48.285156 13.15625 -45.289062 9.625 -40.875 C 6.101562 -36.457031 4.1875 -31.585938 3.875 -26.265625 C 3.976562 -26.003906 4.03125 -25.828125 4.03125 -25.734375 C 4.03125 -25.273438 4.03125 -24.816406 4.03125 -24.359375 C 4.488281 -21.921875 6 -21.445312 8.5625 -22.9375 C 11.125 -24.4375 13.988281 -26.863281 17.15625 -30.21875 C 20.332031 -33.570312 23.175781 -36.753906 25.6875 -39.765625 C 28.195312 -42.785156 29.628906 -44.523438 29.984375 -44.984375 Z M 29.984375 -44.984375 "/></g></g></g><g fill="#874a22" fill-opacity="1"><g transform="translate(834.636934, 457.425319)"><g/></g></g><g fill="#874a22" fill-opacity="1"><g transform="translate(892.17961, 457.425319)"><g><path d="M 334.078125 -183.671875 C 333.722656 -182.753906 333.367188 -181.84375 333.015625 -180.9375 C 329.460938 -171.695312 325.632812 -162.613281 321.53125 -153.6875 C 300.3125 -109.582031 277.523438 -66.929688 253.171875 -25.734375 C 245.253906 -12.429688 237.160156 0.632812 228.890625 13.46875 C 220.617188 26.3125 212.296875 39.101562 203.921875 51.84375 C 201.941406 54.832031 199.9375 57.820312 197.90625 60.8125 C 197.800781 61.070312 197.703125 61.25 197.609375 61.34375 C 197.148438 62.257812 196.613281 63.019531 196 63.625 C 195.394531 64.238281 194.582031 64.546875 193.5625 64.546875 C 193.113281 64.546875 192.632812 64.429688 192.125 64.203125 C 191.613281 63.972656 191.207031 63.679688 190.90625 63.328125 C 190.65625 63.023438 190.476562 62.53125 190.375 61.84375 C 190.269531 61.15625 190.320312 60.609375 190.53125 60.203125 C 191.894531 57.265625 193.414062 54.476562 195.09375 51.84375 C 198.84375 45.695312 202.625 39.554688 206.4375 33.421875 C 213.59375 22.003906 220.617188 10.5625 227.515625 -0.90625 C 242.835938 -26.488281 257.476562 -52.597656 271.4375 -79.234375 C 285.394531 -105.878906 299.019531 -132.800781 312.3125 -160 C 317.644531 -170.5 322.035156 -181.738281 325.484375 -193.71875 C 326.191406 -195.800781 326.734375 -197.957031 327.109375 -200.1875 C 327.492188 -202.425781 327.6875 -204.738281 327.6875 -207.125 C 327.332031 -212.25 325.148438 -214.476562 321.140625 -213.8125 C 317.585938 -213.101562 314.238281 -211.988281 311.09375 -210.46875 C 303.632812 -206.863281 296.273438 -202.878906 289.015625 -198.515625 C 250.046875 -174.867188 214.550781 -145.515625 182.53125 -110.453125 C 182.070312 -109.890625 181.566406 -109.328125 181.015625 -108.765625 C 169.953125 -96.742188 158.976562 -84.617188 148.09375 -72.390625 C 137.207031 -60.160156 126.640625 -47.578125 116.390625 -34.640625 C 114.253906 -31.941406 112.019531 -29.425781 109.6875 -27.09375 C 107.195312 -24.507812 104.226562 -23.492188 100.78125 -24.046875 C 99.3125 -24.253906 98.101562 -24.976562 97.15625 -26.21875 C 96.21875 -27.46875 95.851562 -28.925781 96.0625 -30.59375 C 96.769531 -35.164062 97.785156 -39.582031 99.109375 -43.84375 C 103.210938 -57.34375 107.578125 -70.664062 112.203125 -83.8125 C 112.859375 -85.832031 113.46875 -87.785156 114.03125 -89.671875 C 115.25 -94.585938 116.972656 -99.128906 119.203125 -103.296875 C 119.203125 -103.390625 119.148438 -103.4375 119.046875 -103.4375 C 118.492188 -103.75 117.9375 -103.992188 117.375 -104.171875 C 116.8125 -104.347656 116.253906 -104.15625 115.703125 -103.59375 C 113.671875 -101.363281 111.71875 -99.03125 109.84375 -96.59375 C 94.414062 -75.6875 79.140625 -54.601562 64.015625 -33.34375 C 48.890625 -12.082031 34.125 9.535156 19.71875 31.515625 C 18.5 33.640625 17.140625 35.375 15.640625 36.71875 C 14.140625 38.070312 12.148438 38.519531 9.671875 38.0625 C 8.554688 37.757812 7.691406 37.070312 7.078125 36 C 6.472656 34.9375 6.347656 33.898438 6.703125 32.890625 C 8.015625 29.890625 9.457031 27.046875 11.03125 24.359375 C 15.5 16.640625 19.914062 8.925781 24.28125 1.21875 C 33.0625 -14.050781 41.765625 -29.398438 50.390625 -44.828125 C 63.785156 -68.484375 75.738281 -93.375 86.25 -119.5 C 90.351562 -129.550781 93.703125 -140.109375 96.296875 -151.171875 C 97.710938 -157.054688 98.316406 -163.195312 98.109375 -169.59375 C 97.453125 -179.84375 94.050781 -187.175781 87.90625 -191.59375 C 81.769531 -196.007812 73.703125 -198.101562 63.703125 -197.875 C 53.710938 -197.644531 42.625 -195.597656 30.4375 -191.734375 C 18.257812 -187.878906 5.78125 -182.78125 -7 -176.4375 C -19.789062 -170.09375 -32.125 -163.085938 -44 -155.421875 C -55.875 -147.765625 -66.441406 -140.003906 -75.703125 -132.140625 C -84.960938 -124.273438 -92.179688 -116.890625 -97.359375 -109.984375 C -102.785156 -102.378906 -107.398438 -94.007812 -111.203125 -84.875 C -113.140625 -80.507812 -114.257812 -75.765625 -114.5625 -70.640625 C -114.65625 -69.617188 -115.160156 -68.851562 -116.078125 -68.34375 C -116.992188 -67.84375 -118.007812 -67.691406 -119.125 -67.890625 C -120.90625 -68.453125 -122.019531 -69.847656 -122.46875 -72.078125 C -122.78125 -75.023438 -122.554688 -77.71875 -121.796875 -80.15625 C -120.117188 -86.289062 -117.882812 -92.097656 -115.09375 -97.578125 C -109.96875 -107.171875 -102.175781 -116.96875 -91.71875 -126.96875 C -81.269531 -136.96875 -69.09375 -146.546875 -55.1875 -155.703125 C -41.28125 -164.859375 -26.765625 -173.023438 -11.640625 -180.203125 C 3.472656 -187.390625 18.257812 -192.972656 32.71875 -196.953125 C 47.1875 -200.941406 60.21875 -202.734375 71.8125 -202.328125 C 83.40625 -201.921875 92.550781 -198.734375 99.25 -192.765625 C 105.957031 -186.804688 109.207031 -177.40625 109 -164.5625 C 108.644531 -156.289062 107.351562 -148.425781 105.125 -140.96875 C 101.875 -130.007812 98.128906 -119.414062 93.890625 -109.1875 C 89.648438 -98.96875 85.144531 -88.957031 80.375 -79.15625 C 78.90625 -76.113281 78.585938 -74.628906 79.421875 -74.703125 C 80.265625 -74.785156 81.523438 -75.941406 83.203125 -78.171875 C 89.234375 -86.191406 95.269531 -94.109375 101.3125 -101.921875 C 105.425781 -107.148438 109.613281 -112.273438 113.875 -117.296875 C 114.425781 -118.003906 114.984375 -118.691406 115.546875 -119.359375 C 117.984375 -122.347656 120.925781 -124.347656 124.375 -125.359375 C 126.96875 -125.921875 129.148438 -125.335938 130.921875 -123.609375 C 132.703125 -121.890625 133.3125 -119.304688 132.75 -115.859375 C 132.644531 -115.492188 132.546875 -115.132812 132.453125 -114.78125 C 131.535156 -110.320312 130.46875 -105.984375 129.25 -101.765625 C 126 -91.460938 122.648438 -81.238281 119.203125 -71.09375 C 117.523438 -65.863281 115.847656 -60.5625 114.171875 -55.1875 C 113.816406 -54.425781 113.3125 -53.03125 112.65625 -51 C 112 -49.21875 111.363281 -47.460938 110.75 -45.734375 C 110.144531 -44.015625 109.664062 -42.695312 109.3125 -41.78125 C 109.757812 -42.144531 113.894531 -46.789062 121.71875 -55.71875 C 132.320312 -67.894531 144.878906 -82.148438 159.390625 -98.484375 C 173.898438 -114.828125 185.289062 -127.316406 193.5625 -135.953125 C 208.84375 -151.328125 224.941406 -165.316406 241.859375 -177.921875 C 258.785156 -190.535156 276.332031 -201.941406 294.5 -212.140625 C 298.96875 -214.472656 303.5625 -216.578125 308.28125 -218.453125 C 309.289062 -218.816406 310.28125 -219.222656 311.25 -219.671875 C 315.71875 -221.453125 320.460938 -222.113281 325.484375 -221.65625 C 335.117188 -220.738281 339.535156 -214.648438 338.734375 -203.390625 C 338.171875 -196.390625 336.617188 -189.816406 334.078125 -183.671875 Z M 118.671875 -103.90625 C 118.921875 -103.695312 119.097656 -103.539062 119.203125 -103.4375 C 119.203125 -103.4375 119.203125 -103.390625 119.203125 -103.296875 C 119.304688 -103.296875 119.359375 -103.34375 119.359375 -103.4375 C 119.148438 -103.539062 118.921875 -103.695312 118.671875 -103.90625 Z M 118.671875 -103.90625 "/></g></g></g><g fill="#874a22" fill-opacity="1"><g transform="translate(1179.05569, 457.425319)"><g><path d="M 12.109375 -18.046875 L 11.875 -18.046875 C 4.519531 -18.140625 -0.320312 -19.769531 -2.65625 -22.9375 C -5 -26.113281 -4.898438 -30.34375 -2.359375 -35.625 C -0.222656 -39.632812 2.460938 -43.132812 5.703125 -46.125 C 6.828125 -47.144531 7.972656 -47.957031 9.140625 -48.5625 C 10.304688 -49.175781 11.625 -49.484375 13.09375 -49.484375 C 13.957031 -49.628906 14.945312 -49.472656 16.0625 -49.015625 C 16.414062 -48.921875 16.769531 -48.796875 17.125 -48.640625 C 17.988281 -48.796875 18.828125 -49.078125 19.640625 -49.484375 C 19.835938 -49.628906 20.113281 -49.753906 20.46875 -49.859375 C 22.144531 -50.515625 23.921875 -50.789062 25.796875 -50.6875 C 26.566406 -50.6875 27.351562 -50.6875 28.15625 -50.6875 C 31.15625 -50.238281 33.414062 -48.984375 34.9375 -46.921875 C 36.457031 -44.867188 36.988281 -42.367188 36.53125 -39.421875 C 36.28125 -37.648438 35.722656 -35.976562 34.859375 -34.40625 C 29.023438 -23.945312 21.59375 -18.492188 12.5625 -18.046875 Z M 24.125 -45.296875 C 20.113281 -45.441406 16.546875 -44.285156 13.421875 -41.828125 C 10.304688 -39.367188 7.988281 -36.539062 6.46875 -33.34375 C 4.945312 -30.144531 4.523438 -27.515625 5.203125 -25.453125 C 5.890625 -23.398438 8.007812 -22.832031 11.5625 -23.75 C 15.570312 -24.96875 19.113281 -27.25 22.1875 -30.59375 C 25.257812 -33.945312 27.132812 -37.132812 27.8125 -40.15625 C 28.5 -43.175781 27.269531 -44.890625 24.125 -45.296875 Z M 24.125 -45.296875 "/></g></g></g><g fill="#874a22" fill-opacity="1"><g transform="translate(1219.472558, 457.425319)"><g><path d="M 79.546875 -38.140625 C 81.316406 -39.253906 82.707031 -39.53125 83.71875 -38.96875 C 84.738281 -38.414062 84.363281 -36.84375 82.59375 -34.25 C 80.351562 -31.257812 76.351562 -28.0625 70.59375 -24.65625 C 64.832031 -21.257812 59.742188 -19.773438 55.328125 -20.203125 C 50.921875 -20.640625 49.640625 -23.898438 51.484375 -29.984375 C 53.335938 -36.078125 54.34375 -39.488281 54.5 -40.21875 C 54.65625 -40.957031 54.515625 -41.378906 54.078125 -41.484375 C 53.648438 -41.585938 52.648438 -41.082031 51.078125 -39.96875 C 46.503906 -36.820312 42.035156 -33.519531 37.671875 -30.0625 C 35.796875 -28.644531 33.945312 -27.148438 32.125 -25.578125 C 31.007812 -24.554688 29.84375 -23.539062 28.625 -22.53125 C 28.625 -22.53125 28.570312 -22.476562 28.46875 -22.375 C 27.144531 -21.0625 25.519531 -20.175781 23.59375 -19.71875 C 22.726562 -19.457031 21.8125 -19.363281 20.84375 -19.4375 C 19.882812 -19.519531 19.078125 -19.890625 18.421875 -20.546875 C 17.660156 -21.304688 17.378906 -22.101562 17.578125 -22.9375 C 17.785156 -23.78125 18.421875 -25.039062 19.484375 -26.71875 C 20.546875 -28.394531 21.722656 -30.234375 23.015625 -32.234375 C 24.316406 -34.242188 25.039062 -35.472656 25.1875 -35.921875 C 25.34375 -36.378906 25.269531 -36.835938 24.96875 -37.296875 C 24.613281 -37.753906 24.21875 -37.894531 23.78125 -37.71875 C 23.351562 -37.539062 21.742188 -36.445312 18.953125 -34.4375 C 16.160156 -32.4375 12.351562 -29.632812 7.53125 -26.03125 C 5.300781 -24.351562 3.117188 -22.628906 0.984375 -20.859375 C 0.429688 -20.296875 -0.175781 -19.785156 -0.84375 -19.328125 C -2.414062 -18.015625 -4.140625 -17.304688 -6.015625 -17.203125 C -7.378906 -17.097656 -8.390625 -17.398438 -9.046875 -18.109375 C -9.710938 -18.828125 -9.816406 -19.796875 -9.359375 -21.015625 C -9.054688 -21.921875 -8.675781 -22.753906 -8.21875 -23.515625 C -7.96875 -23.867188 -7.789062 -24.226562 -7.6875 -24.59375 C -3.675781 -32.707031 0.28125 -40.847656 4.1875 -49.015625 C 4.289062 -49.222656 4.390625 -49.503906 4.484375 -49.859375 C 4.941406 -50.722656 5.398438 -51.5625 5.859375 -52.375 C 7.078125 -53.6875 8.523438 -54.113281 10.203125 -53.65625 C 12.128906 -53.101562 12.863281 -51.988281 12.40625 -50.3125 C 11.488281 -47.78125 10.601562 -45.269531 9.75 -42.78125 C 9.289062 -41.664062 8.832031 -40.546875 8.375 -39.421875 C 7.613281 -37.441406 7.367188 -36.171875 7.640625 -35.609375 C 7.921875 -35.054688 9.179688 -35.441406 11.421875 -36.765625 C 12.941406 -37.773438 14.4375 -38.789062 15.90625 -39.8125 C 17.6875 -41.03125 19.410156 -42.144531 21.078125 -43.15625 C 23.671875 -44.726562 26.3125 -46.070312 29 -47.1875 C 30.320312 -47.75 31.679688 -48.171875 33.078125 -48.453125 C 34.472656 -48.734375 35.78125 -48.414062 37 -47.5 C 37.90625 -46.738281 38.296875 -45.875 38.171875 -44.90625 C 38.046875 -43.945312 37.78125 -43.035156 37.375 -42.171875 C 36.664062 -40.492188 36.375 -39.425781 36.5 -38.96875 C 36.625 -38.507812 37.015625 -38.421875 37.671875 -38.703125 C 38.335938 -38.984375 39.503906 -39.628906 41.171875 -40.640625 C 42.847656 -41.660156 44.648438 -42.78125 46.578125 -44 C 49.015625 -45.570312 51.578125 -47.066406 54.265625 -48.484375 C 56.503906 -49.953125 58.890625 -50.84375 61.421875 -51.15625 C 64.929688 -51.40625 66.367188 -49.992188 65.734375 -46.921875 C 65.097656 -43.859375 63.863281 -40.207031 62.03125 -35.96875 C 60.207031 -31.726562 60.019531 -29.125 61.46875 -28.15625 C 62.914062 -27.195312 66.125 -28.503906 71.09375 -32.078125 C 76.0625 -35.660156 78.878906 -37.679688 79.546875 -38.140625 Z M 79.546875 -38.140625 "/></g></g></g><g fill="#874a22" fill-opacity="1"><g transform="translate(1300.001882, 457.425319)"><g><path d="M 43.375 -29.21875 C 40.4375 -26.332031 37.015625 -23.859375 33.109375 -21.796875 C 29.203125 -19.742188 25.925781 -18.398438 23.28125 -17.765625 C 20.644531 -17.140625 17.929688 -16.773438 15.140625 -16.671875 C 10.679688 -16.460938 6.570312 -17.070312 2.8125 -18.5 C -3.320312 -20.988281 -5.453125 -25.734375 -3.578125 -32.734375 C -1.796875 -38.765625 1.804688 -43.476562 7.234375 -46.875 C 12.660156 -50.28125 18.265625 -51.9375 24.046875 -51.84375 C 24.046875 -51.84375 24.097656 -51.84375 24.203125 -51.84375 C 25.671875 -51.9375 27.066406 -51.832031 28.390625 -51.53125 C 30.617188 -50.71875 32.035156 -49.394531 32.640625 -47.5625 C 33.253906 -45.738281 32.851562 -43.710938 31.4375 -41.484375 C 28.1875 -36.554688 23.769531 -33.816406 18.1875 -33.265625 C 14.488281 -32.910156 10.910156 -33.085938 7.453125 -33.796875 C 6.796875 -33.898438 6.210938 -33.722656 5.703125 -33.265625 C 5.203125 -32.804688 4.898438 -32.25 4.796875 -31.59375 C 3.773438 -27.226562 5.117188 -24.4375 8.828125 -23.21875 C 13.398438 -21.644531 18.144531 -21.644531 23.0625 -23.21875 C 28.75 -24.988281 34.15625 -28.332031 39.28125 -33.25 C 44.40625 -38.175781 47.359375 -40.472656 48.140625 -40.140625 C 48.929688 -39.816406 49.175781 -38.867188 48.875 -37.296875 C 48.15625 -34.804688 46.320312 -32.113281 43.375 -29.21875 Z M 10.96875 -41.484375 C 10.65625 -41.128906 10.4375 -40.734375 10.3125 -40.296875 C 10.1875 -39.867188 10.351562 -39.476562 10.8125 -39.125 C 12.582031 -38.113281 14.507812 -37.742188 16.59375 -38.015625 C 18.675781 -38.296875 20.4375 -39.082031 21.875 -40.375 C 23.320312 -41.675781 23.945312 -43.265625 23.75 -45.140625 C 23.59375 -45.796875 23.234375 -46.210938 22.671875 -46.390625 C 22.117188 -46.566406 21.566406 -46.609375 21.015625 -46.515625 C 17.253906 -45.847656 13.90625 -44.171875 10.96875 -41.484375 Z M 10.96875 -41.484375 "/></g></g></g><g fill="#874a22" fill-opacity="1"><g transform="translate(1344.300586, 457.425319)"><g><path d="M 60.28125 -37.984375 C 61.09375 -36.960938 60.078125 -35.109375 57.234375 -32.421875 C 54.398438 -29.734375 51.382812 -27.472656 48.1875 -25.640625 C 44.988281 -23.816406 41.28125 -21.992188 37.0625 -20.171875 C 34.28125 -18.953125 31.3125 -18.546875 28.15625 -18.953125 C 25.007812 -19.359375 23.4375 -21.257812 23.4375 -24.65625 C 23.4375 -28.0625 24.222656 -31.4375 25.796875 -34.78125 C 27.367188 -38.238281 27.710938 -40.015625 26.828125 -40.109375 C 25.941406 -40.210938 24.101562 -39.378906 21.3125 -37.609375 C 14.050781 -32.835938 7.300781 -27.378906 1.0625 -21.234375 C -0.613281 -19.203125 -2.742188 -18.085938 -5.328125 -17.890625 C -6.648438 -17.890625 -7.675781 -18.304688 -8.40625 -19.140625 C -9.144531 -19.984375 -9.234375 -20.882812 -8.671875 -21.84375 C -4.210938 -30.113281 0.300781 -38.285156 4.875 -46.359375 C 5.882812 -48.035156 7.40625 -49.078125 9.4375 -49.484375 C 10.300781 -49.628906 11.097656 -49.359375 11.828125 -48.671875 C 12.566406 -47.992188 12.9375 -47.222656 12.9375 -46.359375 C 12.832031 -45.546875 12.503906 -44.582031 11.953125 -43.46875 C 11.691406 -42.800781 11.445312 -42.160156 11.21875 -41.546875 C 11 -40.941406 10.925781 -40.4375 11 -40.03125 C 11.070312 -39.625 11.390625 -39.5 11.953125 -39.65625 C 12.710938 -40.0625 13.472656 -40.492188 14.234375 -40.953125 C 16.160156 -42.066406 18.015625 -43.132812 19.796875 -44.15625 C 21.367188 -45.0625 23.015625 -45.867188 24.734375 -46.578125 C 26.460938 -47.296875 28.265625 -47.78125 30.140625 -48.03125 C 33.179688 -48.226562 35.335938 -47.539062 36.609375 -45.96875 C 37.878906 -44.394531 38.03125 -42.210938 37.0625 -39.421875 C 36.050781 -36.890625 34.988281 -34.378906 33.875 -31.890625 C 32.5 -29.554688 32.269531 -27.78125 33.1875 -26.5625 C 34.101562 -25.34375 38.34375 -26.738281 45.90625 -30.75 L 51.609375 -34.09375 C 56.984375 -37.550781 59.875 -38.847656 60.28125 -37.984375 Z M 60.28125 -37.984375 "/></g></g></g><g fill="#bc7f3a" fill-opacity="1"><g transform="translate(480.218718, 586.49999)"><g><path d="M 20.953125 0 L 20.953125 -7.8125 C 20.953125 -8.78125 20.988281 -9.769531 21.0625 -10.78125 C 21.132812 -11.800781 21.210938 -12.65625 21.296875 -13.34375 C 21.378906 -14.039062 21.429688 -14.484375 21.453125 -14.671875 L 21.328125 -14.671875 L 17.328125 0 L 11.875 0 L 7.84375 -14.640625 L 7.71875 -14.640625 C 7.738281 -14.453125 7.796875 -14.015625 7.890625 -13.328125 C 7.984375 -12.648438 8.070312 -11.800781 8.15625 -10.78125 C 8.238281 -9.769531 8.28125 -8.78125 8.28125 -7.8125 L 8.28125 0 L 1.890625 0 L 1.890625 -21.671875 L 11.71875 -21.671875 L 15 -9.171875 L 15.125 -9.171875 L 18.359375 -21.671875 L 27.84375 -21.671875 L 27.84375 0 Z M 20.953125 0 "/></g></g></g><g fill="#bc7f3a" fill-opacity="1"><g transform="translate(509.954759, 586.49999)"><g><path d="M 10.109375 -17.015625 C 12.648438 -17.015625 14.71875 -16.585938 16.3125 -15.734375 C 17.914062 -14.878906 18.71875 -13.5 18.71875 -11.59375 L 18.71875 -5.109375 C 18.71875 -4.742188 18.800781 -4.445312 18.96875 -4.21875 C 19.132812 -3.988281 19.382812 -3.875 19.71875 -3.875 L 20.859375 -3.875 L 20.859375 -0.25 C 20.796875 -0.207031 20.628906 -0.140625 20.359375 -0.046875 C 20.097656 0.046875 19.722656 0.140625 19.234375 0.234375 C 18.753906 0.328125 18.203125 0.375 17.578125 0.375 C 16.359375 0.375 15.351562 0.191406 14.5625 -0.171875 C 13.78125 -0.535156 13.242188 -1.046875 12.953125 -1.703125 C 12.148438 -1.066406 11.253906 -0.5625 10.265625 -0.1875 C 9.273438 0.1875 8.117188 0.375 6.796875 0.375 C 2.890625 0.375 0.9375 -1.175781 0.9375 -4.28125 C 0.9375 -5.894531 1.375 -7.128906 2.25 -7.984375 C 3.125 -8.835938 4.378906 -9.421875 6.015625 -9.734375 C 7.648438 -10.046875 9.789062 -10.203125 12.4375 -10.203125 L 12.4375 -11.03125 C 12.4375 -11.675781 12.210938 -12.164062 11.765625 -12.5 C 11.316406 -12.84375 10.734375 -13.015625 10.015625 -13.015625 C 9.367188 -13.015625 8.804688 -12.894531 8.328125 -12.65625 C 7.859375 -12.425781 7.625 -12.0625 7.625 -11.5625 L 7.625 -11.4375 L 1.453125 -11.4375 C 1.429688 -11.539062 1.421875 -11.6875 1.421875 -11.875 C 1.421875 -13.445312 2.171875 -14.695312 3.671875 -15.625 C 5.171875 -16.550781 7.316406 -17.015625 10.109375 -17.015625 Z M 12.4375 -7.25 C 10.65625 -7.25 9.335938 -7.050781 8.484375 -6.65625 C 7.640625 -6.269531 7.21875 -5.753906 7.21875 -5.109375 C 7.21875 -4.054688 7.929688 -3.53125 9.359375 -3.53125 C 10.171875 -3.53125 10.882812 -3.75 11.5 -4.1875 C 12.125 -4.625 12.4375 -5.171875 12.4375 -5.828125 Z M 12.4375 -7.25 "/></g></g></g><g fill="#bc7f3a" fill-opacity="1"><g transform="translate(530.965286, 586.49999)"><g><path d="M 10.484375 -17.015625 C 13.210938 -17.015625 15.421875 -16.429688 17.109375 -15.265625 C 18.804688 -14.097656 19.65625 -12.316406 19.65625 -9.921875 L 13.578125 -9.921875 C 13.578125 -11.804688 12.546875 -12.75 10.484375 -12.75 C 8.429688 -12.75 7.40625 -11.566406 7.40625 -9.203125 L 7.40625 -7.40625 C 7.40625 -5.050781 8.472656 -3.875 10.609375 -3.875 C 12.753906 -3.875 13.828125 -4.835938 13.828125 -6.765625 L 19.65625 -6.765625 C 19.65625 -4.359375 18.804688 -2.566406 17.109375 -1.390625 C 15.421875 -0.210938 13.210938 0.375 10.484375 0.375 C 7.566406 0.375 5.28125 -0.359375 3.625 -1.828125 C 1.96875 -3.296875 1.140625 -5.457031 1.140625 -8.3125 C 1.140625 -11.164062 1.96875 -13.328125 3.625 -14.796875 C 5.28125 -16.273438 7.566406 -17.015625 10.484375 -17.015625 Z M 10.484375 -17.015625 "/></g></g></g><g fill="#bc7f3a" fill-opacity="1"><g transform="translate(551.975813, 586.49999)"><g><path d="M 8.15625 -14.90625 C 8.832031 -15.570312 9.617188 -16.085938 10.515625 -16.453125 C 11.421875 -16.828125 12.367188 -17.015625 13.359375 -17.015625 C 15.285156 -17.015625 16.734375 -16.476562 17.703125 -15.40625 C 18.671875 -14.332031 19.15625 -12.785156 19.15625 -10.765625 L 19.15625 0 L 12.890625 0 L 12.890625 -10.015625 C 12.890625 -10.734375 12.703125 -11.304688 12.328125 -11.734375 C 11.960938 -12.160156 11.441406 -12.375 10.765625 -12.375 C 9.992188 -12.375 9.363281 -12.125 8.875 -11.625 C 8.394531 -11.125 8.15625 -10.503906 8.15625 -9.765625 L 8.15625 0 L 1.890625 0 L 1.890625 -22.84375 L 8.15625 -22.84375 Z M 8.15625 -14.90625 "/></g></g></g><g fill="#bc7f3a" fill-opacity="1"><g transform="translate(572.986341, 586.49999)"><g><path d="M 2.109375 -18.578125 L 2.109375 -22.84375 L 8.375 -22.84375 L 8.375 -18.578125 Z M 2.109375 0 L 2.109375 -16.625 L 8.375 -16.625 L 8.375 0 Z M 2.109375 0 "/></g></g></g><g fill="#bc7f3a" fill-opacity="1"><g transform="translate(583.475858, 586.49999)"><g><path d="M 13.359375 -17.015625 C 15.285156 -17.015625 16.734375 -16.476562 17.703125 -15.40625 C 18.671875 -14.332031 19.15625 -12.785156 19.15625 -10.765625 L 19.15625 0 L 12.890625 0 L 12.890625 -10.015625 C 12.890625 -10.734375 12.703125 -11.304688 12.328125 -11.734375 C 11.960938 -12.160156 11.441406 -12.375 10.765625 -12.375 C 9.992188 -12.375 9.363281 -12.125 8.875 -11.625 C 8.394531 -11.125 8.15625 -10.503906 8.15625 -9.765625 L 8.15625 0 L 1.890625 0 L 1.890625 -16.625 L 7.03125 -16.625 L 7.4375 -14.109375 C 8.082031 -14.992188 8.9375 -15.695312 10 -16.21875 C 11.0625 -16.75 12.179688 -17.015625 13.359375 -17.015625 Z M 13.359375 -17.015625 "/></g></g></g><g fill="#bc7f3a" fill-opacity="1"><g transform="translate(604.486385, 586.49999)"><g><path d="M 10.484375 -17.015625 C 13.535156 -17.015625 15.863281 -16.296875 17.46875 -14.859375 C 19.070312 -13.429688 19.875 -11.25 19.875 -8.3125 L 19.875 -7.25 L 7.40625 -7.25 C 7.40625 -6.050781 7.671875 -5.144531 8.203125 -4.53125 C 8.742188 -3.925781 9.585938 -3.625 10.734375 -3.625 C 11.785156 -3.625 12.554688 -3.84375 13.046875 -4.28125 C 13.546875 -4.726562 13.796875 -5.316406 13.796875 -6.046875 L 19.875 -6.046875 C 19.875 -4.035156 19.109375 -2.460938 17.578125 -1.328125 C 16.046875 -0.191406 13.8125 0.375 10.875 0.375 C 7.78125 0.375 5.382812 -0.34375 3.6875 -1.78125 C 1.988281 -3.21875 1.140625 -5.394531 1.140625 -8.3125 C 1.140625 -11.164062 1.96875 -13.328125 3.625 -14.796875 C 5.28125 -16.273438 7.566406 -17.015625 10.484375 -17.015625 Z M 10.734375 -13.015625 C 8.765625 -13.015625 7.664062 -12.078125 7.4375 -10.203125 L 13.546875 -10.203125 C 13.546875 -11.066406 13.296875 -11.75 12.796875 -12.25 C 12.304688 -12.757812 11.617188 -13.015625 10.734375 -13.015625 Z M 10.734375 -13.015625 "/></g></g></g><g fill="#bc7f3a" fill-opacity="1"><g transform="translate(625.496912, 586.49999)"><g/></g></g><g fill="#bc7f3a" fill-opacity="1"><g transform="translate(635.986429, 586.49999)"><g><path d="M 2.328125 -21.671875 L 9.296875 -21.671875 L 9.296875 -5.546875 L 20.40625 -5.546875 L 20.40625 0 L 2.328125 0 Z M 2.328125 -21.671875 "/></g></g></g><g fill="#bc7f3a" fill-opacity="1"><g transform="translate(656.996957, 586.49999)"><g><path d="M 10.484375 -17.015625 C 13.535156 -17.015625 15.863281 -16.296875 17.46875 -14.859375 C 19.070312 -13.429688 19.875 -11.25 19.875 -8.3125 L 19.875 -7.25 L 7.40625 -7.25 C 7.40625 -6.050781 7.671875 -5.144531 8.203125 -4.53125 C 8.742188 -3.925781 9.585938 -3.625 10.734375 -3.625 C 11.785156 -3.625 12.554688 -3.84375 13.046875 -4.28125 C 13.546875 -4.726562 13.796875 -5.316406 13.796875 -6.046875 L 19.875 -6.046875 C 19.875 -4.035156 19.109375 -2.460938 17.578125 -1.328125 C 16.046875 -0.191406 13.8125 0.375 10.875 0.375 C 7.78125 0.375 5.382812 -0.34375 3.6875 -1.78125 C 1.988281 -3.21875 1.140625 -5.394531 1.140625 -8.3125 C 1.140625 -11.164062 1.96875 -13.328125 3.625 -14.796875 C 5.28125 -16.273438 7.566406 -17.015625 10.484375 -17.015625 Z M 10.734375 -13.015625 C 8.765625 -13.015625 7.664062 -12.078125 7.4375 -10.203125 L 13.546875 -10.203125 C 13.546875 -11.066406 13.296875 -11.75 12.796875 -12.25 C 12.304688 -12.757812 11.617188 -13.015625 10.734375 -13.015625 Z M 10.734375 -13.015625 "/></g></g></g><g fill="#bc7f3a" fill-opacity="1"><g transform="translate(678.007495, 586.49999)"><g><path d="M 10.109375 -17.015625 C 12.648438 -17.015625 14.71875 -16.585938 16.3125 -15.734375 C 17.914062 -14.878906 18.71875 -13.5 18.71875 -11.59375 L 18.71875 -5.109375 C 18.71875 -4.742188 18.800781 -4.445312 18.96875 -4.21875 C 19.132812 -3.988281 19.382812 -3.875 19.71875 -3.875 L 20.859375 -3.875 L 20.859375 -0.25 C 20.796875 -0.207031 20.628906 -0.140625 20.359375 -0.046875 C 20.097656 0.046875 19.722656 0.140625 19.234375 0.234375 C 18.753906 0.328125 18.203125 0.375 17.578125 0.375 C 16.359375 0.375 15.351562 0.191406 14.5625 -0.171875 C 13.78125 -0.535156 13.242188 -1.046875 12.953125 -1.703125 C 12.148438 -1.066406 11.253906 -0.5625 10.265625 -0.1875 C 9.273438 0.1875 8.117188 0.375 6.796875 0.375 C 2.890625 0.375 0.9375 -1.175781 0.9375 -4.28125 C 0.9375 -5.894531 1.375 -7.128906 2.25 -7.984375 C 3.125 -8.835938 4.378906 -9.421875 6.015625 -9.734375 C 7.648438 -10.046875 9.789062 -10.203125 12.4375 -10.203125 L 12.4375 -11.03125 C 12.4375 -11.675781 12.210938 -12.164062 11.765625 -12.5 C 11.316406 -12.84375 10.734375 -13.015625 10.015625 -13.015625 C 9.367188 -13.015625 8.804688 -12.894531 8.328125 -12.65625 C 7.859375 -12.425781 7.625 -12.0625 7.625 -11.5625 L 7.625 -11.4375 L 1.453125 -11.4375 C 1.429688 -11.539062 1.421875 -11.6875 1.421875 -11.875 C 1.421875 -13.445312 2.171875 -14.695312 3.671875 -15.625 C 5.171875 -16.550781 7.316406 -17.015625 10.109375 -17.015625 Z M 12.4375 -7.25 C 10.65625 -7.25 9.335938 -7.050781 8.484375 -6.65625 C 7.640625 -6.269531 7.21875 -5.753906 7.21875 -5.109375 C 7.21875 -4.054688 7.929688 -3.53125 9.359375 -3.53125 C 10.171875 -3.53125 10.882812 -3.75 11.5 -4.1875 C 12.125 -4.625 12.4375 -5.171875 12.4375 -5.828125 Z M 12.4375 -7.25 "/></g></g></g><g fill="#bc7f3a" fill-opacity="1"><g transform="translate(699.018023, 586.49999)"><g><path d="M 12 -17.046875 C 12.476562 -17.046875 12.90625 -16.984375 13.28125 -16.859375 C 13.664062 -16.742188 13.859375 -16.675781 13.859375 -16.65625 L 13.859375 -11.40625 L 11.84375 -11.40625 C 10.539062 -11.40625 9.597656 -11.066406 9.015625 -10.390625 C 8.441406 -9.722656 8.15625 -8.726562 8.15625 -7.40625 L 8.15625 0 L 1.890625 0 L 1.890625 -16.625 L 7.03125 -16.625 L 7.4375 -14.109375 C 7.8125 -15.078125 8.40625 -15.804688 9.21875 -16.296875 C 10.039062 -16.796875 10.96875 -17.046875 12 -17.046875 Z M 12 -17.046875 "/></g></g></g><g fill="#bc7f3a" fill-opacity="1"><g transform="translate(713.004029, 586.49999)"><g><path d="M 13.359375 -17.015625 C 15.285156 -17.015625 16.734375 -16.476562 17.703125 -15.40625 C 18.671875 -14.332031 19.15625 -12.785156 19.15625 -10.765625 L 19.15625 0 L 12.890625 0 L 12.890625 -10.015625 C 12.890625 -10.734375 12.703125 -11.304688 12.328125 -11.734375 C 11.960938 -12.160156 11.441406 -12.375 10.765625 -12.375 C 9.992188 -12.375 9.363281 -12.125 8.875 -11.625 C 8.394531 -11.125 8.15625 -10.503906 8.15625 -9.765625 L 8.15625 0 L 1.890625 0 L 1.890625 -16.625 L 7.03125 -16.625 L 7.4375 -14.109375 C 8.082031 -14.992188 8.9375 -15.695312 10 -16.21875 C 11.0625 -16.75 12.179688 -17.015625 13.359375 -17.015625 Z M 13.359375 -17.015625 "/></g></g></g><g fill="#bc7f3a" fill-opacity="1"><g transform="translate(734.014557, 586.49999)"><g><path d="M 2.109375 -18.578125 L 2.109375 -22.84375 L 8.375 -22.84375 L 8.375 -18.578125 Z M 2.109375 0 L 2.109375 -16.625 L 8.375 -16.625 L 8.375 0 Z M 2.109375 0 "/></g></g></g><g fill="#bc7f3a" fill-opacity="1"><g transform="translate(744.504074, 586.49999)"><g><path d="M 13.359375 -17.015625 C 15.285156 -17.015625 16.734375 -16.476562 17.703125 -15.40625 C 18.671875 -14.332031 19.15625 -12.785156 19.15625 -10.765625 L 19.15625 0 L 12.890625 0 L 12.890625 -10.015625 C 12.890625 -10.734375 12.703125 -11.304688 12.328125 -11.734375 C 11.960938 -12.160156 11.441406 -12.375 10.765625 -12.375 C 9.992188 -12.375 9.363281 -12.125 8.875 -11.625 C 8.394531 -11.125 8.15625 -10.503906 8.15625 -9.765625 L 8.15625 0 L 1.890625 0 L 1.890625 -16.625 L 7.03125 -16.625 L 7.4375 -14.109375 C 8.082031 -14.992188 8.9375 -15.695312 10 -16.21875 C 11.0625 -16.75 12.179688 -17.015625 13.359375 -17.015625 Z M 13.359375 -17.015625 "/></g></g></g><g fill="#bc7f3a" fill-opacity="1"><g transform="translate(765.514601, 586.49999)"><g><path d="M 20.59375 -19.75 C 20.59375 -18.46875 20.269531 -17.476562 19.625 -16.78125 C 18.988281 -16.09375 18.035156 -15.582031 16.765625 -15.25 C 17.367188 -14.78125 17.84375 -14.234375 18.1875 -13.609375 C 18.539062 -12.992188 18.71875 -12.34375 18.71875 -11.65625 C 18.71875 -9.894531 18.046875 -8.5625 16.703125 -7.65625 C 15.367188 -6.75 13.707031 -6.296875 11.71875 -6.296875 L 9.328125 -6.296875 C 8.003906 -6.296875 7.34375 -5.992188 7.34375 -5.390625 C 7.34375 -5.097656 7.488281 -4.859375 7.78125 -4.671875 C 8.070312 -4.492188 8.585938 -4.40625 9.328125 -4.40625 L 15 -4.40625 C 16.84375 -4.40625 18.234375 -3.921875 19.171875 -2.953125 C 20.117188 -1.992188 20.59375 -0.707031 20.59375 0.90625 C 20.59375 2.101562 20.28125 3.132812 19.65625 4 C 19.03125 4.863281 18.179688 5.515625 17.109375 5.953125 C 16.035156 6.390625 14.867188 6.609375 13.609375 6.609375 L 4.34375 6.609375 C 3.59375 6.609375 2.894531 6.429688 2.25 6.078125 C 1.613281 5.722656 1.101562 5.234375 0.71875 4.609375 C 0.34375 3.992188 0.15625 3.304688 0.15625 2.546875 C 0.15625 1.734375 0.40625 0.992188 0.90625 0.328125 C 1.414062 -0.328125 2.046875 -0.828125 2.796875 -1.171875 C 2.296875 -1.523438 1.898438 -1.953125 1.609375 -2.453125 C 1.316406 -2.960938 1.171875 -3.507812 1.171875 -4.09375 C 1.171875 -4.914062 1.472656 -5.65625 2.078125 -6.3125 C 2.691406 -6.976562 3.445312 -7.425781 4.34375 -7.65625 C 3.53125 -8.175781 2.878906 -8.773438 2.390625 -9.453125 C 1.910156 -10.140625 1.671875 -10.863281 1.671875 -11.625 C 1.671875 -13.550781 2.453125 -14.929688 4.015625 -15.765625 C 5.578125 -16.597656 7.648438 -17.015625 10.234375 -17.015625 C 11.367188 -17.015625 12.285156 -16.953125 12.984375 -16.828125 C 14.003906 -17.472656 14.664062 -18.0625 14.96875 -18.59375 C 15.28125 -19.132812 15.4375 -19.519531 15.4375 -19.75 Z M 10.171875 -13.734375 C 9.484375 -13.734375 8.914062 -13.550781 8.46875 -13.1875 C 8.03125 -12.832031 7.8125 -12.320312 7.8125 -11.65625 C 7.8125 -10.957031 8.015625 -10.4375 8.421875 -10.09375 C 8.835938 -9.75 9.421875 -9.578125 10.171875 -9.578125 C 10.929688 -9.578125 11.523438 -9.75 11.953125 -10.09375 C 12.378906 -10.4375 12.59375 -10.957031 12.59375 -11.65625 C 12.59375 -12.34375 12.378906 -12.859375 11.953125 -13.203125 C 11.523438 -13.554688 10.929688 -13.734375 10.171875 -13.734375 Z M 7.75 0 C 7.269531 0 6.875 0.128906 6.5625 0.390625 C 6.257812 0.648438 6.109375 1.023438 6.109375 1.515625 C 6.109375 1.992188 6.265625 2.378906 6.578125 2.671875 C 6.898438 2.972656 7.289062 3.125 7.75 3.125 L 12.65625 3.125 C 13.125 3.125 13.519531 2.976562 13.84375 2.6875 C 14.164062 2.40625 14.328125 2.023438 14.328125 1.546875 C 14.328125 1.054688 14.171875 0.675781 13.859375 0.40625 C 13.546875 0.132812 13.144531 0 12.65625 0 Z M 7.75 0 "/></g></g></g><g fill="#bc7f3a" fill-opacity="1"><g transform="translate(786.525128, 586.49999)"><g/></g></g><g fill="#bc7f3a" fill-opacity="1"><g transform="translate(797.014645, 586.49999)"><g><path d="M 2.328125 -21.671875 L 21.078125 -21.671875 L 21.078125 -16.46875 L 9.296875 -16.46875 L 9.296875 -13.484375 L 19.375 -13.484375 L 19.375 -8.5 L 9.296875 -8.5 L 9.296875 -5.203125 L 21.296875 -5.203125 L 21.296875 0 L 2.328125 0 Z M 2.328125 -21.671875 "/></g></g></g><g fill="#bc7f3a" fill-opacity="1"><g transform="translate(819.757671, 586.49999)"><g><path d="M 13.359375 -17.015625 C 15.285156 -17.015625 16.734375 -16.476562 17.703125 -15.40625 C 18.671875 -14.332031 19.15625 -12.785156 19.15625 -10.765625 L 19.15625 0 L 12.890625 0 L 12.890625 -10.015625 C 12.890625 -10.734375 12.703125 -11.304688 12.328125 -11.734375 C 11.960938 -12.160156 11.441406 -12.375 10.765625 -12.375 C 9.992188 -12.375 9.363281 -12.125 8.875 -11.625 C 8.394531 -11.125 8.15625 -10.503906 8.15625 -9.765625 L 8.15625 0 L 1.890625 0 L 1.890625 -16.625 L 7.03125 -16.625 L 7.4375 -14.109375 C 8.082031 -14.992188 8.9375 -15.695312 10 -16.21875 C 11.0625 -16.75 12.179688 -17.015625 13.359375 -17.015625 Z M 13.359375 -17.015625 "/></g></g></g><g fill="#bc7f3a" fill-opacity="1"><g transform="translate(840.768198, 586.49999)"><g><path d="M 20.59375 -19.75 C 20.59375 -18.46875 20.269531 -17.476562 19.625 -16.78125 C 18.988281 -16.09375 18.035156 -15.582031 16.765625 -15.25 C 17.367188 -14.78125 17.84375 -14.234375 18.1875 -13.609375 C 18.539062 -12.992188 18.71875 -12.34375 18.71875 -11.65625 C 18.71875 -9.894531 18.046875 -8.5625 16.703125 -7.65625 C 15.367188 -6.75 13.707031 -6.296875 11.71875 -6.296875 L 9.328125 -6.296875 C 8.003906 -6.296875 7.34375 -5.992188 7.34375 -5.390625 C 7.34375 -5.097656 7.488281 -4.859375 7.78125 -4.671875 C 8.070312 -4.492188 8.585938 -4.40625 9.328125 -4.40625 L 15 -4.40625 C 16.84375 -4.40625 18.234375 -3.921875 19.171875 -2.953125 C 20.117188 -1.992188 20.59375 -0.707031 20.59375 0.90625 C 20.59375 2.101562 20.28125 3.132812 19.65625 4 C 19.03125 4.863281 18.179688 5.515625 17.109375 5.953125 C 16.035156 6.390625 14.867188 6.609375 13.609375 6.609375 L 4.34375 6.609375 C 3.59375 6.609375 2.894531 6.429688 2.25 6.078125 C 1.613281 5.722656 1.101562 5.234375 0.71875 4.609375 C 0.34375 3.992188 0.15625 3.304688 0.15625 2.546875 C 0.15625 1.734375 0.40625 0.992188 0.90625 0.328125 C 1.414062 -0.328125 2.046875 -0.828125 2.796875 -1.171875 C 2.296875 -1.523438 1.898438 -1.953125 1.609375 -2.453125 C 1.316406 -2.960938 1.171875 -3.507812 1.171875 -4.09375 C 1.171875 -4.914062 1.472656 -5.65625 2.078125 -6.3125 C 2.691406 -6.976562 3.445312 -7.425781 4.34375 -7.65625 C 3.53125 -8.175781 2.878906 -8.773438 2.390625 -9.453125 C 1.910156 -10.140625 1.671875 -10.863281 1.671875 -11.625 C 1.671875 -13.550781 2.453125 -14.929688 4.015625 -15.765625 C 5.578125 -16.597656 7.648438 -17.015625 10.234375 -17.015625 C 11.367188 -17.015625 12.285156 -16.953125 12.984375 -16.828125 C 14.003906 -17.472656 14.664062 -18.0625 14.96875 -18.59375 C 15.28125 -19.132812 15.4375 -19.519531 15.4375 -19.75 Z M 10.171875 -13.734375 C 9.484375 -13.734375 8.914062 -13.550781 8.46875 -13.1875 C 8.03125 -12.832031 7.8125 -12.320312 7.8125 -11.65625 C 7.8125 -10.957031 8.015625 -10.4375 8.421875 -10.09375 C 8.835938 -9.75 9.421875 -9.578125 10.171875 -9.578125 C 10.929688 -9.578125 11.523438 -9.75 11.953125 -10.09375 C 12.378906 -10.4375 12.59375 -10.957031 12.59375 -11.65625 C 12.59375 -12.34375 12.378906 -12.859375 11.953125 -13.203125 C 11.523438 -13.554688 10.929688 -13.734375 10.171875 -13.734375 Z M 7.75 0 C 7.269531 0 6.875 0.128906 6.5625 0.390625 C 6.257812 0.648438 6.109375 1.023438 6.109375 1.515625 C 6.109375 1.992188 6.265625 2.378906 6.578125 2.671875 C 6.898438 2.972656 7.289062 3.125 7.75 3.125 L 12.65625 3.125 C 13.125 3.125 13.519531 2.976562 13.84375 2.6875 C 14.164062 2.40625 14.328125 2.023438 14.328125 1.546875 C 14.328125 1.054688 14.171875 0.675781 13.859375 0.40625 C 13.546875 0.132812 13.144531 0 12.65625 0 Z M 7.75 0 "/></g></g></g><g fill="#bc7f3a" fill-opacity="1"><g transform="translate(861.778726, 586.49999)"><g><path d="M 2.109375 -18.578125 L 2.109375 -22.84375 L 8.375 -22.84375 L 8.375 -18.578125 Z M 2.109375 0 L 2.109375 -16.625 L 8.375 -16.625 L 8.375 0 Z M 2.109375 0 "/></g></g></g><g fill="#bc7f3a" fill-opacity="1"><g transform="translate(872.268242, 586.49999)"><g><path d="M 13.359375 -17.015625 C 15.285156 -17.015625 16.734375 -16.476562 17.703125 -15.40625 C 18.671875 -14.332031 19.15625 -12.785156 19.15625 -10.765625 L 19.15625 0 L 12.890625 0 L 12.890625 -10.015625 C 12.890625 -10.734375 12.703125 -11.304688 12.328125 -11.734375 C 11.960938 -12.160156 11.441406 -12.375 10.765625 -12.375 C 9.992188 -12.375 9.363281 -12.125 8.875 -11.625 C 8.394531 -11.125 8.15625 -10.503906 8.15625 -9.765625 L 8.15625 0 L 1.890625 0 L 1.890625 -16.625 L 7.03125 -16.625 L 7.4375 -14.109375 C 8.082031 -14.992188 8.9375 -15.695312 10 -16.21875 C 11.0625 -16.75 12.179688 -17.015625 13.359375 -17.015625 Z M 13.359375 -17.015625 "/></g></g></g><g fill="#bc7f3a" fill-opacity="1"><g transform="translate(893.27877, 586.49999)"><g><path d="M 10.484375 -17.015625 C 13.535156 -17.015625 15.863281 -16.296875 17.46875 -14.859375 C 19.070312 -13.429688 19.875 -11.25 19.875 -8.3125 L 19.875 -7.25 L 7.40625 -7.25 C 7.40625 -6.050781 7.671875 -5.144531 8.203125 -4.53125 C 8.742188 -3.925781 9.585938 -3.625 10.734375 -3.625 C 11.785156 -3.625 12.554688 -3.84375 13.046875 -4.28125 C 13.546875 -4.726562 13.796875 -5.316406 13.796875 -6.046875 L 19.875 -6.046875 C 19.875 -4.035156 19.109375 -2.460938 17.578125 -1.328125 C 16.046875 -0.191406 13.8125 0.375 10.875 0.375 C 7.78125 0.375 5.382812 -0.34375 3.6875 -1.78125 C 1.988281 -3.21875 1.140625 -5.394531 1.140625 -8.3125 C 1.140625 -11.164062 1.96875 -13.328125 3.625 -14.796875 C 5.28125 -16.273438 7.566406 -17.015625 10.484375 -17.015625 Z M 10.734375 -13.015625 C 8.765625 -13.015625 7.664062 -12.078125 7.4375 -10.203125 L 13.546875 -10.203125 C 13.546875 -11.066406 13.296875 -11.75 12.796875 -12.25 C 12.304688 -12.757812 11.617188 -13.015625 10.734375 -13.015625 Z M 10.734375 -13.015625 "/></g></g></g><g fill="#bc7f3a" fill-opacity="1"><g transform="translate(914.289297, 586.49999)"><g><path d="M 10.484375 -17.015625 C 13.535156 -17.015625 15.863281 -16.296875 17.46875 -14.859375 C 19.070312 -13.429688 19.875 -11.25 19.875 -8.3125 L 19.875 -7.25 L 7.40625 -7.25 C 7.40625 -6.050781 7.671875 -5.144531 8.203125 -4.53125 C 8.742188 -3.925781 9.585938 -3.625 10.734375 -3.625 C 11.785156 -3.625 12.554688 -3.84375 13.046875 -4.28125 C 13.546875 -4.726562 13.796875 -5.316406 13.796875 -6.046875 L 19.875 -6.046875 C 19.875 -4.035156 19.109375 -2.460938 17.578125 -1.328125 C 16.046875 -0.191406 13.8125 0.375 10.875 0.375 C 7.78125 0.375 5.382812 -0.34375 3.6875 -1.78125 C 1.988281 -3.21875 1.140625 -5.394531 1.140625 -8.3125 C 1.140625 -11.164062 1.96875 -13.328125 3.625 -14.796875 C 5.28125 -16.273438 7.566406 -17.015625 10.484375 -17.015625 Z M 10.734375 -13.015625 C 8.765625 -13.015625 7.664062 -12.078125 7.4375 -10.203125 L 13.546875 -10.203125 C 13.546875 -11.066406 13.296875 -11.75 12.796875 -12.25 C 12.304688 -12.757812 11.617188 -13.015625 10.734375 -13.015625 Z M 10.734375 -13.015625 "/></g></g></g><g fill="#bc7f3a" fill-opacity="1"><g transform="translate(935.299825, 586.49999)"><g><path d="M 12 -17.046875 C 12.476562 -17.046875 12.90625 -16.984375 13.28125 -16.859375 C 13.664062 -16.742188 13.859375 -16.675781 13.859375 -16.65625 L 13.859375 -11.40625 L 11.84375 -11.40625 C 10.539062 -11.40625 9.597656 -11.066406 9.015625 -10.390625 C 8.441406 -9.722656 8.15625 -8.726562 8.15625 -7.40625 L 8.15625 0 L 1.890625 0 L 1.890625 -16.625 L 7.03125 -16.625 L 7.4375 -14.109375 C 7.8125 -15.078125 8.40625 -15.804688 9.21875 -16.296875 C 10.039062 -16.796875 10.96875 -17.046875 12 -17.046875 Z M 12 -17.046875 "/></g></g></g><g fill="#bc7f3a" fill-opacity="1"><g transform="translate(949.296819, 586.49999)"><g/></g></g></svg>