<svg xmlns="http://www.w3.org/2000/svg" xmlns:xlink="http://www.w3.org/1999/xlink" width="1920" zoomAndPan="magnify" viewBox="0 0 1440 809.999993" height="1080" preserveAspectRatio="xMidYMid meet" version="1.0"><defs><g/></defs><rect x="-144" width="1728" fill="#ffffff" y="-80.999999" height="971.999992" fill-opacity="1"/><rect x="-144" width="1728" fill="#ffffff" y="-80.999999" height="971.999992" fill-opacity="1"/><g fill="#874a22" fill-opacity="1"><g transform="translate(58.157537, 417.382484)"><g><path d="M 39.734375 37.015625 C 39.203125 37.015625 38.75 36.878906 38.375 36.609375 C 38 36.347656 37.8125 36.003906 37.8125 35.578125 C 37.8125 35.160156 38.238281 34.097656 39.09375 32.390625 C 43.238281 23.878906 46.664062 17.148438 49.375 12.203125 C 52.09375 7.253906 55.15625 2.226562 58.5625 -2.875 C 61.96875 -7.976562 66.8125 -14.894531 73.09375 -23.625 C 77.976562 -30.320312 83.929688 -38.003906 90.953125 -46.671875 C 97.972656 -55.347656 102.707031 -60.75 105.15625 -62.875 C 108.132812 -74.257812 109.625 -83.882812 109.625 -91.75 C 109.625 -99.945312 108.1875 -105.773438 105.3125 -109.234375 C 102.445312 -112.691406 98.40625 -114.421875 93.1875 -114.421875 C 88.613281 -114.421875 83.664062 -113.378906 78.34375 -111.296875 C 73.03125 -109.222656 67.609375 -106.695312 62.078125 -103.71875 C 52.710938 -98.613281 43.453125 -92.46875 34.296875 -85.28125 C 25.148438 -78.101562 17.867188 -71.378906 12.453125 -65.109375 C 11.378906 -63.941406 10.84375 -63.195312 10.84375 -62.875 C 10.84375 -62.65625 11.113281 -62.546875 11.65625 -62.546875 C 12.1875 -62.546875 13.0625 -62.625 14.28125 -62.78125 C 15.507812 -62.945312 16.492188 -63.03125 17.234375 -63.03125 C 17.765625 -63.03125 18.132812 -63.003906 18.34375 -62.953125 C 18.5625 -62.898438 18.671875 -62.765625 18.671875 -62.546875 L 17.234375 -61.921875 C 14.148438 -60.210938 11.546875 -59.359375 9.421875 -59.359375 C 8.242188 -59.359375 7.125 -59.890625 6.0625 -60.953125 C 5 -62.015625 4.144531 -63.1875 3.5 -64.46875 C 2.863281 -65.75 2.546875 -66.597656 2.546875 -67.015625 C 2.546875 -69.785156 5.257812 -73.617188 10.6875 -78.515625 C 16.113281 -83.410156 23.160156 -88.539062 31.828125 -93.90625 C 40.503906 -99.28125 49.363281 -103.9375 58.40625 -107.875 C 73.832031 -114.6875 86.332031 -118.09375 95.90625 -118.09375 C 103.132812 -118.09375 108.929688 -115.988281 113.296875 -111.78125 C 117.660156 -107.582031 119.84375 -100.695312 119.84375 -91.125 C 119.84375 -87.082031 119.414062 -82.398438 118.5625 -77.078125 C 128.351562 -86.859375 137.957031 -95.046875 147.375 -101.640625 C 156.789062 -108.242188 164.582031 -111.546875 170.75 -111.546875 C 174.257812 -111.546875 177.128906 -110.210938 179.359375 -107.546875 C 181.597656 -104.890625 182.71875 -100.742188 182.71875 -95.109375 C 182.71875 -91.066406 181.972656 -86.28125 180.484375 -80.75 C 178.992188 -75.21875 177.179688 -69.738281 175.046875 -64.3125 C 172.921875 -58.882812 170.265625 -52.34375 167.078125 -44.6875 C 164.847656 -39.46875 163.039062 -35.050781 161.65625 -31.4375 C 161.007812 -29.84375 160.6875 -28.78125 160.6875 -28.25 C 160.6875 -27.820312 160.847656 -27.609375 161.171875 -27.609375 C 161.597656 -27.609375 162.453125 -28.351562 163.734375 -29.84375 C 180.328125 -50.375 195.910156 -63.722656 210.484375 -69.890625 C 213.140625 -70.953125 215.476562 -71.484375 217.5 -71.484375 C 220.582031 -71.484375 222.125 -70.265625 222.125 -67.828125 C 222.125 -66.972656 221.859375 -65.75 221.328125 -64.15625 C 217.710938 -54.15625 214.097656 -42.664062 210.484375 -29.6875 C 206.867188 -16.707031 205.0625 -4.953125 205.0625 5.578125 C 205.0625 12.816406 206.253906 18.535156 208.640625 22.734375 C 211.035156 26.941406 214.894531 29.046875 220.21875 29.046875 C 224.46875 29.046875 229.226562 27.445312 234.5 24.25 C 239.769531 21.0625 244.796875 16.753906 249.578125 11.328125 C 250.429688 10.367188 251.070312 9.703125 251.5 9.328125 C 251.925781 8.960938 252.242188 8.78125 252.453125 8.78125 C 252.660156 8.78125 252.84375 8.882812 253 9.09375 C 253.164062 9.3125 253.25 9.578125 253.25 9.890625 C 253.25 10.421875 253.0625 11.082031 252.6875 11.875 C 252.320312 12.675781 251.765625 13.503906 251.015625 14.359375 C 245.378906 20.847656 239.523438 25.796875 233.453125 29.203125 C 227.390625 32.609375 221.703125 34.3125 216.390625 34.3125 C 208.941406 34.3125 203.566406 31.28125 200.265625 25.21875 C 196.972656 19.15625 195.328125 11.117188 195.328125 1.109375 C 195.328125 -6.441406 196.097656 -14.550781 197.640625 -23.21875 C 199.179688 -31.882812 201.039062 -39.863281 203.21875 -47.15625 C 205.40625 -54.445312 207.296875 -59.847656 208.890625 -63.359375 C 204.742188 -61.546875 199.691406 -58.03125 193.734375 -52.8125 C 187.773438 -47.601562 182 -41.910156 176.40625 -35.734375 C 170.820312 -29.566406 166.488281 -24.304688 163.40625 -19.953125 C 161.707031 -17.503906 160.242188 -15.535156 159.015625 -14.046875 C 157.796875 -12.554688 156.863281 -11.625 156.21875 -11.25 C 155.582031 -10.875 154.734375 -10.6875 153.671875 -10.6875 C 152.609375 -10.6875 151.648438 -10.898438 150.796875 -11.328125 C 149.953125 -11.753906 149.53125 -12.285156 149.53125 -12.921875 C 149.53125 -13.566406 149.796875 -14.660156 150.328125 -16.203125 C 150.859375 -17.742188 151.441406 -19.414062 152.078125 -21.21875 C 154.421875 -27.601562 156.921875 -35.6875 159.578125 -45.46875 C 162.234375 -55.257812 164.46875 -64.675781 166.28125 -73.71875 C 168.09375 -82.769531 169 -89.523438 169 -93.984375 C 169 -97.492188 168.546875 -100.097656 167.640625 -101.796875 C 166.734375 -103.503906 165.375 -104.359375 163.5625 -104.359375 C 159.3125 -104.359375 152.769531 -100.632812 143.9375 -93.1875 C 135.101562 -85.738281 125.847656 -76.859375 116.171875 -66.546875 C 112.660156 -52.609375 107.550781 -39.148438 100.84375 -26.171875 C 94.144531 -13.191406 86.882812 -2.6875 79.0625 5.34375 C 71.25 13.375 63.988281 17.390625 57.28125 17.390625 C 56.4375 17.390625 55.5625 17.28125 54.65625 17.0625 C 53.75 16.851562 52.976562 16.59375 52.34375 16.28125 C 47.550781 24.894531 44.195312 30.796875 42.28125 33.984375 C 41.113281 36.003906 40.265625 37.015625 39.734375 37.015625 Z M 54.578125 13.078125 C 59.359375 12.867188 64.675781 9.757812 70.53125 3.75 C 76.382812 -2.257812 82.023438 -10.023438 87.453125 -19.546875 C 92.878906 -29.066406 97.398438 -39.039062 101.015625 -49.46875 C 94.523438 -42.34375 87 -32.976562 78.4375 -21.375 C 69.875 -9.78125 61.921875 1.703125 54.578125 13.078125 Z M 54.578125 13.078125 "/></g></g></g><g fill="#874a22" fill-opacity="1"><g transform="translate(282.52012, 417.382484)"><g><path d="M 13.25 4.15625 C 10.269531 4.15625 7.769531 3.25 5.75 1.4375 C 3.726562 -0.375 2.71875 -3.351562 2.71875 -7.5 C 2.71875 -11.96875 3.96875 -17.363281 6.46875 -23.6875 C 8.96875 -30.019531 12.210938 -36.003906 16.203125 -41.640625 C 20.191406 -47.285156 24.207031 -51.4375 28.25 -54.09375 C 28.78125 -54.414062 29.226562 -54.65625 29.59375 -54.8125 C 29.96875 -54.96875 30.367188 -55.046875 30.796875 -55.046875 C 31.546875 -55.046875 32.394531 -54.859375 33.34375 -54.484375 C 34.300781 -54.117188 35.15625 -53.671875 35.90625 -53.140625 C 37.925781 -55.484375 40.210938 -56.65625 42.765625 -56.65625 C 46.378906 -56.65625 48.71875 -55.269531 49.78125 -52.5 C 50.851562 -49.738281 51.390625 -46.390625 51.390625 -42.453125 C 51.390625 -38.085938 50.296875 -33.164062 48.109375 -27.6875 C 45.929688 -22.207031 42.976562 -17.070312 39.25 -12.28125 C 40.320312 -11.4375 41.492188 -11.015625 42.765625 -11.015625 C 45.535156 -11.015625 48.4375 -12.394531 51.46875 -15.15625 C 54.5 -17.925781 57.554688 -21.492188 60.640625 -25.859375 L 63.671875 -30.15625 C 63.992188 -30.582031 64.257812 -30.796875 64.46875 -30.796875 C 64.894531 -30.796875 65.289062 -30.503906 65.65625 -29.921875 C 66.03125 -29.335938 66.21875 -28.78125 66.21875 -28.25 C 66.21875 -27.820312 66.113281 -27.445312 65.90625 -27.125 L 62.234375 -21.859375 C 58.828125 -17.078125 55.5 -13.378906 52.25 -10.765625 C 49.007812 -8.160156 45.742188 -6.859375 42.453125 -6.859375 C 40.210938 -6.859375 38.191406 -7.5 36.390625 -8.78125 C 32.878906 -4.84375 29.128906 -1.703125 25.140625 0.640625 C 21.148438 2.984375 17.1875 4.15625 13.25 4.15625 Z M 36.21875 -17.234375 C 37.925781 -19.679688 39.550781 -22.875 41.09375 -26.8125 C 42.632812 -30.75 43.910156 -34.65625 44.921875 -38.53125 C 45.929688 -42.414062 46.4375 -45.582031 46.4375 -48.03125 C 46.4375 -49.414062 46.195312 -50.476562 45.71875 -51.21875 C 45.238281 -51.96875 44.570312 -52.34375 43.71875 -52.34375 C 42.65625 -52.34375 41.59375 -51.78125 40.53125 -50.65625 C 39.46875 -49.539062 38.5625 -47.921875 37.8125 -45.796875 C 36.863281 -43.242188 36.117188 -40.34375 35.578125 -37.09375 C 35.046875 -33.851562 34.78125 -30.691406 34.78125 -27.609375 C 34.78125 -23.566406 35.257812 -20.109375 36.21875 -17.234375 Z M 15.484375 0.15625 C 20.367188 0.15625 26.164062 -4.097656 32.875 -12.609375 C 31.59375 -14.734375 30.609375 -17.234375 29.921875 -20.109375 C 29.234375 -22.984375 28.890625 -26.066406 28.890625 -29.359375 C 28.890625 -34.890625 29.6875 -39.941406 31.28125 -44.515625 C 28.613281 -41.859375 25.765625 -38.347656 22.734375 -33.984375 C 19.703125 -29.628906 17.097656 -24.867188 14.921875 -19.703125 C 12.742188 -14.546875 11.65625 -9.628906 11.65625 -4.953125 C 11.65625 -3.347656 11.972656 -2.09375 12.609375 -1.1875 C 13.242188 -0.289062 14.203125 0.15625 15.484375 0.15625 Z M 15.484375 0.15625 "/></g></g></g><g fill="#874a22" fill-opacity="1"><g transform="translate(336.616086, 417.382484)"><g><path d="M 5.90625 2.71875 C 4.625 2.71875 3.53125 2.367188 2.625 1.671875 C 1.726562 0.984375 1.039062 0.160156 0.5625 -0.796875 C 0.0820312 -1.753906 -0.15625 -2.601562 -0.15625 -3.34375 C -0.15625 -6.320312 1.539062 -11.585938 4.9375 -19.140625 C 8.34375 -26.703125 12.785156 -35.296875 18.265625 -44.921875 C 23.742188 -54.546875 29.460938 -63.773438 35.421875 -72.609375 C 43.929688 -85.265625 51.457031 -95.023438 58 -101.890625 C 64.550781 -108.753906 69.632812 -112.1875 73.25 -112.1875 C 74.519531 -112.1875 76.40625 -111.597656 78.90625 -110.421875 C 81.40625 -109.253906 83.664062 -107.816406 85.6875 -106.109375 C 87.707031 -104.410156 88.71875 -102.867188 88.71875 -101.484375 C 88.71875 -98.722656 84.460938 -92.976562 75.953125 -84.25 C 67.441406 -75.53125 57.707031 -66.410156 46.75 -56.890625 C 35.789062 -47.367188 27.601562 -40.691406 22.1875 -36.859375 C 19.945312 -32.609375 17.445312 -26.171875 14.6875 -17.546875 C 17.125 -21.273438 20.441406 -25.425781 24.640625 -30 C 28.847656 -34.570312 32.441406 -38.296875 35.421875 -41.171875 C 37.234375 -42.867188 39.28125 -44.4375 41.5625 -45.875 C 43.851562 -47.3125 46.117188 -48.03125 48.359375 -48.03125 C 50.265625 -48.03125 51.800781 -47.414062 52.96875 -46.1875 C 54.144531 -44.96875 54.734375 -43.03125 54.734375 -40.375 C 54.734375 -39.3125 54.46875 -37.023438 53.9375 -33.515625 C 53.832031 -32.867188 53.539062 -30.5 53.0625 -26.40625 C 52.582031 -22.3125 52.34375 -18.5625 52.34375 -15.15625 C 52.34375 -12.5 52.609375 -10.453125 53.140625 -9.015625 C 53.671875 -7.578125 54.628906 -6.859375 56.015625 -6.859375 C 57.710938 -6.859375 59.835938 -8.265625 62.390625 -11.078125 C 64.941406 -13.898438 67.921875 -17.707031 71.328125 -22.5 L 72.125 -23.625 C 74.789062 -27.34375 76.390625 -29.203125 76.921875 -29.203125 C 77.347656 -29.203125 77.71875 -28.960938 78.03125 -28.484375 C 78.351562 -28.003906 78.515625 -27.5 78.515625 -26.96875 C 78.515625 -26.539062 78.40625 -26.171875 78.1875 -25.859375 L 75.15625 -21.21875 C 72.707031 -17.394531 70.207031 -13.992188 67.65625 -11.015625 C 64.675781 -7.503906 61.910156 -4.679688 59.359375 -2.546875 C 56.804688 -0.421875 54.148438 0.640625 51.390625 0.640625 C 48.191406 0.640625 46.007812 -0.820312 44.84375 -3.75 C 43.675781 -6.675781 43.09375 -10.476562 43.09375 -15.15625 C 43.09375 -17.394531 43.144531 -19.3125 43.25 -20.90625 C 43.351562 -22.5 43.457031 -23.828125 43.5625 -24.890625 C 43.882812 -27.972656 44.046875 -30.796875 44.046875 -33.359375 C 44.046875 -35.796875 43.859375 -37.519531 43.484375 -38.53125 C 43.109375 -39.539062 42.5 -40.046875 41.65625 -40.046875 C 39.519531 -40.046875 36.5625 -37.890625 32.78125 -33.578125 C 29.007812 -29.273438 25.078125 -23.984375 20.984375 -17.703125 C 16.890625 -11.429688 13.191406 -5.265625 9.890625 0.796875 C 9.148438 1.546875 8.484375 2.050781 7.890625 2.3125 C 7.304688 2.582031 6.644531 2.71875 5.90625 2.71875 Z M 27.453125 -46.125 C 34.472656 -52.070312 42.128906 -58.875 50.421875 -66.53125 C 58.722656 -74.195312 65.878906 -81.273438 71.890625 -87.765625 C 77.898438 -94.253906 80.90625 -98.5625 80.90625 -100.6875 C 80.90625 -101.757812 80.53125 -102.5625 79.78125 -103.09375 C 79.039062 -103.625 78.140625 -103.890625 77.078125 -103.890625 C 73.671875 -103.890625 69.117188 -101.039062 63.421875 -95.34375 C 57.734375 -89.65625 51.695312 -82.394531 45.3125 -73.5625 C 38.9375 -64.738281 32.984375 -55.59375 27.453125 -46.125 Z M 27.453125 -46.125 "/></g></g></g><g fill="#874a22" fill-opacity="1"><g transform="translate(404.275935, 417.382484)"><g><path d="M 39.421875 2.078125 C 37.503906 2.078125 35.957031 1.304688 34.78125 -0.234375 C 33.613281 -1.773438 33.03125 -3.984375 33.03125 -6.859375 C 33.03125 -10.691406 33.800781 -14.84375 35.34375 -19.3125 C 36.882812 -23.78125 38.664062 -27.925781 40.6875 -31.75 C 39.195312 -30.15625 36.695312 -26.859375 33.1875 -21.859375 C 28.40625 -14.835938 24.203125 -9.304688 20.578125 -5.265625 C 16.960938 -1.222656 13.613281 0.796875 10.53125 0.796875 C 8.1875 0.796875 6.054688 0 4.140625 -1.59375 C 2.234375 -3.1875 1.28125 -5.738281 1.28125 -9.25 C 1.28125 -12.550781 2.207031 -16.460938 4.0625 -20.984375 C 5.925781 -25.503906 8.664062 -30.53125 12.28125 -36.0625 C 14.84375 -40 18.007812 -43.585938 21.78125 -46.828125 C 25.5625 -50.078125 29.5 -52.628906 33.59375 -54.484375 C 37.6875 -56.347656 41.539062 -57.28125 45.15625 -57.28125 C 46.4375 -57.28125 48.164062 -57.015625 50.34375 -56.484375 C 52.53125 -55.953125 54.445312 -55.207031 56.09375 -54.25 C 57.738281 -53.300781 58.5625 -52.1875 58.5625 -50.90625 C 58.5625 -50.476562 58.453125 -50.128906 58.234375 -49.859375 C 58.023438 -49.597656 57.765625 -49.46875 57.453125 -49.46875 C 57.128906 -49.46875 56.597656 -49.679688 55.859375 -50.109375 C 53.296875 -51.597656 50.898438 -52.34375 48.671875 -52.34375 C 44.835938 -52.34375 40.632812 -50.90625 36.0625 -48.03125 C 31.488281 -45.15625 26.703125 -40.316406 21.703125 -33.515625 C 16.492188 -26.378906 12.957031 -20.816406 11.09375 -16.828125 C 9.226562 -12.835938 8.296875 -9.78125 8.296875 -7.65625 C 8.296875 -6.0625 8.878906 -5.265625 10.046875 -5.265625 C 11.328125 -5.265625 13.03125 -6.113281 15.15625 -7.8125 C 19.726562 -11.539062 24.035156 -15.820312 28.078125 -20.65625 C 32.128906 -25.5 35.535156 -30.078125 38.296875 -34.390625 C 41.066406 -38.703125 43.035156 -42.1875 44.203125 -44.84375 C 44.304688 -45.269531 44.675781 -45.484375 45.3125 -45.484375 C 46.164062 -45.484375 47.125 -45.109375 48.1875 -44.359375 C 49.25 -43.617188 50.179688 -42.6875 50.984375 -41.5625 C 51.785156 -40.445312 52.1875 -39.253906 52.1875 -37.984375 C 52.1875 -37.023438 51.972656 -36.171875 51.546875 -35.421875 C 48.992188 -30.953125 46.890625 -26.671875 45.234375 -22.578125 C 43.585938 -18.484375 42.765625 -14.734375 42.765625 -11.328125 C 42.765625 -8.242188 43.722656 -6.703125 45.640625 -6.703125 C 47.234375 -6.703125 49.171875 -7.789062 51.453125 -9.96875 C 53.742188 -12.15625 56.910156 -15.851562 60.953125 -21.0625 C 63.929688 -24.789062 65.847656 -27.128906 66.703125 -28.078125 C 67.554688 -29.035156 68.25 -29.515625 68.78125 -29.515625 C 69.207031 -29.515625 69.550781 -29.410156 69.8125 -29.203125 C 70.082031 -28.992188 70.21875 -28.726562 70.21875 -28.40625 C 70.21875 -27.976562 69.523438 -26.703125 68.140625 -24.578125 C 65.691406 -20.640625 62.789062 -16.648438 59.4375 -12.609375 C 56.09375 -8.566406 52.632812 -5.109375 49.0625 -2.234375 C 45.5 0.640625 42.285156 2.078125 39.421875 2.078125 Z M 39.421875 2.078125 "/></g></g></g><g fill="#874a22" fill-opacity="1"><g transform="translate(463.159155, 417.382484)"><g><path d="M 16.75 1.28125 C 15.257812 1.28125 13.875 1.039062 12.59375 0.5625 C 11.320312 0.0820312 10.6875 -0.472656 10.6875 -1.109375 C 10.6875 -1.328125 10.738281 -1.488281 10.84375 -1.59375 L 13.890625 -6.859375 C 18.773438 -15.054688 22.785156 -22.238281 25.921875 -28.40625 C 29.066406 -34.570312 31.597656 -40.898438 33.515625 -47.390625 C 33.722656 -48.035156 33.828125 -48.78125 33.828125 -49.625 C 33.828125 -50.269531 33.664062 -50.722656 33.34375 -50.984375 C 33.03125 -51.253906 32.5 -51.390625 31.75 -51.390625 C 30.375 -51.390625 28.617188 -50.191406 26.484375 -47.796875 C 24.359375 -45.398438 21.378906 -41.382812 17.546875 -35.75 C 14.253906 -30.957031 10.476562 -25.632812 6.21875 -19.78125 C 5.375 -18.613281 4.789062 -18.03125 4.46875 -18.03125 C 4.144531 -18.03125 3.90625 -18.296875 3.75 -18.828125 C 3.59375 -19.359375 3.515625 -19.941406 3.515625 -20.578125 C 3.515625 -21.535156 3.617188 -22.175781 3.828125 -22.5 C 9.253906 -30.269531 12.609375 -35.21875 13.890625 -37.34375 L 25.859375 -56.65625 C 26.171875 -57.1875 26.9375 -57.609375 28.15625 -57.921875 C 29.382812 -58.242188 30.53125 -58.40625 31.59375 -58.40625 C 33.300781 -58.40625 35.109375 -58.003906 37.015625 -57.203125 C 38.929688 -56.410156 40.523438 -55.320312 41.796875 -53.9375 C 43.078125 -52.550781 43.71875 -51.0625 43.71875 -49.46875 C 43.71875 -47.65625 43.265625 -45.6875 42.359375 -43.5625 C 41.460938 -41.4375 40.160156 -38.773438 38.453125 -35.578125 C 36.960938 -32.816406 35.953125 -30.851562 35.421875 -29.6875 C 40.210938 -35.851562 45.109375 -41.171875 50.109375 -45.640625 C 55.109375 -50.109375 59.734375 -52.34375 63.984375 -52.34375 C 66.753906 -52.34375 68.722656 -51.359375 69.890625 -49.390625 C 71.066406 -47.421875 71.65625 -44.894531 71.65625 -41.8125 C 71.65625 -39.6875 71.441406 -37.53125 71.015625 -35.34375 C 70.585938 -33.164062 70.054688 -31.332031 69.421875 -29.84375 L 67.828125 -26.015625 C 72.078125 -30.796875 75.238281 -34.273438 77.3125 -36.453125 C 79.382812 -38.640625 80.953125 -40.210938 82.015625 -41.171875 C 83.722656 -42.765625 85.769531 -44.304688 88.15625 -45.796875 C 90.550781 -47.285156 92.816406 -48.03125 94.953125 -48.03125 C 96.972656 -48.03125 98.566406 -47.363281 99.734375 -46.03125 C 100.898438 -44.707031 101.484375 -42.710938 101.484375 -40.046875 C 101.484375 -38.773438 101.21875 -36.382812 100.6875 -32.875 C 100.582031 -32.125 100.289062 -29.78125 99.8125 -25.84375 C 99.332031 -21.914062 99.09375 -18.460938 99.09375 -15.484375 C 99.09375 -12.816406 99.332031 -10.738281 99.8125 -9.25 C 100.289062 -7.757812 101.007812 -7.015625 101.96875 -7.015625 C 103.351562 -7.015625 105.476562 -8.53125 108.34375 -11.5625 C 111.21875 -14.601562 114.835938 -18.832031 119.203125 -24.25 C 121.972656 -27.757812 123.675781 -29.515625 124.3125 -29.515625 C 124.632812 -29.515625 124.953125 -29.410156 125.265625 -29.203125 C 125.585938 -28.992188 125.75 -28.675781 125.75 -28.25 C 125.75 -27.5 124.257812 -25.078125 121.28125 -20.984375 C 118.300781 -16.890625 115.75 -13.617188 113.625 -11.171875 C 110.644531 -7.765625 107.796875 -4.96875 105.078125 -2.78125 C 102.367188 -0.601562 99.84375 0.484375 97.5 0.484375 C 94.625 0.484375 92.628906 -0.925781 91.515625 -3.75 C 90.398438 -6.570312 89.84375 -10.375 89.84375 -15.15625 C 89.84375 -18.457031 90.003906 -21.703125 90.328125 -24.890625 C 90.535156 -28.929688 90.640625 -31.753906 90.640625 -33.359375 C 90.640625 -35.796875 90.453125 -37.519531 90.078125 -38.53125 C 89.703125 -39.539062 89.09375 -40.046875 88.25 -40.046875 C 86.539062 -40.046875 84.460938 -38.984375 82.015625 -36.859375 C 79.578125 -34.734375 76.441406 -31.273438 72.609375 -26.484375 C 71.015625 -24.460938 69.414062 -22.253906 67.8125 -19.859375 C 66.21875 -17.472656 64.734375 -15.160156 63.359375 -12.921875 C 61.441406 -9.734375 60.269531 -7.820312 59.84375 -7.1875 C 58.5625 -5.695312 57.253906 -4.578125 55.921875 -3.828125 C 54.597656 -3.085938 53.457031 -2.71875 52.5 -2.71875 C 51.539062 -2.71875 50.769531 -3.035156 50.1875 -3.671875 C 49.601562 -4.304688 49.3125 -5.210938 49.3125 -6.390625 C 49.3125 -7.234375 49.578125 -8.453125 50.109375 -10.046875 C 50.742188 -11.648438 51.457031 -13.328125 52.25 -15.078125 C 53.050781 -16.835938 53.773438 -18.515625 54.421875 -20.109375 C 57.078125 -25.847656 59.203125 -30.660156 60.796875 -34.546875 C 62.390625 -38.429688 63.1875 -41.332031 63.1875 -43.25 C 63.1875 -44.519531 62.921875 -45.609375 62.390625 -46.515625 C 61.859375 -47.421875 61.0625 -47.875 60 -47.875 C 58.832031 -47.875 57.023438 -47.046875 54.578125 -45.390625 C 52.128906 -43.742188 49.945312 -41.859375 48.03125 -39.734375 C 45.269531 -36.859375 41.972656 -32.921875 38.140625 -27.921875 C 34.628906 -23.242188 31.273438 -18.347656 28.078125 -13.234375 C 24.890625 -8.128906 22.335938 -3.71875 20.421875 0 C 19.992188 0.851562 18.769531 1.28125 16.75 1.28125 Z M 16.75 1.28125 "/></g></g></g><g fill="#874a22" fill-opacity="1"><g transform="translate(577.414922, 417.382484)"><g><path d="M 16.75 1.28125 C 15.257812 1.28125 13.875 1.039062 12.59375 0.5625 C 11.320312 0.0820312 10.6875 -0.472656 10.6875 -1.109375 C 10.6875 -1.328125 10.738281 -1.488281 10.84375 -1.59375 L 13.890625 -6.859375 C 18.773438 -15.054688 22.785156 -22.238281 25.921875 -28.40625 C 29.066406 -34.570312 31.597656 -40.898438 33.515625 -47.390625 C 33.722656 -48.035156 33.828125 -48.78125 33.828125 -49.625 C 33.828125 -50.269531 33.664062 -50.722656 33.34375 -50.984375 C 33.03125 -51.253906 32.5 -51.390625 31.75 -51.390625 C 30.375 -51.390625 28.617188 -50.191406 26.484375 -47.796875 C 24.359375 -45.398438 21.378906 -41.382812 17.546875 -35.75 C 14.253906 -30.957031 10.476562 -25.632812 6.21875 -19.78125 C 5.375 -18.613281 4.789062 -18.03125 4.46875 -18.03125 C 4.144531 -18.03125 3.90625 -18.296875 3.75 -18.828125 C 3.59375 -19.359375 3.515625 -19.941406 3.515625 -20.578125 C 3.515625 -21.535156 3.617188 -22.175781 3.828125 -22.5 C 9.253906 -30.269531 12.609375 -35.21875 13.890625 -37.34375 L 25.859375 -56.65625 C 26.171875 -57.1875 26.9375 -57.609375 28.15625 -57.921875 C 29.382812 -58.242188 30.53125 -58.40625 31.59375 -58.40625 C 33.300781 -58.40625 35.109375 -58.003906 37.015625 -57.203125 C 38.929688 -56.410156 40.523438 -55.320312 41.796875 -53.9375 C 43.078125 -52.550781 43.71875 -51.0625 43.71875 -49.46875 C 43.71875 -47.65625 43.265625 -45.6875 42.359375 -43.5625 C 41.460938 -41.4375 40.160156 -38.773438 38.453125 -35.578125 C 36.960938 -32.816406 35.953125 -30.851562 35.421875 -29.6875 C 40.210938 -35.851562 45.109375 -41.171875 50.109375 -45.640625 C 55.109375 -50.109375 59.734375 -52.34375 63.984375 -52.34375 C 66.753906 -52.34375 68.722656 -51.359375 69.890625 -49.390625 C 71.066406 -47.421875 71.65625 -44.894531 71.65625 -41.8125 C 71.65625 -39.6875 71.441406 -37.53125 71.015625 -35.34375 C 70.585938 -33.164062 70.054688 -31.332031 69.421875 -29.84375 L 67.828125 -26.015625 C 72.078125 -30.796875 75.238281 -34.273438 77.3125 -36.453125 C 79.382812 -38.640625 80.953125 -40.210938 82.015625 -41.171875 C 83.722656 -42.765625 85.769531 -44.304688 88.15625 -45.796875 C 90.550781 -47.285156 92.816406 -48.03125 94.953125 -48.03125 C 96.972656 -48.03125 98.566406 -47.363281 99.734375 -46.03125 C 100.898438 -44.707031 101.484375 -42.710938 101.484375 -40.046875 C 101.484375 -38.773438 101.21875 -36.382812 100.6875 -32.875 C 100.582031 -32.125 100.289062 -29.78125 99.8125 -25.84375 C 99.332031 -21.914062 99.09375 -18.460938 99.09375 -15.484375 C 99.09375 -12.816406 99.332031 -10.738281 99.8125 -9.25 C 100.289062 -7.757812 101.007812 -7.015625 101.96875 -7.015625 C 103.351562 -7.015625 105.476562 -8.53125 108.34375 -11.5625 C 111.21875 -14.601562 114.835938 -18.832031 119.203125 -24.25 C 121.972656 -27.757812 123.675781 -29.515625 124.3125 -29.515625 C 124.632812 -29.515625 124.953125 -29.410156 125.265625 -29.203125 C 125.585938 -28.992188 125.75 -28.675781 125.75 -28.25 C 125.75 -27.5 124.257812 -25.078125 121.28125 -20.984375 C 118.300781 -16.890625 115.75 -13.617188 113.625 -11.171875 C 110.644531 -7.765625 107.796875 -4.96875 105.078125 -2.78125 C 102.367188 -0.601562 99.84375 0.484375 97.5 0.484375 C 94.625 0.484375 92.628906 -0.925781 91.515625 -3.75 C 90.398438 -6.570312 89.84375 -10.375 89.84375 -15.15625 C 89.84375 -18.457031 90.003906 -21.703125 90.328125 -24.890625 C 90.535156 -28.929688 90.640625 -31.753906 90.640625 -33.359375 C 90.640625 -35.796875 90.453125 -37.519531 90.078125 -38.53125 C 89.703125 -39.539062 89.09375 -40.046875 88.25 -40.046875 C 86.539062 -40.046875 84.460938 -38.984375 82.015625 -36.859375 C 79.578125 -34.734375 76.441406 -31.273438 72.609375 -26.484375 C 71.015625 -24.460938 69.414062 -22.253906 67.8125 -19.859375 C 66.21875 -17.472656 64.734375 -15.160156 63.359375 -12.921875 C 61.441406 -9.734375 60.269531 -7.820312 59.84375 -7.1875 C 58.5625 -5.695312 57.253906 -4.578125 55.921875 -3.828125 C 54.597656 -3.085938 53.457031 -2.71875 52.5 -2.71875 C 51.539062 -2.71875 50.769531 -3.035156 50.1875 -3.671875 C 49.601562 -4.304688 49.3125 -5.210938 49.3125 -6.390625 C 49.3125 -7.234375 49.578125 -8.453125 50.109375 -10.046875 C 50.742188 -11.648438 51.457031 -13.328125 52.25 -15.078125 C 53.050781 -16.835938 53.773438 -18.515625 54.421875 -20.109375 C 57.078125 -25.847656 59.203125 -30.660156 60.796875 -34.546875 C 62.390625 -38.429688 63.1875 -41.332031 63.1875 -43.25 C 63.1875 -44.519531 62.921875 -45.609375 62.390625 -46.515625 C 61.859375 -47.421875 61.0625 -47.875 60 -47.875 C 58.832031 -47.875 57.023438 -47.046875 54.578125 -45.390625 C 52.128906 -43.742188 49.945312 -41.859375 48.03125 -39.734375 C 45.269531 -36.859375 41.972656 -32.921875 38.140625 -27.921875 C 34.628906 -23.242188 31.273438 -18.347656 28.078125 -13.234375 C 24.890625 -8.128906 22.335938 -3.71875 20.421875 0 C 19.992188 0.851562 18.769531 1.28125 16.75 1.28125 Z M 16.75 1.28125 "/></g></g></g><g fill="#874a22" fill-opacity="1"><g transform="translate(691.670688, 417.382484)"><g><path d="M 20.265625 2.390625 C 15.691406 2.390625 11.890625 1.273438 8.859375 -0.953125 C 5.828125 -3.191406 4.3125 -7.078125 4.3125 -12.609375 C 4.3125 -17.816406 6.28125 -24.007812 10.21875 -31.1875 C 14.15625 -38.375 19.097656 -44.546875 25.046875 -49.703125 C 31.003906 -54.867188 36.910156 -57.453125 42.765625 -57.453125 C 45.742188 -57.453125 47.953125 -56.679688 49.390625 -55.140625 C 50.828125 -53.597656 51.546875 -51.601562 51.546875 -49.15625 C 51.546875 -44.894531 49.492188 -40.582031 45.390625 -36.21875 C 41.296875 -31.863281 36.375 -28.273438 30.625 -25.453125 C 24.882812 -22.628906 19.941406 -21.21875 15.796875 -21.21875 C 14.628906 -18.5625 14.046875 -16.0625 14.046875 -13.71875 C 14.046875 -10.53125 14.578125 -7.976562 15.640625 -6.0625 C 16.703125 -4.144531 18.828125 -3.1875 22.015625 -3.1875 C 26.597656 -3.1875 30.910156 -4.410156 34.953125 -6.859375 C 38.992188 -9.304688 42.660156 -12.335938 45.953125 -15.953125 C 49.253906 -19.578125 52.820312 -24.097656 56.65625 -29.515625 C 57.070312 -30.046875 57.492188 -30.3125 57.921875 -30.3125 C 58.242188 -30.3125 58.507812 -30.097656 58.71875 -29.671875 C 58.9375 -29.253906 59.046875 -28.78125 59.046875 -28.25 C 59.046875 -27.5 58.78125 -26.617188 58.25 -25.609375 C 57.71875 -24.597656 56.757812 -23.191406 55.375 -21.390625 C 51.4375 -15.960938 47.6875 -11.546875 44.125 -8.140625 C 40.5625 -4.734375 36.835938 -2.125 32.953125 -0.3125 C 29.066406 1.488281 24.835938 2.390625 20.265625 2.390625 Z M 17.234375 -24.421875 C 20.742188 -24.628906 24.785156 -26.222656 29.359375 -29.203125 C 33.929688 -32.179688 37.894531 -35.53125 41.25 -39.25 C 44.601562 -42.976562 46.28125 -45.957031 46.28125 -48.1875 C 46.28125 -49.675781 45.640625 -50.421875 44.359375 -50.421875 C 42.128906 -50.421875 39.257812 -49.144531 35.75 -46.59375 C 32.238281 -44.039062 28.78125 -40.742188 25.375 -36.703125 C 21.96875 -32.660156 19.253906 -28.566406 17.234375 -24.421875 Z M 17.234375 -24.421875 "/></g></g></g><g fill="#874a22" fill-opacity="1"><g transform="translate(739.383683, 417.382484)"><g><path d="M 48.671875 1.59375 C 44.410156 1.59375 42.28125 -2.445312 42.28125 -10.53125 C 42.28125 -15.207031 43.1875 -21.695312 45 -30 C 42.976562 -26.382812 39.835938 -22.128906 35.578125 -17.234375 C 31.328125 -12.335938 26.941406 -8.109375 22.421875 -4.546875 C 17.898438 -0.984375 14.203125 0.796875 11.328125 0.796875 C 9.835938 0.796875 8.347656 0.453125 6.859375 -0.234375 C 5.367188 -0.929688 4.09375 -2.050781 3.03125 -3.59375 C 1.96875 -5.132812 1.4375 -7.128906 1.4375 -9.578125 C 1.4375 -15.847656 5.109375 -24.25 12.453125 -34.78125 C 15.003906 -38.40625 18.035156 -42.101562 21.546875 -45.875 C 25.054688 -49.65625 28.75 -52.875 32.625 -55.53125 C 36.507812 -58.1875 40.101562 -59.515625 43.40625 -59.515625 C 46.8125 -59.515625 49.628906 -57.921875 51.859375 -54.734375 C 55.054688 -64.097656 58.675781 -72.582031 62.71875 -80.1875 C 66.757812 -87.789062 71.171875 -93.507812 75.953125 -97.34375 C 76.597656 -97.875 77.34375 -98.140625 78.1875 -98.140625 C 79.570312 -98.140625 81.085938 -97.710938 82.734375 -96.859375 C 84.390625 -96.015625 85.773438 -94.847656 86.890625 -93.359375 C 88.003906 -91.867188 88.5625 -90.21875 88.5625 -88.40625 C 88.5625 -85.851562 86.726562 -81.8125 83.0625 -76.28125 C 79.394531 -70.75 74.976562 -64.894531 69.8125 -58.71875 C 64.65625 -52.550781 60.003906 -47.34375 55.859375 -43.09375 C 54.785156 -38.9375 53.796875 -34.222656 52.890625 -28.953125 C 51.992188 -23.691406 51.546875 -19.203125 51.546875 -15.484375 C 51.546875 -12.929688 51.8125 -11.039062 52.34375 -9.8125 C 52.875 -8.59375 53.832031 -7.984375 55.21875 -7.984375 C 56.8125 -7.984375 58.722656 -8.78125 60.953125 -10.375 C 63.191406 -11.96875 65.640625 -14.304688 68.296875 -17.390625 C 69.253906 -18.453125 70.851562 -20.582031 73.09375 -23.78125 C 74.363281 -25.476562 75.554688 -27.070312 76.671875 -28.5625 C 77.796875 -30.050781 78.460938 -30.796875 78.671875 -30.796875 C 79.097656 -30.796875 79.46875 -30.582031 79.78125 -30.15625 C 80.101562 -29.726562 80.265625 -29.25 80.265625 -28.71875 C 80.265625 -28.40625 80.179688 -28.085938 80.015625 -27.765625 C 79.859375 -27.441406 79.625 -27.070312 79.3125 -26.65625 C 77.820312 -24.207031 76.066406 -21.597656 74.046875 -18.828125 C 72.023438 -16.066406 70.109375 -13.617188 68.296875 -11.484375 C 65.847656 -8.617188 62.679688 -5.722656 58.796875 -2.796875 C 54.921875 0.128906 51.546875 1.59375 48.671875 1.59375 Z M 57.765625 -49.3125 C 61.273438 -53.25 65.128906 -58.085938 69.328125 -63.828125 C 73.535156 -69.578125 77.101562 -74.867188 80.03125 -79.703125 C 82.957031 -84.546875 84.421875 -87.609375 84.421875 -88.890625 C 84.421875 -89.523438 84.285156 -90.023438 84.015625 -90.390625 C 83.753906 -90.765625 83.359375 -90.953125 82.828125 -90.953125 C 81.972656 -90.953125 80.800781 -90.316406 79.3125 -89.046875 C 77.289062 -87.128906 74.894531 -83.9375 72.125 -79.46875 C 69.363281 -75 66.675781 -70.023438 64.0625 -64.546875 C 61.457031 -59.066406 59.359375 -53.988281 57.765625 -49.3125 Z M 10.21875 -4.953125 C 12.976562 -4.953125 16.695312 -6.890625 21.375 -10.765625 C 26.0625 -14.648438 30.742188 -19.171875 35.421875 -24.328125 C 40.109375 -29.492188 43.992188 -34.148438 47.078125 -38.296875 C 48.242188 -42.972656 49.359375 -46.910156 50.421875 -50.109375 C 48.722656 -51.171875 47.078125 -51.703125 45.484375 -51.703125 C 39.097656 -51.703125 30.742188 -44.628906 20.421875 -30.484375 C 18.503906 -27.710938 16.03125 -23.691406 13 -18.421875 C 9.96875 -13.160156 8.453125 -9.304688 8.453125 -6.859375 C 8.453125 -5.585938 9.039062 -4.953125 10.21875 -4.953125 Z M 10.21875 -4.953125 "/></g></g></g><g fill="#874a22" fill-opacity="1"><g transform="translate(807.681832, 417.382484)"><g/></g></g><g fill="#874a22" fill-opacity="1"><g transform="translate(839.596829, 417.382484)"><g><path d="M 39.734375 37.015625 C 39.203125 37.015625 38.75 36.878906 38.375 36.609375 C 38 36.347656 37.8125 36.003906 37.8125 35.578125 C 37.8125 35.160156 38.238281 34.097656 39.09375 32.390625 C 43.238281 23.878906 46.664062 17.148438 49.375 12.203125 C 52.09375 7.253906 55.15625 2.226562 58.5625 -2.875 C 61.96875 -7.976562 66.8125 -14.894531 73.09375 -23.625 C 77.976562 -30.320312 83.929688 -38.003906 90.953125 -46.671875 C 97.972656 -55.347656 102.707031 -60.75 105.15625 -62.875 C 108.132812 -74.257812 109.625 -83.882812 109.625 -91.75 C 109.625 -99.945312 108.1875 -105.773438 105.3125 -109.234375 C 102.445312 -112.691406 98.40625 -114.421875 93.1875 -114.421875 C 88.613281 -114.421875 83.664062 -113.378906 78.34375 -111.296875 C 73.03125 -109.222656 67.609375 -106.695312 62.078125 -103.71875 C 52.710938 -98.613281 43.453125 -92.46875 34.296875 -85.28125 C 25.148438 -78.101562 17.867188 -71.378906 12.453125 -65.109375 C 11.378906 -63.941406 10.84375 -63.195312 10.84375 -62.875 C 10.84375 -62.65625 11.113281 -62.546875 11.65625 -62.546875 C 12.1875 -62.546875 13.0625 -62.625 14.28125 -62.78125 C 15.507812 -62.945312 16.492188 -63.03125 17.234375 -63.03125 C 17.765625 -63.03125 18.132812 -63.003906 18.34375 -62.953125 C 18.5625 -62.898438 18.671875 -62.765625 18.671875 -62.546875 L 17.234375 -61.921875 C 14.148438 -60.210938 11.546875 -59.359375 9.421875 -59.359375 C 8.242188 -59.359375 7.125 -59.890625 6.0625 -60.953125 C 5 -62.015625 4.144531 -63.1875 3.5 -64.46875 C 2.863281 -65.75 2.546875 -66.597656 2.546875 -67.015625 C 2.546875 -69.785156 5.257812 -73.617188 10.6875 -78.515625 C 16.113281 -83.410156 23.160156 -88.539062 31.828125 -93.90625 C 40.503906 -99.28125 49.363281 -103.9375 58.40625 -107.875 C 73.832031 -114.6875 86.332031 -118.09375 95.90625 -118.09375 C 103.132812 -118.09375 108.929688 -115.988281 113.296875 -111.78125 C 117.660156 -107.582031 119.84375 -100.695312 119.84375 -91.125 C 119.84375 -87.082031 119.414062 -82.398438 118.5625 -77.078125 C 128.351562 -86.859375 137.957031 -95.046875 147.375 -101.640625 C 156.789062 -108.242188 164.582031 -111.546875 170.75 -111.546875 C 174.257812 -111.546875 177.128906 -110.210938 179.359375 -107.546875 C 181.597656 -104.890625 182.71875 -100.742188 182.71875 -95.109375 C 182.71875 -91.066406 181.972656 -86.28125 180.484375 -80.75 C 178.992188 -75.21875 177.179688 -69.738281 175.046875 -64.3125 C 172.921875 -58.882812 170.265625 -52.34375 167.078125 -44.6875 C 164.847656 -39.46875 163.039062 -35.050781 161.65625 -31.4375 C 161.007812 -29.84375 160.6875 -28.78125 160.6875 -28.25 C 160.6875 -27.820312 160.847656 -27.609375 161.171875 -27.609375 C 161.597656 -27.609375 162.453125 -28.351562 163.734375 -29.84375 C 180.328125 -50.375 195.910156 -63.722656 210.484375 -69.890625 C 213.140625 -70.953125 215.476562 -71.484375 217.5 -71.484375 C 220.582031 -71.484375 222.125 -70.265625 222.125 -67.828125 C 222.125 -66.972656 221.859375 -65.75 221.328125 -64.15625 C 217.710938 -54.15625 214.097656 -42.664062 210.484375 -29.6875 C 206.867188 -16.707031 205.0625 -4.953125 205.0625 5.578125 C 205.0625 12.816406 206.253906 18.535156 208.640625 22.734375 C 211.035156 26.941406 214.894531 29.046875 220.21875 29.046875 C 224.46875 29.046875 229.226562 27.445312 234.5 24.25 C 239.769531 21.0625 244.796875 16.753906 249.578125 11.328125 C 250.429688 10.367188 251.070312 9.703125 251.5 9.328125 C 251.925781 8.960938 252.242188 8.78125 252.453125 8.78125 C 252.660156 8.78125 252.84375 8.882812 253 9.09375 C 253.164062 9.3125 253.25 9.578125 253.25 9.890625 C 253.25 10.421875 253.0625 11.082031 252.6875 11.875 C 252.320312 12.675781 251.765625 13.503906 251.015625 14.359375 C 245.378906 20.847656 239.523438 25.796875 233.453125 29.203125 C 227.390625 32.609375 221.703125 34.3125 216.390625 34.3125 C 208.941406 34.3125 203.566406 31.28125 200.265625 25.21875 C 196.972656 19.15625 195.328125 11.117188 195.328125 1.109375 C 195.328125 -6.441406 196.097656 -14.550781 197.640625 -23.21875 C 199.179688 -31.882812 201.039062 -39.863281 203.21875 -47.15625 C 205.40625 -54.445312 207.296875 -59.847656 208.890625 -63.359375 C 204.742188 -61.546875 199.691406 -58.03125 193.734375 -52.8125 C 187.773438 -47.601562 182 -41.910156 176.40625 -35.734375 C 170.820312 -29.566406 166.488281 -24.304688 163.40625 -19.953125 C 161.707031 -17.503906 160.242188 -15.535156 159.015625 -14.046875 C 157.796875 -12.554688 156.863281 -11.625 156.21875 -11.25 C 155.582031 -10.875 154.734375 -10.6875 153.671875 -10.6875 C 152.609375 -10.6875 151.648438 -10.898438 150.796875 -11.328125 C 149.953125 -11.753906 149.53125 -12.285156 149.53125 -12.921875 C 149.53125 -13.566406 149.796875 -14.660156 150.328125 -16.203125 C 150.859375 -17.742188 151.441406 -19.414062 152.078125 -21.21875 C 154.421875 -27.601562 156.921875 -35.6875 159.578125 -45.46875 C 162.234375 -55.257812 164.46875 -64.675781 166.28125 -73.71875 C 168.09375 -82.769531 169 -89.523438 169 -93.984375 C 169 -97.492188 168.546875 -100.097656 167.640625 -101.796875 C 166.734375 -103.503906 165.375 -104.359375 163.5625 -104.359375 C 159.3125 -104.359375 152.769531 -100.632812 143.9375 -93.1875 C 135.101562 -85.738281 125.847656 -76.859375 116.171875 -66.546875 C 112.660156 -52.609375 107.550781 -39.148438 100.84375 -26.171875 C 94.144531 -13.191406 86.882812 -2.6875 79.0625 5.34375 C 71.25 13.375 63.988281 17.390625 57.28125 17.390625 C 56.4375 17.390625 55.5625 17.28125 54.65625 17.0625 C 53.75 16.851562 52.976562 16.59375 52.34375 16.28125 C 47.550781 24.894531 44.195312 30.796875 42.28125 33.984375 C 41.113281 36.003906 40.265625 37.015625 39.734375 37.015625 Z M 54.578125 13.078125 C 59.359375 12.867188 64.675781 9.757812 70.53125 3.75 C 76.382812 -2.257812 82.023438 -10.023438 87.453125 -19.546875 C 92.878906 -29.066406 97.398438 -39.039062 101.015625 -49.46875 C 94.523438 -42.34375 87 -32.976562 78.4375 -21.375 C 69.875 -9.78125 61.921875 1.703125 54.578125 13.078125 Z M 54.578125 13.078125 "/></g></g></g><g fill="#874a22" fill-opacity="1"><g transform="translate(1063.95945, 417.382484)"><g><path d="M 13.25 4.15625 C 10.269531 4.15625 7.769531 3.25 5.75 1.4375 C 3.726562 -0.375 2.71875 -3.351562 2.71875 -7.5 C 2.71875 -11.96875 3.96875 -17.363281 6.46875 -23.6875 C 8.96875 -30.019531 12.210938 -36.003906 16.203125 -41.640625 C 20.191406 -47.285156 24.207031 -51.4375 28.25 -54.09375 C 28.78125 -54.414062 29.226562 -54.65625 29.59375 -54.8125 C 29.96875 -54.96875 30.367188 -55.046875 30.796875 -55.046875 C 31.546875 -55.046875 32.394531 -54.859375 33.34375 -54.484375 C 34.300781 -54.117188 35.15625 -53.671875 35.90625 -53.140625 C 37.925781 -55.484375 40.210938 -56.65625 42.765625 -56.65625 C 46.378906 -56.65625 48.71875 -55.269531 49.78125 -52.5 C 50.851562 -49.738281 51.390625 -46.390625 51.390625 -42.453125 C 51.390625 -38.085938 50.296875 -33.164062 48.109375 -27.6875 C 45.929688 -22.207031 42.976562 -17.070312 39.25 -12.28125 C 40.320312 -11.4375 41.492188 -11.015625 42.765625 -11.015625 C 45.535156 -11.015625 48.4375 -12.394531 51.46875 -15.15625 C 54.5 -17.925781 57.554688 -21.492188 60.640625 -25.859375 L 63.671875 -30.15625 C 63.992188 -30.582031 64.257812 -30.796875 64.46875 -30.796875 C 64.894531 -30.796875 65.289062 -30.503906 65.65625 -29.921875 C 66.03125 -29.335938 66.21875 -28.78125 66.21875 -28.25 C 66.21875 -27.820312 66.113281 -27.445312 65.90625 -27.125 L 62.234375 -21.859375 C 58.828125 -17.078125 55.5 -13.378906 52.25 -10.765625 C 49.007812 -8.160156 45.742188 -6.859375 42.453125 -6.859375 C 40.210938 -6.859375 38.191406 -7.5 36.390625 -8.78125 C 32.878906 -4.84375 29.128906 -1.703125 25.140625 0.640625 C 21.148438 2.984375 17.1875 4.15625 13.25 4.15625 Z M 36.21875 -17.234375 C 37.925781 -19.679688 39.550781 -22.875 41.09375 -26.8125 C 42.632812 -30.75 43.910156 -34.65625 44.921875 -38.53125 C 45.929688 -42.414062 46.4375 -45.582031 46.4375 -48.03125 C 46.4375 -49.414062 46.195312 -50.476562 45.71875 -51.21875 C 45.238281 -51.96875 44.570312 -52.34375 43.71875 -52.34375 C 42.65625 -52.34375 41.59375 -51.78125 40.53125 -50.65625 C 39.46875 -49.539062 38.5625 -47.921875 37.8125 -45.796875 C 36.863281 -43.242188 36.117188 -40.34375 35.578125 -37.09375 C 35.046875 -33.851562 34.78125 -30.691406 34.78125 -27.609375 C 34.78125 -23.566406 35.257812 -20.109375 36.21875 -17.234375 Z M 15.484375 0.15625 C 20.367188 0.15625 26.164062 -4.097656 32.875 -12.609375 C 31.59375 -14.734375 30.609375 -17.234375 29.921875 -20.109375 C 29.234375 -22.984375 28.890625 -26.066406 28.890625 -29.359375 C 28.890625 -34.890625 29.6875 -39.941406 31.28125 -44.515625 C 28.613281 -41.859375 25.765625 -38.347656 22.734375 -33.984375 C 19.703125 -29.628906 17.097656 -24.867188 14.921875 -19.703125 C 12.742188 -14.546875 11.65625 -9.628906 11.65625 -4.953125 C 11.65625 -3.347656 11.972656 -2.09375 12.609375 -1.1875 C 13.242188 -0.289062 14.203125 0.15625 15.484375 0.15625 Z M 15.484375 0.15625 "/></g></g></g><g fill="#874a22" fill-opacity="1"><g transform="translate(1118.055437, 417.382484)"><g><path d="M 16.75 1.28125 C 15.257812 1.28125 13.875 1.039062 12.59375 0.5625 C 11.320312 0.0820312 10.6875 -0.472656 10.6875 -1.109375 C 10.6875 -1.328125 10.738281 -1.488281 10.84375 -1.59375 L 13.890625 -6.859375 C 18.773438 -15.054688 22.785156 -22.238281 25.921875 -28.40625 C 29.066406 -34.570312 31.597656 -40.898438 33.515625 -47.390625 C 33.722656 -48.035156 33.828125 -48.78125 33.828125 -49.625 C 33.828125 -50.269531 33.664062 -50.722656 33.34375 -50.984375 C 33.03125 -51.253906 32.5 -51.390625 31.75 -51.390625 C 30.375 -51.390625 28.617188 -50.191406 26.484375 -47.796875 C 24.359375 -45.398438 21.378906 -41.382812 17.546875 -35.75 C 14.253906 -30.957031 10.476562 -25.632812 6.21875 -19.78125 C 5.375 -18.613281 4.789062 -18.03125 4.46875 -18.03125 C 4.144531 -18.03125 3.90625 -18.296875 3.75 -18.828125 C 3.59375 -19.359375 3.515625 -19.941406 3.515625 -20.578125 C 3.515625 -21.535156 3.617188 -22.175781 3.828125 -22.5 C 9.253906 -30.269531 12.609375 -35.21875 13.890625 -37.34375 L 25.859375 -56.65625 C 26.171875 -57.1875 26.9375 -57.609375 28.15625 -57.921875 C 29.382812 -58.242188 30.53125 -58.40625 31.59375 -58.40625 C 33.300781 -58.40625 35.109375 -58.003906 37.015625 -57.203125 C 38.929688 -56.410156 40.523438 -55.320312 41.796875 -53.9375 C 43.078125 -52.550781 43.71875 -51.0625 43.71875 -49.46875 C 43.71875 -47.65625 43.265625 -45.6875 42.359375 -43.5625 C 41.460938 -41.4375 40.160156 -38.773438 38.453125 -35.578125 C 36.960938 -32.816406 35.953125 -30.851562 35.421875 -29.6875 C 40.210938 -35.851562 45.109375 -41.171875 50.109375 -45.640625 C 55.109375 -50.109375 59.734375 -52.34375 63.984375 -52.34375 C 66.753906 -52.34375 68.722656 -51.359375 69.890625 -49.390625 C 71.066406 -47.421875 71.65625 -44.894531 71.65625 -41.8125 C 71.65625 -39.6875 71.441406 -37.53125 71.015625 -35.34375 C 70.585938 -33.164062 70.054688 -31.332031 69.421875 -29.84375 L 67.828125 -26.015625 C 72.078125 -30.796875 75.238281 -34.273438 77.3125 -36.453125 C 79.382812 -38.640625 80.953125 -40.210938 82.015625 -41.171875 C 83.722656 -42.765625 85.769531 -44.304688 88.15625 -45.796875 C 90.550781 -47.285156 92.816406 -48.03125 94.953125 -48.03125 C 96.972656 -48.03125 98.566406 -47.363281 99.734375 -46.03125 C 100.898438 -44.707031 101.484375 -42.710938 101.484375 -40.046875 C 101.484375 -38.773438 101.21875 -36.382812 100.6875 -32.875 C 100.582031 -32.125 100.289062 -29.78125 99.8125 -25.84375 C 99.332031 -21.914062 99.09375 -18.460938 99.09375 -15.484375 C 99.09375 -12.816406 99.332031 -10.738281 99.8125 -9.25 C 100.289062 -7.757812 101.007812 -7.015625 101.96875 -7.015625 C 103.351562 -7.015625 105.476562 -8.53125 108.34375 -11.5625 C 111.21875 -14.601562 114.835938 -18.832031 119.203125 -24.25 C 121.972656 -27.757812 123.675781 -29.515625 124.3125 -29.515625 C 124.632812 -29.515625 124.953125 -29.410156 125.265625 -29.203125 C 125.585938 -28.992188 125.75 -28.675781 125.75 -28.25 C 125.75 -27.5 124.257812 -25.078125 121.28125 -20.984375 C 118.300781 -16.890625 115.75 -13.617188 113.625 -11.171875 C 110.644531 -7.765625 107.796875 -4.96875 105.078125 -2.78125 C 102.367188 -0.601562 99.84375 0.484375 97.5 0.484375 C 94.625 0.484375 92.628906 -0.925781 91.515625 -3.75 C 90.398438 -6.570312 89.84375 -10.375 89.84375 -15.15625 C 89.84375 -18.457031 90.003906 -21.703125 90.328125 -24.890625 C 90.535156 -28.929688 90.640625 -31.753906 90.640625 -33.359375 C 90.640625 -35.796875 90.453125 -37.519531 90.078125 -38.53125 C 89.703125 -39.539062 89.09375 -40.046875 88.25 -40.046875 C 86.539062 -40.046875 84.460938 -38.984375 82.015625 -36.859375 C 79.578125 -34.734375 76.441406 -31.273438 72.609375 -26.484375 C 71.015625 -24.460938 69.414062 -22.253906 67.8125 -19.859375 C 66.21875 -17.472656 64.734375 -15.160156 63.359375 -12.921875 C 61.441406 -9.734375 60.269531 -7.820312 59.84375 -7.1875 C 58.5625 -5.695312 57.253906 -4.578125 55.921875 -3.828125 C 54.597656 -3.085938 53.457031 -2.71875 52.5 -2.71875 C 51.539062 -2.71875 50.769531 -3.035156 50.1875 -3.671875 C 49.601562 -4.304688 49.3125 -5.210938 49.3125 -6.390625 C 49.3125 -7.234375 49.578125 -8.453125 50.109375 -10.046875 C 50.742188 -11.648438 51.457031 -13.328125 52.25 -15.078125 C 53.050781 -16.835938 53.773438 -18.515625 54.421875 -20.109375 C 57.078125 -25.847656 59.203125 -30.660156 60.796875 -34.546875 C 62.390625 -38.429688 63.1875 -41.332031 63.1875 -43.25 C 63.1875 -44.519531 62.921875 -45.609375 62.390625 -46.515625 C 61.859375 -47.421875 61.0625 -47.875 60 -47.875 C 58.832031 -47.875 57.023438 -47.046875 54.578125 -45.390625 C 52.128906 -43.742188 49.945312 -41.859375 48.03125 -39.734375 C 45.269531 -36.859375 41.972656 -32.921875 38.140625 -27.921875 C 34.628906 -23.242188 31.273438 -18.347656 28.078125 -13.234375 C 24.890625 -8.128906 22.335938 -3.71875 20.421875 0 C 19.992188 0.851562 18.769531 1.28125 16.75 1.28125 Z M 16.75 1.28125 "/></g></g></g><g fill="#874a22" fill-opacity="1"><g transform="translate(1232.311204, 417.382484)"><g><path d="M 20.265625 2.390625 C 15.691406 2.390625 11.890625 1.273438 8.859375 -0.953125 C 5.828125 -3.191406 4.3125 -7.078125 4.3125 -12.609375 C 4.3125 -17.816406 6.28125 -24.007812 10.21875 -31.1875 C 14.15625 -38.375 19.097656 -44.546875 25.046875 -49.703125 C 31.003906 -54.867188 36.910156 -57.453125 42.765625 -57.453125 C 45.742188 -57.453125 47.953125 -56.679688 49.390625 -55.140625 C 50.828125 -53.597656 51.546875 -51.601562 51.546875 -49.15625 C 51.546875 -44.894531 49.492188 -40.582031 45.390625 -36.21875 C 41.296875 -31.863281 36.375 -28.273438 30.625 -25.453125 C 24.882812 -22.628906 19.941406 -21.21875 15.796875 -21.21875 C 14.628906 -18.5625 14.046875 -16.0625 14.046875 -13.71875 C 14.046875 -10.53125 14.578125 -7.976562 15.640625 -6.0625 C 16.703125 -4.144531 18.828125 -3.1875 22.015625 -3.1875 C 26.597656 -3.1875 30.910156 -4.410156 34.953125 -6.859375 C 38.992188 -9.304688 42.660156 -12.335938 45.953125 -15.953125 C 49.253906 -19.578125 52.820312 -24.097656 56.65625 -29.515625 C 57.070312 -30.046875 57.492188 -30.3125 57.921875 -30.3125 C 58.242188 -30.3125 58.507812 -30.097656 58.71875 -29.671875 C 58.9375 -29.253906 59.046875 -28.78125 59.046875 -28.25 C 59.046875 -27.5 58.78125 -26.617188 58.25 -25.609375 C 57.71875 -24.597656 56.757812 -23.191406 55.375 -21.390625 C 51.4375 -15.960938 47.6875 -11.546875 44.125 -8.140625 C 40.5625 -4.734375 36.835938 -2.125 32.953125 -0.3125 C 29.066406 1.488281 24.835938 2.390625 20.265625 2.390625 Z M 17.234375 -24.421875 C 20.742188 -24.628906 24.785156 -26.222656 29.359375 -29.203125 C 33.929688 -32.179688 37.894531 -35.53125 41.25 -39.25 C 44.601562 -42.976562 46.28125 -45.957031 46.28125 -48.1875 C 46.28125 -49.675781 45.640625 -50.421875 44.359375 -50.421875 C 42.128906 -50.421875 39.257812 -49.144531 35.75 -46.59375 C 32.238281 -44.039062 28.78125 -40.742188 25.375 -36.703125 C 21.96875 -32.660156 19.253906 -28.566406 17.234375 -24.421875 Z M 17.234375 -24.421875 "/></g></g></g><g fill="#874a22" fill-opacity="1"><g transform="translate(1280.024159, 417.382484)"><g><path d="M 16.75 1.28125 C 15.257812 1.28125 13.875 1.039062 12.59375 0.5625 C 11.320312 0.0820312 10.6875 -0.472656 10.6875 -1.109375 C 10.6875 -1.429688 10.953125 -2.019531 11.484375 -2.875 C 12.015625 -3.726562 12.867188 -5.109375 14.046875 -7.015625 C 19.679688 -16.597656 23.851562 -24.179688 26.5625 -29.765625 C 29.28125 -35.347656 31.546875 -41.066406 33.359375 -46.921875 C 33.773438 -48.191406 33.984375 -49.09375 33.984375 -49.625 C 33.984375 -50.800781 33.238281 -51.390625 31.75 -51.390625 C 30.375 -51.390625 28.617188 -50.191406 26.484375 -47.796875 C 24.359375 -45.398438 21.378906 -41.382812 17.546875 -35.75 L 6.21875 -19.46875 C 5.375 -18.300781 4.789062 -17.71875 4.46875 -17.71875 C 4.144531 -17.71875 3.90625 -17.984375 3.75 -18.515625 C 3.59375 -19.046875 3.515625 -19.628906 3.515625 -20.265625 C 3.515625 -21.222656 3.617188 -21.863281 3.828125 -22.1875 C 8.722656 -29.3125 12.078125 -34.363281 13.890625 -37.34375 L 25.859375 -56.65625 C 26.171875 -57.1875 26.9375 -57.609375 28.15625 -57.921875 C 29.382812 -58.242188 30.53125 -58.40625 31.59375 -58.40625 C 33.300781 -58.40625 35.109375 -58.003906 37.015625 -57.203125 C 38.929688 -56.410156 40.523438 -55.320312 41.796875 -53.9375 C 43.078125 -52.550781 43.71875 -51.0625 43.71875 -49.46875 C 43.71875 -48.1875 43.132812 -46.160156 41.96875 -43.390625 C 40.800781 -40.628906 38.941406 -36.644531 36.390625 -31.4375 C 35.960938 -30.476562 35.320312 -29.171875 34.46875 -27.515625 C 33.613281 -25.867188 33.03125 -24.570312 32.71875 -23.625 C 41.113281 -32.976562 46.535156 -38.828125 48.984375 -41.171875 C 50.691406 -42.765625 52.738281 -44.304688 55.125 -45.796875 C 57.519531 -47.285156 59.785156 -48.03125 61.921875 -48.03125 C 63.941406 -48.03125 65.535156 -47.363281 66.703125 -46.03125 C 67.867188 -44.707031 68.453125 -42.710938 68.453125 -40.046875 C 68.453125 -38.773438 68.1875 -36.382812 67.65625 -32.875 C 67.550781 -32.125 67.257812 -29.78125 66.78125 -25.84375 C 66.300781 -21.914062 66.0625 -18.460938 66.0625 -15.484375 C 66.0625 -12.816406 66.300781 -10.738281 66.78125 -9.25 C 67.257812 -7.757812 67.976562 -7.015625 68.9375 -7.015625 C 70.320312 -7.015625 72.445312 -8.53125 75.3125 -11.5625 C 78.1875 -14.601562 81.804688 -18.832031 86.171875 -24.25 C 88.941406 -27.757812 90.644531 -29.515625 91.28125 -29.515625 C 91.59375 -29.515625 91.910156 -29.410156 92.234375 -29.203125 C 92.554688 -28.992188 92.71875 -28.675781 92.71875 -28.25 C 92.71875 -27.5 91.226562 -25.078125 88.25 -20.984375 C 85.269531 -16.890625 82.71875 -13.617188 80.59375 -11.171875 C 77.613281 -7.765625 74.765625 -4.96875 72.046875 -2.78125 C 69.335938 -0.601562 66.8125 0.484375 64.46875 0.484375 C 61.59375 0.484375 59.597656 -0.925781 58.484375 -3.75 C 57.367188 -6.570312 56.8125 -10.375 56.8125 -15.15625 C 56.8125 -18.457031 56.96875 -21.703125 57.28125 -24.890625 C 57.5 -28.929688 57.609375 -31.753906 57.609375 -33.359375 C 57.609375 -35.796875 57.421875 -37.519531 57.046875 -38.53125 C 56.671875 -39.539062 56.0625 -40.046875 55.21875 -40.046875 C 52.238281 -40.046875 47.632812 -36.242188 41.40625 -28.640625 C 35.1875 -21.035156 29.203125 -12.976562 23.453125 -4.46875 L 20.578125 -0.15625 C 20.265625 0.476562 19.785156 0.875 19.140625 1.03125 C 18.503906 1.195312 17.707031 1.28125 16.75 1.28125 Z M 16.75 1.28125 "/></g></g></g></svg>